<svg width="334" height="715" viewBox="0 0 334 715" fill="none" xmlns="http://www.w3.org/2000/svg">
<path d="M3.18555 4.02881L85.7583 4.02881M85.7583 4.02881L166.829 4.02881M85.7583 4.02881L85.0076 710.97M166.829 4.02881L247.899 4.02881M166.829 4.02881L166.453 710.97M247.899 4.02881L329.72 4.02881V105.419M247.899 4.02881L247.149 710.97M329.72 105.419L329.72 206.344M329.72 105.419L247.899 105.419L166.829 105.419L85.7583 105.419L3.18649 105.419M329.72 206.344V307.734M329.72 206.344L247.899 206.344H166.829L85.7583 206.344H3.18649M329.72 307.734V408.194M329.72 307.734L247.899 307.269L166.829 307.734L85.7583 307.269H3.18649M329.72 408.194V509.584M329.72 408.194H247.899L166.829 408.194H85.7583H3.18649M329.72 509.584L329.72 609.579M329.72 509.584H247.899L166.829 509.584H85.7583L3.18649 509.119M329.72 609.579V710.97H247.149M329.72 609.579H247.899H166.829H85.7583H3.18649M247.149 710.97H166.453M166.453 710.97H85.0076M85.0076 710.97H3.18649L3.18649 609.579M3.18649 609.579L3.18649 509.119M3.18649 509.119L3.18649 408.194M3.18649 408.194L3.18649 307.269M3.18649 307.269L3.18649 206.344M3.18649 206.344L3.18649 105.419M3.18649 105.419L3.18649 3.09863" stroke="#4C5A65" stroke-width="0.5"/>
<ellipse cx="330.092" cy="4.95676" rx="3" ry="3.7175" fill="#4C5A65"/>
<ellipse cx="249.021" cy="4.95676" rx="3" ry="3.7175" fill="#4C5A65"/>
<ellipse cx="167.951" cy="4.95676" rx="3" ry="3.7175" fill="#4C5A65"/>
<ellipse cx="86.1289" cy="4.95676" rx="3" ry="3.7175" fill="#4C5A65"/>
<ellipse cx="3" cy="3.7175" rx="3" ry="3.7175" fill="#4C5A65"/>
<ellipse cx="3" cy="105.33" rx="3" ry="3.7175" fill="#4C5A65"/>
<ellipse cx="3" cy="205.702" rx="3" ry="3.7175" fill="#4C5A65"/>
<ellipse cx="3" cy="307.314" rx="3" ry="3.7175" fill="#4C5A65"/>
<ellipse cx="3" cy="407.686" rx="3" ry="3.7175" fill="#4C5A65"/>
<ellipse cx="3" cy="509.298" rx="3" ry="3.7175" fill="#4C5A65"/>
<ellipse cx="3" cy="610.91" rx="3" ry="3.7175" fill="#4C5A65"/>
<ellipse cx="3" cy="711.282" rx="3" ry="3.7175" fill="#4C5A65"/>
<ellipse cx="85" cy="711.282" rx="3" ry="3.7175" fill="#4C5A65"/>
<ellipse cx="167" cy="711.282" rx="3" ry="3.7175" fill="#4C5A65"/>
<ellipse cx="248" cy="711.282" rx="3" ry="3.7175" fill="#4C5A65"/>
<ellipse cx="247" cy="609.671" rx="3" ry="3.7175" fill="#4C5A65"/>
<ellipse cx="248.271" cy="510.047" rx="3" ry="3.7175" fill="#4C5A65"/>
<ellipse cx="248.271" cy="408.657" rx="3" ry="3.7175" fill="#4C5A65"/>
<ellipse cx="248.271" cy="308.197" rx="3" ry="3.7175" fill="#4C5A65"/>
<ellipse cx="248.271" cy="206.807" rx="3" ry="3.7175" fill="#4C5A65"/>
<ellipse cx="248" cy="105.33" rx="3" ry="3.7175" fill="#4C5A65"/>
<ellipse cx="167" cy="105.33" rx="3" ry="3.7175" fill="#4C5A65"/>
<ellipse cx="86.1289" cy="106.347" rx="3" ry="3.7175" fill="#4C5A65"/>
<ellipse cx="86.1289" cy="206.807" rx="3" ry="3.7175" fill="#4C5A65"/>
<ellipse cx="86.1289" cy="308.197" rx="3" ry="3.7175" fill="#4C5A65"/>
<ellipse cx="86.1289" cy="408.657" rx="3" ry="3.7175" fill="#4C5A65"/>
<ellipse cx="86.1289" cy="510.047" rx="3" ry="3.7175" fill="#4C5A65"/>
<ellipse cx="85" cy="609.671" rx="3" ry="3.7175" fill="#4C5A65"/>
<ellipse cx="166" cy="609.671" rx="3" ry="3.7175" fill="#4C5A65"/>
<ellipse cx="167.201" cy="510.047" rx="3" ry="3.7175" fill="#4C5A65"/>
<ellipse cx="167.201" cy="408.657" rx="3" ry="3.7175" fill="#4C5A65"/>
<ellipse cx="167.201" cy="308.197" rx="3" ry="3.7175" fill="#4C5A65"/>
<ellipse cx="167.201" cy="206.807" rx="3" ry="3.7175" fill="#4C5A65"/>
<ellipse cx="330.092" cy="106.347" rx="3" ry="3.7175" fill="#4C5A65"/>
<ellipse cx="330.092" cy="206.807" rx="3" ry="3.7175" fill="#4C5A65"/>
<ellipse cx="330.092" cy="308.197" rx="3" ry="3.7175" fill="#4C5A65"/>
<ellipse cx="330.092" cy="408.657" rx="3" ry="3.7175" fill="#4C5A65"/>
<ellipse cx="330.092" cy="510.047" rx="3" ry="3.7175" fill="#4C5A65"/>
<ellipse cx="330" cy="609.671" rx="3" ry="3.7175" fill="#4C5A65"/>
<ellipse cx="330" cy="711.282" rx="3" ry="3.7175" fill="#4C5A65"/>
</svg>
