<svg width="118" height="60" viewBox="0 0 118 60" fill="none" xmlns="http://www.w3.org/2000/svg">
    <g filter="url(#filter0_b_1800_206)">
    <mask id="path-1-inside-1_1800_206" fill="white">
    <path fill-rule="evenodd" clip-rule="evenodd" d="M13.9932 0.386719C6.26498 0.386719 0 6.65168 0 14.3799V33.6206C0 41.3489 6.26498 47.6138 13.9932 47.6138H51.9665C51.9665 47.7803 52.009 47.9511 52.102 48.1122L58.3582 58.9482C58.7431 59.6149 59.7053 59.6149 60.0902 58.9482L66.3464 48.1122C66.4394 47.9511 66.4819 47.7803 66.4819 47.6138H103.337C111.065 47.6138 117.33 41.3489 117.33 33.6206V14.3799C117.33 6.6517 111.065 0.386719 103.337 0.386719H13.9932Z"/>
    </mask>
    <path fill-rule="evenodd" clip-rule="evenodd" d="M13.9932 0.386719C6.26498 0.386719 0 6.65168 0 14.3799V33.6206C0 41.3489 6.26498 47.6138 13.9932 47.6138H51.9665C51.9665 47.7803 52.009 47.9511 52.102 48.1122L58.3582 58.9482C58.7431 59.6149 59.7053 59.6149 60.0902 58.9482L66.3464 48.1122C66.4394 47.9511 66.4819 47.7803 66.4819 47.6138H103.337C111.065 47.6138 117.33 41.3489 117.33 33.6206V14.3799C117.33 6.6517 111.065 0.386719 103.337 0.386719H13.9932Z" fill="white" fill-opacity="0.17"/>
    <path d="M51.9665 47.6138L52.8411 47.6137L52.841 46.7393H51.9665V47.6138ZM52.102 48.1122L52.8594 47.6749L52.8594 47.6749L52.102 48.1122ZM58.3582 58.9482L59.1156 58.511L59.1156 58.511L58.3582 58.9482ZM60.0902 58.9482L60.8476 59.3855L60.8476 59.3855L60.0902 58.9482ZM66.3464 48.1122L65.589 47.6749L65.589 47.6749L66.3464 48.1122ZM66.4819 47.6138V46.7393H65.6074L65.6073 47.6137L66.4819 47.6138ZM0.874576 14.3799C0.874576 7.1347 6.74799 1.2613 13.9932 1.2613V-0.487858C5.78196 -0.487858 -0.874576 6.16867 -0.874576 14.3799H0.874576ZM0.874576 33.6206V14.3799H-0.874576V33.6206H0.874576ZM13.9932 46.7393C6.748 46.7393 0.874576 40.8658 0.874576 33.6206H-0.874576C-0.874576 41.8319 5.78197 48.4884 13.9932 48.4884V46.7393ZM51.9665 46.7393H13.9932V48.4884H51.9665V46.7393ZM52.8594 47.6749C52.8512 47.6608 52.847 47.6493 52.8446 47.6403C52.8422 47.6312 52.8411 47.6224 52.8411 47.6137L51.0919 47.614C51.092 47.9314 51.1736 48.2534 51.3446 48.5495L52.8594 47.6749ZM59.1156 58.511L52.8594 47.6749L51.3446 48.5495L57.6008 59.3855L59.1156 58.511ZM59.3328 58.511C59.2845 58.5946 59.1638 58.5946 59.1156 58.511L57.6008 59.3855C58.3223 60.6353 60.1261 60.6352 60.8476 59.3855L59.3328 58.511ZM65.589 47.6749L59.3328 58.511L60.8476 59.3855L67.1038 48.5495L65.589 47.6749ZM65.6073 47.6137C65.6073 47.6224 65.6062 47.6312 65.6038 47.6403C65.6014 47.6493 65.5972 47.6608 65.589 47.6749L67.1038 48.5495C67.2748 48.2534 67.3564 47.9314 67.3565 47.614L65.6073 47.6137ZM103.337 46.7393H66.4819V48.4884H103.337V46.7393ZM116.455 33.6206C116.455 40.8659 110.582 46.7393 103.337 46.7393V48.4884C111.548 48.4884 118.204 41.8319 118.204 33.6206H116.455ZM116.455 14.3799V33.6206H118.204V14.3799H116.455ZM103.337 1.2613C110.582 1.2613 116.455 7.13471 116.455 14.3799H118.204C118.204 6.16868 111.548 -0.487858 103.337 -0.487858V1.2613ZM13.9932 1.2613H103.337V-0.487858H13.9932V1.2613Z" fill="white" fill-opacity="0.24" mask="url(#path-1-inside-1_1800_206)"/>
    </g>
    <defs>
    <filter id="filter0_b_1800_206" x="-8.74576" y="-8.35904" width="134.822" height="76.553" filterUnits="userSpaceOnUse" color-interpolation-filters="sRGB">
    <feFlood flood-opacity="0" result="BackgroundImageFix"/>
    <feGaussianBlur in="BackgroundImageFix" stdDeviation="4.37288"/>
    <feComposite in2="SourceAlpha" operator="in" result="effect1_backgroundBlur_1800_206"/>
    <feBlend mode="normal" in="SourceGraphic" in2="effect1_backgroundBlur_1800_206" result="shape"/>
    </filter>
    </defs>
    </svg>
    