<svg width="102" height="102" viewBox="0 0 102 102" fill="none" xmlns="http://www.w3.org/2000/svg">
    <path fill-rule="evenodd" clip-rule="evenodd"
        d="M19.9123 10.4098C27.9434 4.4114 35.556 1.38229 45.9187 0.106879C47.2938 -0.0724761 55.026 -0.0126925 56.68 0.186591C62.2998 0.844225 67.8598 2.39863 72.7223 4.69039C88.6251 12.2034 99.5458 27.2891 101.718 44.8061C102.136 48.1341 102.037 55.7069 101.539 58.8555C99.8248 69.4773 95.1616 78.7639 87.6685 86.5359C79.478 95.0055 68.9957 100.227 57.1982 101.701C53.8701 102.12 46.4767 102.02 43.2284 101.522C35.5361 100.306 28.043 97.3172 22.0845 93.0924C18.9159 90.8604 18.059 90.1629 15.6277 87.8114C12.6982 85.0015 10.5858 82.4905 8.45352 79.282C3.92979 72.4865 1.29926 65.3522 0.282912 57.2015C-0.0558691 54.5112 -0.115654 47.895 0.183271 45.4039C1.35904 35.5394 4.86642 27.03 11.0841 18.9989C12.5587 17.0858 17.8397 11.9443 19.9123 10.4098ZM74.5368 55.3617C75.1935 54.9749 75.1935 54.0251 74.5368 53.6383L40.0074 33.3041C39.3408 32.9115 38.5 33.3921 38.5 34.1658L38.5 74.8342C38.5 75.6079 39.3408 76.0885 40.0074 75.6959L74.5368 55.3617Z"
        fill="#4C5A65" />
</svg>