<svg width="165" height="92" viewBox="0 0 165 92" fill="none" xmlns="http://www.w3.org/2000/svg">
<path d="M0 46V92H22.9462C44.2957 92 51.8064 91.5975 54.7043 90.3325C55.3548 89.9875 56.9516 89.47 58.2527 89.125C64.4032 87.3425 71.6774 82.0525 75.5215 76.59C78.5968 72.22 81.8495 64.2275 82.8548 58.65C83.8602 53.0725 83.8602 38.87 82.8548 33.35C82.1452 29.3825 79.8979 22.5975 78.3602 19.8375C73.9247 11.615 67.0645 5.98 57.543 2.645C50.9194 0.287498 47.0753 0 22.9462 0H0V46ZM52.2796 23.7475C58.3118 26.5075 62.9247 31.2225 65.3495 36.915C66.828 40.4225 67.1237 41.86 67.1237 46C67.1237 52.7275 64.9946 57.9025 60.1452 62.79C48.6129 74.29 30.1613 72.8525 20.8172 59.685C17.9194 55.6025 16.914 52.095 16.914 46C16.914 35.88 21.4677 28.5775 30.457 24.15C35.2473 21.7925 37.9086 21.275 43.3495 21.505C47.0753 21.6775 48.7312 22.1375 52.2796 23.7475Z" fill="white"/>
<path d="M107.338 28.5775C102.312 29.9 98.5858 32.6025 95.7471 36.915C93.7955 39.8475 93.7363 40.0775 93.7363 46.0575C93.7363 52.1525 93.7363 52.1525 95.9836 55.43C98.6449 59.34 103.317 62.445 107.93 63.4225C116.742 65.205 126.677 59.34 128.984 50.945C129.93 47.495 129.338 40.9975 127.801 38.065C126.145 34.9025 122.715 31.6825 119.285 30.015C116.564 28.6925 109.881 27.8875 107.338 28.5775Z" fill="white"/>
<path d="M149.624 33.925C143.414 35.075 139.57 39.675 139.57 46C139.57 53.36 144.656 58.19 152.344 58.19C156.957 58.2475 160.328 56.5225 162.93 53.015C164.527 50.715 164.704 50.0825 164.704 46C164.704 41.9175 164.527 41.285 162.93 38.985C159.973 34.96 154.71 32.9475 149.624 33.925Z" fill="white"/>
</svg>
