<svg id="Слой_1" data-name="Слой 1" xmlns="http://www.w3.org/2000/svg" xmlns:xlink="http://www.w3.org/1999/xlink" width="2147.74" height="898.73" viewBox="0 0 2147.74 898.73">
  <defs>
    <clipPath id="clip-path">
      <rect x="1067.66" y="256.53" width="3872.02" height="1060.09" fill="none"/>
    </clipPath>
    <clipPath id="clip-path-2">
      <polygon points="1026.57 990.22 1026.57 256.53 -2290.96 256.53 -2290.96 1316.62 1026.57 1316.62 1026.57 990.22" fill="none"/>
    </clipPath>
    <clipPath id="clip-path-3">
      <path d="M1067.66,898.73h-41.09V723.2h41.09Z" fill="none"/>
    </clipPath>
  </defs>
  <g>
    <g id="circleGroup">
      <circle cx="70.25" cy="58.8" r="58.8" fill="#142b38"/>
      <circle cx="424.19" cy="58.8" r="58.8" fill="#142b38"/>
      <circle cx="896.26" cy="58.8" r="58.8" fill="#142b38"/>
      <circle cx="1250.09" cy="58.8" r="58.8" fill="#142b38"/>
      <circle cx="1486.21" cy="58.8" r="58.8" fill="#142b38"/>
      <circle cx="1840.22" cy="58.8" r="58.8" fill="#142b38"/>
      <circle cx="2076.26" cy="58.8" r="58.8" fill="#142b38"/>
      <circle cx="2076.26" cy="295" r="58.8" fill="#142b38"/>
      <circle cx="1486.21" cy="295" r="58.8" fill="#142b38"/>
      <circle cx="778.19" cy="295" r="58.8" fill="#142b38"/>
      <circle cx="424.34" cy="295" r="58.8" fill="#142b38"/>
      <circle cx="70.19" cy="295" r="58.8" fill="#142b38"/>
      <circle cx="424.19" cy="531.19" r="58.8" fill="#142b38"/>
      <circle cx="1250.09" cy="531.19" r="58.8" fill="#142b38"/>
    </g>
    <path id="circleStartMove" d="M1046.54,900.35c-32.53-.22-58.66-27-58.33-59.84.32-32,27-58.12,59.21-58A59,59,0,0,1,1106,842.15C1105.79,874.43,1079.08,900.58,1046.54,900.35Z" fill="#142b38"/>
    <g>
      <g clip-path="url(#clip-path)">
        <path id="nAnim" d="M1455.64,722.87c13.74,0,27.21-.15,40.67.18,1.66,0,3.74,2.32,4.8,4.06q29.6,48.92,59,97.94c1.1,1.82,2.28,3.59,3.42,5.39l1.38-.19V723.17h41.67V898.9c-14.5,0-28.78.1-43.06-.17-1.38,0-3.09-2.11-4-3.63q-28.57-47.18-57-94.46a23.31,23.31,0,0,0-5.13-6.44V898.51h-41.71Z" fill="#142b38"/>
        <path id="dAnim" d="M1995.64,722.85c4.12,0,7.93,0,11.74,0,22.16.07,44.34-.37,66.48.34,35.47,1.14,60.7,21.13,69.73,54.43,4.56,16.79,4.83,33.88,2.92,51.06-1.49,13.38-5.13,26.12-12.46,37.55-12.75,19.88-31.88,29-54.6,31.7a108.28,108.28,0,0,1-12.45.92c-23.65.08-47.3,0-71.36,0Zm41.6,139.09c11.22,0,21.92.68,32.5-.15,19.07-1.49,29.25-10.63,32.87-29.13a111.63,111.63,0,0,0-.5-46.15c-2.49-11.13-8.4-19.91-19.74-23.89-14.69-5.17-29.86-3-45.13-3.49Z" fill="#142b38"/>
      </g>
      <g clip-path="url(#clip-path-2)">
        <path id="lAnim" d="M566.79,862.34h78.79v36.18h-120V723.22h41.19Z" fill="#142b38"/>
        <path id="bAnim" d="M108,802.23c4.16,1.74,8.39,3.18,12.32,5.19,15.77,8.07,23.4,21.32,23.5,38.79.1,18.32-7.1,33-23.13,42.61-11,6.6-23.19,9.54-35.75,9.74-28,.44-55.95.13-84.32.13V723.27a18.13,18.13,0,0,1,2.73-.39c25.65,0,51.31-.21,77,.22,14,.24,27.46,3.4,38.46,13,16,14,17.4,44.16,2.47,57.48C117.48,796.93,112.72,799.2,108,802.23ZM42.22,863c13.87,0,27.18.39,40.44-.17a17.46,17.46,0,0,0,14.66-9.18c8.61-15-.5-32.52-17.73-33.63-7.64-.49-15.33-.18-23-.21-4.76,0-9.52,0-14.59,0,0,13.56,0,26.37,0,39.18C42,860.32,42.15,861.64,42.22,863Zm0-69.63c10.84,0,21.15.31,31.43-.09,9.09-.34,14.91-6.89,15.46-16.38.59-10.13-4.08-17.53-13.46-18.34-11-.94-22.12-.22-33.43-.22Z" fill="#142b38"/>
      </g>
      <g clip-path="url(#clip-path-3)">
        <circle id="iCircleMove" cx="1047.11" cy="841.45" r="58.8" fill="#142b38"/>
      </g>
    </g>
  </g>
</svg>
