<svg width="118" height="60" viewBox="0 0 118 60" fill="none" xmlns="http://www.w3.org/2000/svg">
    <g filter="url(#filter0_b_1801_211)">
    <mask id="path-1-inside-1_1801_211" fill="white">
    <path fill-rule="evenodd" clip-rule="evenodd" d="M60.0902 0.886719C59.7053 0.220053 58.7431 0.220052 58.3582 0.886718L52.102 11.7228C52.0499 11.813 52.0137 11.9062 51.9919 12H13.9932C6.26498 12 0 18.265 0 25.9932V45.2339C0 52.9621 6.26498 59.2271 13.9932 59.2271H103.337C111.065 59.2271 117.33 52.9622 117.33 45.2339V25.9932C117.33 18.265 111.065 12 103.337 12H66.4565C66.4347 11.9062 66.3985 11.813 66.3464 11.7228L60.0902 0.886719Z"/>
    </mask>
    <path fill-rule="evenodd" clip-rule="evenodd" d="M60.0902 0.886719C59.7053 0.220053 58.7431 0.220052 58.3582 0.886718L52.102 11.7228C52.0499 11.813 52.0137 11.9062 51.9919 12H13.9932C6.26498 12 0 18.265 0 25.9932V45.2339C0 52.9621 6.26498 59.2271 13.9932 59.2271H103.337C111.065 59.2271 117.33 52.9622 117.33 45.2339V25.9932C117.33 18.265 111.065 12 103.337 12H66.4565C66.4347 11.9062 66.3985 11.813 66.3464 11.7228L60.0902 0.886719Z" fill="white" fill-opacity="0.17"/>
    <path d="M58.3582 0.886718L57.6008 0.449428L57.6008 0.44943L58.3582 0.886718ZM60.0902 0.886719L59.3328 1.32401L59.3328 1.32401L60.0902 0.886719ZM52.102 11.7228L52.8594 12.1601L52.8594 12.1601L52.102 11.7228ZM51.9919 12V12.8746H52.6865L52.8438 12.198L51.9919 12ZM66.4565 12L65.6046 12.198L65.7619 12.8746H66.4565V12ZM66.3464 11.7228L67.1038 11.2855L67.1038 11.2855L66.3464 11.7228ZM59.1156 1.32401C59.1639 1.24039 59.2845 1.24039 59.3328 1.32401L60.8476 0.449432C60.1261 -0.800288 58.3223 -0.800285 57.6008 0.449428L59.1156 1.32401ZM52.8594 12.1601L59.1156 1.32401L57.6008 0.44943L51.3446 11.2855L52.8594 12.1601ZM52.8438 12.198C52.846 12.1883 52.8503 12.1757 52.8594 12.1601L51.3446 11.2855C51.2495 11.4502 51.1814 11.624 51.14 11.802L52.8438 12.198ZM13.9932 12.8746H51.9919V11.1254H13.9932V12.8746ZM0.874576 25.9932C0.874576 18.748 6.74799 12.8746 13.9932 12.8746V11.1254C5.78196 11.1254 -0.874576 17.7819 -0.874576 25.9932H0.874576ZM0.874576 45.2339V25.9932H-0.874576V45.2339H0.874576ZM13.9932 58.3525C6.748 58.3525 0.874576 52.4791 0.874576 45.2339H-0.874576C-0.874576 53.4452 5.78197 60.1017 13.9932 60.1017V58.3525ZM103.337 58.3525H13.9932V60.1017H103.337V58.3525ZM116.455 45.2339C116.455 52.4791 110.582 58.3525 103.337 58.3525V60.1017C111.548 60.1017 118.204 53.4452 118.204 45.2339H116.455ZM116.455 25.9932V45.2339H118.204V25.9932H116.455ZM103.337 12.8746C110.582 12.8746 116.455 18.748 116.455 25.9932H118.204C118.204 17.782 111.548 11.1254 103.337 11.1254V12.8746ZM66.4565 12.8746H103.337V11.1254H66.4565V12.8746ZM65.589 12.1601C65.5981 12.1757 65.6024 12.1884 65.6046 12.198L67.3084 11.802C67.267 11.624 67.1989 11.4502 67.1038 11.2855L65.589 12.1601ZM59.3328 1.32401L65.589 12.1601L67.1038 11.2855L60.8476 0.449431L59.3328 1.32401Z" fill="white" fill-opacity="0.24" mask="url(#path-1-inside-1_1801_211)"/>
    </g>
    <defs>
    <filter id="filter0_b_1801_211" x="-8.74576" y="-8.35904" width="134.822" height="76.3323" filterUnits="userSpaceOnUse" color-interpolation-filters="sRGB">
    <feFlood flood-opacity="0" result="BackgroundImageFix"/>
    <feGaussianBlur in="BackgroundImageFix" stdDeviation="4.37288"/>
    <feComposite in2="SourceAlpha" operator="in" result="effect1_backgroundBlur_1801_211"/>
    <feBlend mode="normal" in="SourceGraphic" in2="effect1_backgroundBlur_1801_211" result="shape"/>
    </filter>
    </defs>
    </svg>
    