<svg width="194" height="193" viewBox="0 0 194 193" fill="none" xmlns="http://www.w3.org/2000/svg">
    <path
        d="M58.834 19.6392C39.2324 30.3824 22.5334 39.9947 22.5334 39.9947C22.5334 39.9947 21.8926 42.7464 21.8926 69.6986C21.8926 100.006 22.0057 103.134 23.6266 111.804C25.3605 121.417 28.2254 129.898 32.8242 139.284C42.625 159.263 58.9847 175.773 78.8125 185.8C86.4646 189.683 95.9261 193 95.9261 193C95.9261 193 108.592 188.288 115.302 184.933C120.353 182.408 126.082 178.827 131.134 175.019C136.147 171.287 145.985 161.675 149.83 156.812C161.139 142.451 168.226 126.091 171.392 107.055C171.995 103.549 172.071 99.4779 172.184 71.9603L172.335 40.7863C172.335 40.7863 171.958 40.3716 171.468 39.8439C170.977 39.3162 154.165 30.1185 134.074 19.4507C102.297 2.52553 96.0015 0.0376129 96.0015 0.0376129C96.0015 0.0376129 88.8394 3.12865 58.834 19.6392ZM130.304 26.1605L164.569 44.4427L164.682 70.5656C164.795 98.3847 164.682 101.664 163.024 110.221C159.254 129.634 149.642 147.276 135.092 161.374C125.328 170.835 116.432 176.452 100.977 183.011L95.813 185.197L89.2541 182.295C79.7926 178.11 73.0074 174.077 65.9961 168.46C54.7629 159.451 45.9045 148.444 39.6094 135.59C35.9152 128.051 34.2566 123.565 32.4473 116.29C29.6201 105.057 29.6201 105.057 29.6201 73.0158V44.4427L62.792 26.2359C81.0365 16.2089 96.0015 7.99133 96.0015 7.95364C96.0392 7.91594 111.457 16.1335 130.304 26.1605Z"
        fill="white" />
    <path
        d="M128.759 75.5412C128.155 75.8427 118.317 83.6457 106.933 92.9187C95.549 102.192 86.1629 109.618 86.0121 109.429C85.899 109.241 81.9787 104.642 77.3799 99.2138C74.4567 95.7934 72.4972 93.5294 71.1258 92.0294L65.1289 96.7636C75.4197 108.939 82.8457 117.534 83.4865 118.061C83.9389 118.438 84.9189 118.74 85.8613 118.74C87.6707 118.74 84.6551 121.039 114.51 96.7636L115.413 96.0289C126.29 87.1767 131.081 83.2775 132.998 81.1012L128.759 75.5412Z"
        fill="white" />
</svg>