<svg width="33" height="34" viewBox="0 0 33 34" fill="none" xmlns="http://www.w3.org/2000/svg">
<rect width="33" height="34" fill="#D9D9D9"/>
<path d="M2 17V32H10.066C17.5706 32 20.2108 31.8687 21.2294 31.4562C21.4581 31.3437 22.0194 31.175 22.4767 31.0625C24.6387 30.4812 27.1957 28.7562 28.547 26.975C29.628 25.55 30.7713 22.9437 31.1247 21.125C31.4781 19.3062 31.4781 14.675 31.1247 12.875C30.8753 11.5812 30.0853 9.36875 29.5448 8.46875C27.9857 5.7875 25.5742 3.95 22.2272 2.8625C19.8989 2.09375 18.5477 2 10.066 2H2V17ZM20.3771 9.74375C22.4975 10.6437 24.119 12.1812 24.9713 14.0375C25.491 15.1812 25.595 15.65 25.595 17C25.595 19.1937 24.8466 20.8812 23.1419 22.475C19.0882 26.225 12.6022 25.7562 9.31756 21.4625C8.29893 20.1312 7.94552 18.9875 7.94552 17C7.94552 13.7 9.54624 11.3187 12.7061 9.875C14.39 9.10625 15.3254 8.9375 17.238 9.0125C18.5477 9.06875 19.1298 9.21875 20.3771 9.74375Z" fill="black"/>
</svg>
