<svg width="190" height="198" viewBox="0 0 190 198" fill="none" xmlns="http://www.w3.org/2000/svg">
<path d="M68.3008 192.746C68.3008 192.746 103.11 169.331 94.8791 95.2822" stroke="white" stroke-width="5.94725" stroke-miterlimit="10" stroke-linecap="round"/>
<path d="M42.9727 180.727C42.9727 180.727 56.9011 164.271 58.7983 156.04" stroke="white" stroke-width="5.94725" stroke-miterlimit="10" stroke-linecap="round"/>
<path d="M62.0039 141.486C62.0039 141.486 65.7983 103.513 65.7983 91.4878C65.7983 79.4625 73.3929 68.704 85.4242 65.54" stroke="white" stroke-width="5.94725" stroke-miterlimit="10" stroke-linecap="round"/>
<path d="M96.1406 65.5401C96.1406 65.5401 125.907 62.3761 126.216 103.513" stroke="white" stroke-width="5.94725" stroke-miterlimit="10" stroke-linecap="round"/>
<path d="M126.235 113.559C126.235 113.559 127.638 163.634 106.52 192.746" stroke="white" stroke-width="5.94725" stroke-miterlimit="10" stroke-linecap="round"/>
<path d="M144.879 183.891C144.879 183.891 158.171 161.737 156.904 109.841" stroke="white" stroke-width="5.94725" stroke-miterlimit="10" stroke-linecap="round"/>
<path d="M156.987 95.2823C155.922 34.4479 94.1481 23.743 63.2402 43.3867" stroke="white" stroke-width="5.94725" stroke-miterlimit="10" stroke-linecap="round"/>
<path d="M52.4884 52.8843C52.4884 52.8843 30.3349 69.3344 34.7656 111.762" stroke="white" stroke-width="5.94725" stroke-miterlimit="10" stroke-linecap="round"/>
<path d="M34.171 123.603C34.171 123.603 36.6867 143.413 20.2188 156.069" stroke="white" stroke-width="5.94725" stroke-miterlimit="10" stroke-linecap="round"/>
<path d="M3.75017 125.661C3.75017 125.661 0.247234 82.2459 15.0499 52.8843" stroke="white" stroke-width="5.94725" stroke-miterlimit="10" stroke-linecap="round"/>
<path d="M20.2188 42.1258C37.3112 -4.26274 144.665 -17.1326 173.361 46.5446" stroke="white" stroke-width="5.94725" stroke-miterlimit="10" stroke-linecap="round"/>
<path d="M177.791 57.3149C184.755 76.4591 188.05 103.638 186.016 127.564" stroke="white" stroke-width="5.94725" stroke-miterlimit="10" stroke-linecap="round"/>
<path d="M11.6543 144.014C11.6543 144.014 19.4333 141.855 20.2183 103.513C20.813 73.1346 30.5309 12.8176 110.117 19.5142" stroke="white" stroke-width="5.94725" stroke-miterlimit="10" stroke-linecap="round"/>
<path d="M122.73 23.7725C122.73 23.7725 191.719 40.2227 168.929 159.203" stroke="white" stroke-width="5.94725" stroke-miterlimit="10" stroke-linecap="round"/>
<path d="M30.0742 168.38C30.0742 168.38 44.4666 155.409 47.5235 143.996C50.5804 132.584 50.9015 95.2646 50.9015 95.2646" stroke="white" stroke-width="5.94725" stroke-miterlimit="10" stroke-linecap="round"/>
<path d="M52.4883 81.3777C61.207 49.2982 105.686 40.2406 131.396 65.677" stroke="white" stroke-width="5.94725" stroke-miterlimit="10" stroke-linecap="round"/>
<path d="M137.92 76.2988C137.92 76.2988 144.878 93.3853 140.448 135.771" stroke="white" stroke-width="5.94725" stroke-miterlimit="10" stroke-linecap="round"/>
<path d="M137.92 153.155C137.92 153.155 130.325 187.055 122.73 192.746" stroke="white" stroke-width="5.94725" stroke-miterlimit="10" stroke-linecap="round"/>
<path d="M85.3867 195C85.3867 195 96.7816 182.624 102.473 163.634" stroke="white" stroke-width="5.94725" stroke-miterlimit="10" stroke-linecap="round"/>
<path d="M106.501 149.914C106.501 149.914 113.323 103.525 110.117 91.4881C106.501 72.3379 81.7902 73.9853 82.2184 89.2757L82.6168 110.228" stroke="white" stroke-width="5.94725" stroke-miterlimit="10" stroke-linecap="round"/>
<path d="M82.2229 123.603C82.2229 123.603 85.0062 161.136 55.7695 183.92" stroke="white" stroke-width="5.94725" stroke-miterlimit="10" stroke-linecap="round"/>
</svg>
