<svg width="535" height="361" viewBox="0 0 535 361" fill="none" xmlns="http://www.w3.org/2000/svg">
    <circle cx="267.5" cy="323.326" r="266" stroke="url(#paint0_linear_1801_311)" stroke-width="3"/>
    <g filter="url(#filter0_b_1801_311)">
    <circle cx="267.299" cy="313.44" r="198.299" fill="url(#paint1_linear_1801_311)" fill-opacity="0.12"/>
    </g>
    <g filter="url(#filter1_b_1801_311)">
    <circle cx="266.918" cy="47.1033" r="47.1033" fill="black" fill-opacity="0.24"/>
    <circle cx="266.918" cy="47.1033" r="46.5217" stroke="white" stroke-opacity="0.24" stroke-width="1.16304"/>
    </g>
    <path d="M272.226 66.9914L269.435 59.0082H252.408L249.617 66.9914H241.913L256.26 27.9131H265.639L279.986 66.9914H272.226ZM254.362 53.5373H267.537L261.173 35.4496H260.726L254.362 53.5373Z" fill="white"/>
    <path d="M283.992 27.9131H291.305V66.9914H283.992V27.9131Z" fill="white"/>
    <path d="M174.055 183.431V186.397H167.155V206H163.738V186.397H156.838V183.431H174.055ZM183.199 189.073C183.554 189.073 183.941 189.073 184.457 189.17V192.04C183.941 192.007 183.651 192.007 183.425 192.007C179.975 192.007 178.17 193.748 177.686 196.489V206H174.43V189.235H177.686V193.2C178.202 190.943 180.072 189.073 183.199 189.073ZM198.661 189.235H201.918V206H198.661V202.292C198.274 203.517 196.34 206.226 192.89 206.226C189.505 206.226 186.926 204.485 186.926 199.391V189.235H190.182V199.262C190.182 202.389 191.73 203.485 194.019 203.485C196.92 203.485 198.371 200.906 198.661 199.487V189.235ZM215.306 193.813C214.79 192.201 213.501 191.556 211.566 191.556C209.438 191.556 208.213 192.491 208.213 193.877C208.213 195.07 208.987 195.715 210.728 196.134L213.533 196.779C216.628 197.488 218.627 198.069 218.627 201.261C218.627 204.743 215.435 206.226 211.663 206.226C207.762 206.226 205.021 204.549 204.57 200.97H207.601C208.02 203.002 209.632 203.743 211.695 203.743C213.823 203.743 215.371 202.905 215.371 201.261C215.371 199.81 214.436 199.391 212.791 199.004L209.922 198.359C206.601 197.585 205.15 196.102 205.15 193.781C205.15 190.847 207.633 189.073 211.534 189.073C215.338 189.073 217.628 190.815 218.272 193.813H215.306ZM227.599 203.614C228.147 203.614 228.695 203.55 229.405 203.356V205.774C228.695 206.032 227.728 206.193 226.664 206.193C224.407 206.193 222.634 205.516 222.634 202.453V191.814H219.99V189.235H222.634V185.043H225.89V189.235H229.179V191.814H225.89V202.099C225.89 203.034 226.309 203.614 227.599 203.614ZM260.561 206H256.917L255.048 203.937C253.178 205.645 250.856 206.387 248.535 206.387C243.924 206.387 240.475 203.775 240.475 199.874C240.475 196.618 242.893 195.006 245.601 193.491C244.086 191.782 242.86 190.008 242.86 188.042C242.86 185.301 244.569 182.98 248.567 182.98C252.339 182.98 254.145 185.301 254.145 188.01C254.145 190.428 252.952 192.04 249.631 193.974L254.725 199.584C255.467 198.198 255.95 196.424 256.015 194.297H258.981C258.755 197.521 257.949 200.003 256.789 201.841L260.561 206ZM248.567 185.43C246.665 185.43 245.569 186.526 245.569 188.139C245.569 189.428 246.568 190.621 247.987 192.201C250.598 190.75 251.404 189.589 251.404 188.106C251.404 186.526 250.34 185.43 248.567 185.43ZM248.567 203.55C250.179 203.55 251.759 202.937 253.049 201.744L247.245 195.328C244.956 196.682 243.957 198.165 243.957 199.777C243.957 201.938 245.827 203.55 248.567 203.55ZM280.544 183.431C286.089 183.431 288.797 186.333 288.797 190.911C288.797 195.425 286.089 198.327 280.544 198.327H275.514V206H272.129V183.431H280.544ZM280.544 195.36C283.606 195.36 285.186 193.748 285.186 190.911C285.186 188.042 283.606 186.397 280.544 186.397H275.514V195.36H280.544ZM300.356 189.073C300.711 189.073 301.098 189.073 301.614 189.17V192.04C301.098 192.007 300.808 192.007 300.582 192.007C297.132 192.007 295.327 193.748 294.843 196.489V206H291.587V189.235H294.843V193.2C295.359 190.943 297.229 189.073 300.356 189.073ZM304.244 183.141H307.5V185.914H304.244V183.141ZM304.244 189.235H307.5V206H304.244V189.235ZM320.042 206H316.431L309.822 189.235H313.078L318.237 202.776L323.395 189.235H326.651L320.042 206ZM341.846 202.647C341.846 203.582 342.2 203.969 343.071 203.969V205.903C342.652 206.097 342.297 206.129 341.814 206.129C340.072 206.129 338.88 205.42 338.88 203.646V202.808C338.525 203.55 336.816 206.226 332.786 206.226C329.723 206.226 327.241 204.614 327.241 201.196C327.241 197.94 329.594 196.811 333.237 196.231C335.172 195.909 337.493 195.651 338.589 195.038V194.877C338.589 192.201 337.139 191.524 334.978 191.524C332.818 191.524 331.593 192.265 331.335 193.813H328.24C328.562 190.686 330.948 189.073 335.011 189.073C339.718 189.073 341.846 190.911 341.846 195.651V202.647ZM338.589 200.68V197.069C337.558 197.585 335.688 197.875 333.689 198.23C331.303 198.681 330.497 199.52 330.497 201.067C330.497 202.679 331.561 203.84 333.592 203.84C336.655 203.84 338.17 201.454 338.589 200.68ZM352.585 203.55C354.874 203.55 356.099 202.518 356.712 200.648H359.678C358.775 204.968 355.583 206.226 352.553 206.226C348.716 206.226 344.589 203.775 344.589 197.65C344.589 191.556 348.684 189.073 352.52 189.073C355.551 189.073 358.614 190.331 359.549 194.522H356.55C355.97 192.749 354.777 191.749 352.553 191.749C349.877 191.749 347.716 193.684 347.716 197.65C347.716 201.68 349.909 203.55 352.585 203.55ZM374.357 189.235H377.678L370.553 206.806C368.812 211.126 366.78 212.577 363.137 212.158V209.353C365.781 209.675 366.909 208.483 367.586 206.838C367.909 206 367.909 205.613 367.586 204.839L361.332 189.235H364.685L369.456 202.099L374.357 189.235Z" fill="white"/>
    <defs>
    <filter id="filter0_b_1801_311" x="57.3696" y="103.511" width="419.859" height="419.859" filterUnits="userSpaceOnUse" color-interpolation-filters="sRGB">
    <feFlood flood-opacity="0" result="BackgroundImageFix"/>
    <feGaussianBlur in="BackgroundImageFix" stdDeviation="5.81522"/>
    <feComposite in2="SourceAlpha" operator="in" result="effect1_backgroundBlur_1801_311"/>
    <feBlend mode="normal" in="SourceGraphic" in2="effect1_backgroundBlur_1801_311" result="shape"/>
    </filter>
    <filter id="filter1_b_1801_311" x="210.511" y="-9.30435" width="112.815" height="112.815" filterUnits="userSpaceOnUse" color-interpolation-filters="sRGB">
    <feFlood flood-opacity="0" result="BackgroundImageFix"/>
    <feGaussianBlur in="BackgroundImageFix" stdDeviation="4.65217"/>
    <feComposite in2="SourceAlpha" operator="in" result="effect1_backgroundBlur_1801_311"/>
    <feBlend mode="normal" in="SourceGraphic" in2="effect1_backgroundBlur_1801_311" result="shape"/>
    </filter>
    <linearGradient id="paint0_linear_1801_311" x1="267.5" y1="55.8262" x2="267.5" y2="313.5" gradientUnits="userSpaceOnUse">
    <stop stop-color="#FAFAFA"/>
    <stop offset="0.285998" stop-color="#FAFAFA" stop-opacity="0.672005"/>
    <stop offset="1" stop-color="#FAFAFA" stop-opacity="0"/>
    </linearGradient>
    <linearGradient id="paint1_linear_1801_311" x1="267.299" y1="115.141" x2="267.299" y2="319.5" gradientUnits="userSpaceOnUse">
    <stop stop-color="#C4C8D6"/>
    <stop offset="1" stop-color="#C4C8D6" stop-opacity="0"/>
    </linearGradient>
    </defs>
    </svg>
    