<svg width="396" height="157" viewBox="0 0 396 157" fill="none" xmlns="http://www.w3.org/2000/svg">
<path d="M14.5382 21.5378C20.4822 21.5378 25.3007 16.7164 25.3007 10.7689C25.3007 4.8214 20.4822 0 14.5382 0C8.59414 0 3.77539 4.8214 3.77539 10.7689C3.77539 16.7164 8.59414 21.5378 14.5382 21.5378Z" fill="white"/>
<path d="M14.5382 64.6135C20.4822 64.6135 25.3007 59.7921 25.3007 53.8446C25.3007 47.8971 20.4822 43.0757 14.5382 43.0757C8.59414 43.0757 3.77539 47.8971 3.77539 53.8446C3.77539 59.7921 8.59414 64.6135 14.5382 64.6135Z" fill="white"/>
<path d="M79.1141 21.5378C85.0582 21.5378 89.8767 16.7164 89.8767 10.7689C89.8767 4.8214 85.0582 0 79.1141 0C73.1701 0 68.3516 4.8214 68.3516 10.7689C68.3516 16.7164 73.1701 21.5378 79.1141 21.5378Z" fill="white"/>
<path d="M79.1141 64.6135C85.0582 64.6135 89.8767 59.7921 89.8767 53.8446C89.8767 47.8971 85.0582 43.0757 79.1141 43.0757C73.1701 43.0757 68.3516 47.8971 68.3516 53.8446C68.3516 59.7921 73.1701 64.6135 79.1141 64.6135Z" fill="white"/>
<path d="M79.1141 107.689C85.0582 107.689 89.8767 102.867 89.8767 96.9198C89.8767 90.9723 85.0582 86.1509 79.1141 86.1509C73.1701 86.1509 68.3516 90.9723 68.3516 96.9198C68.3516 102.867 73.1701 107.689 79.1141 107.689Z" fill="white"/>
<path d="M143.686 64.6135C149.63 64.6135 154.449 59.7921 154.449 53.8446C154.449 47.8971 149.63 43.0757 143.686 43.0757C137.742 43.0757 132.924 47.8971 132.924 53.8446C132.924 59.7921 137.742 64.6135 143.686 64.6135Z" fill="white"/>
<path d="M165.212 21.5378C171.156 21.5378 175.975 16.7164 175.975 10.7689C175.975 4.8214 171.156 0 165.212 0C159.268 0 154.449 4.8214 154.449 10.7689C154.449 16.7164 159.268 21.5378 165.212 21.5378Z" fill="white"/>
<path d="M380.458 21.5378C386.402 21.5378 391.22 16.7164 391.22 10.7689C391.22 4.8214 386.402 0 380.458 0C374.514 0 369.695 4.8214 369.695 10.7689C369.695 16.7164 374.514 21.5378 380.458 21.5378Z" fill="white"/>
<path d="M380.458 64.6135C386.402 64.6135 391.22 59.7921 391.22 53.8446C391.22 47.8971 386.402 43.0757 380.458 43.0757C374.514 43.0757 369.695 47.8971 369.695 53.8446C369.695 59.7921 374.514 64.6135 380.458 64.6135Z" fill="white"/>
<path d="M337.407 21.5378C343.351 21.5378 348.17 16.7164 348.17 10.7689C348.17 4.8214 343.351 0 337.407 0C331.463 0 326.645 4.8214 326.645 10.7689C326.645 16.7164 331.463 21.5378 337.407 21.5378Z" fill="white"/>
<path d="M229.786 21.5378C235.731 21.5378 240.549 16.7164 240.549 10.7689C240.549 4.8214 235.731 0 229.786 0C223.842 0 219.023 4.8214 219.023 10.7689C219.023 16.7164 223.842 21.5378 229.786 21.5378Z" fill="white"/>
<path d="M229.786 107.689C235.731 107.689 240.549 102.867 240.549 96.9198C240.549 90.9723 235.731 86.1509 229.786 86.1509C223.842 86.1509 219.023 90.9723 219.023 96.9198C219.023 102.867 223.842 107.689 229.786 107.689Z" fill="white"/>
<path d="M272.833 21.5378C278.777 21.5378 283.595 16.7164 283.595 10.7689C283.595 4.8214 278.777 0 272.833 0C266.889 0 262.07 4.8214 262.07 10.7689C262.07 16.7164 266.889 21.5378 272.833 21.5378Z" fill="white"/>
<path d="M272.833 64.6135C278.777 64.6135 283.595 59.7921 283.595 53.8446C283.595 47.8971 278.777 43.0757 272.833 43.0757C266.889 43.0757 262.07 47.8971 262.07 53.8446C262.07 59.7921 266.889 64.6135 272.833 64.6135Z" fill="white"/>
<path d="M2.29613 157V124.814H15.6302C22.941 124.814 26.2975 127.987 26.2975 132.907C26.2975 136.493 24.6422 138.332 21.6995 139.298C26.6193 140.631 28.5505 143.62 28.5505 147.482C28.5505 152.678 24.9641 157 16.2739 157H2.29613ZM9.97472 137.735H15.3543C16.8717 137.735 18.5269 136.907 18.5269 134.424C18.5269 132.033 16.8717 131.297 15.3543 131.297H9.97472V137.735ZM9.97472 150.517H15.998C19.5385 150.517 20.55 148.586 20.55 146.609C20.55 144.54 19.5385 142.562 15.998 142.562H9.97472V150.517Z" fill="white"/>
<path d="M58.4147 157C61.1355 157 63.341 154.917 63.341 152.347C63.341 149.777 61.1355 147.694 58.4147 147.694C55.6939 147.694 53.4883 149.777 53.4883 152.347C53.4883 154.917 55.6939 157 58.4147 157Z" fill="white"/>
<path d="M89.2229 157V124.814H96.9015V150.287H111.293V157H89.2229Z" fill="white"/>
<path d="M141.341 157C144.062 157 146.268 154.917 146.268 152.347C146.268 149.777 144.062 147.694 141.341 147.694C138.621 147.694 136.415 149.777 136.415 152.347C136.415 154.917 138.621 157 141.341 157Z" fill="white"/>
<path d="M172.15 157V124.814H179.828V157H172.15Z" fill="white"/>
<path d="M211.268 157C213.989 157 216.195 154.917 216.195 152.347C216.195 149.777 213.989 147.694 211.268 147.694C208.547 147.694 206.342 149.777 206.342 152.347C206.342 154.917 208.547 157 211.268 157Z" fill="white"/>
<path d="M242.077 157V124.814H250.032L261.895 144.54H262.078V124.814H269.803V157H261.527L249.94 137.781H249.756V157H242.077Z" fill="white"/>
<path d="M301.196 157C303.917 157 306.122 154.917 306.122 152.347C306.122 149.777 303.917 147.694 301.196 147.694C298.475 147.694 296.27 149.777 296.27 152.347C296.27 154.917 298.475 157 301.196 157Z" fill="white"/>
<path d="M332.004 157V124.814H344.649C354.626 124.814 359.868 130.562 359.868 140.907C359.868 151.253 354.626 157 344.649 157H332.004ZM339.683 150.287H343.867C350.028 150.287 351.959 147.574 351.959 140.907C351.959 134.24 350.028 131.527 343.867 131.527H339.683V150.287Z" fill="white"/>
<path d="M390.123 157C392.843 157 395.049 154.917 395.049 152.347C395.049 149.777 392.843 147.694 390.123 147.694C387.402 147.694 385.196 149.777 385.196 152.347C385.196 154.917 387.402 157 390.123 157Z" fill="white"/>
</svg>
