<svg width="144" height="72" viewBox="0 0 144 72" fill="none" xmlns="http://www.w3.org/2000/svg">
    <path
        d="M3.87721 8.06731C6.01851 8.06731 7.75434 6.33144 7.75434 4.19015C7.75434 2.04885 6.01851 0.312988 3.87721 0.312988C1.73592 0.312988 0 2.04885 0 4.19015C0 6.33144 1.73592 8.06731 3.87721 8.06731Z"
        fill="#F2F7F9" />
    <path
        d="M3.87721 23.5761C6.01851 23.5761 7.75434 21.8402 7.75434 19.6989C7.75434 17.5576 6.01851 15.8218 3.87721 15.8218C1.73592 15.8218 0 17.5576 0 19.6989C0 21.8402 1.73592 23.5761 3.87721 23.5761Z"
        fill="#F2F7F9" />
    <path
        d="M27.1408 8.06731C29.2821 8.06731 31.0179 6.33144 31.0179 4.19015C31.0179 2.04885 29.2821 0.312988 27.1408 0.312988C24.9995 0.312988 23.2637 2.04885 23.2637 4.19015C23.2637 6.33144 24.9995 8.06731 27.1408 8.06731Z"
        fill="#F2F7F9" />
    <path
        d="M27.1408 23.5756C29.2821 23.5756 31.0179 21.8398 31.0179 19.6985C31.0179 17.5572 29.2821 15.8213 27.1408 15.8213C24.9995 15.8213 23.2637 17.5572 23.2637 19.6985C23.2637 21.8398 24.9995 23.5756 27.1408 23.5756Z"
        fill="#F2F7F9" />
    <path
        d="M27.1408 39.0844C29.2821 39.0844 31.0179 37.3485 31.0179 35.2072C31.0179 33.0659 29.2821 31.3301 27.1408 31.3301C24.9995 31.3301 23.2637 33.0659 23.2637 35.2072C23.2637 37.3485 24.9995 39.0844 27.1408 39.0844Z"
        fill="#F2F7F9" />
    <path
        d="M50.4025 23.5761C52.5438 23.5761 54.2796 21.8402 54.2796 19.6989C54.2796 17.5576 52.5438 15.8218 50.4025 15.8218C48.2612 15.8218 46.5254 17.5576 46.5254 19.6989C46.5254 21.8402 48.2612 23.5761 50.4025 23.5761Z"
        fill="#F2F7F9" />
    <path
        d="M58.1565 8.06731C60.2978 8.06731 62.0336 6.33144 62.0336 4.19015C62.0336 2.04885 60.2978 0.312988 58.1565 0.312988C56.0152 0.312988 54.2793 2.04885 54.2793 4.19015C54.2793 6.33144 56.0152 8.06731 58.1565 8.06731Z"
        fill="#F2F7F9" />
    <path
        d="M135.695 8.06731C137.837 8.06731 139.573 6.33144 139.573 4.19015C139.573 2.04885 137.837 0.312988 135.695 0.312988C133.554 0.312988 131.818 2.04885 131.818 4.19015C131.818 6.33144 133.554 8.06731 135.695 8.06731Z"
        fill="#F2F7F9" />
    <path
        d="M135.695 23.5756C137.837 23.5756 139.573 21.8398 139.573 19.6985C139.573 17.5572 137.837 15.8213 135.695 15.8213C133.554 15.8213 131.818 17.5572 131.818 19.6985C131.818 21.8398 133.554 23.5756 135.695 23.5756Z"
        fill="#F2F7F9" />
    <path
        d="M120.19 8.06731C122.331 8.06731 124.067 6.33144 124.067 4.19015C124.067 2.04885 122.331 0.312988 120.19 0.312988C118.048 0.312988 116.312 2.04885 116.312 4.19015C116.312 6.33144 118.048 8.06731 120.19 8.06731Z"
        fill="#F2F7F9" />
    <path
        d="M81.4203 8.06731C83.5616 8.06731 85.2974 6.33144 85.2974 4.19015C85.2974 2.04885 83.5616 0.312988 81.4203 0.312988C79.279 0.312988 77.543 2.04885 77.543 4.19015C77.543 6.33144 79.279 8.06731 81.4203 8.06731Z"
        fill="#F2F7F9" />
    <path
        d="M81.4203 39.0849C83.5616 39.0849 85.2974 37.349 85.2974 35.2077C85.2974 33.0664 83.5616 31.3306 81.4203 31.3306C79.279 31.3306 77.543 33.0664 77.543 35.2077C77.543 37.349 79.279 39.0849 81.4203 39.0849Z"
        fill="#F2F7F9" />
    <path
        d="M96.924 8.06731C99.0653 8.06731 100.801 6.33144 100.801 4.19015C100.801 2.04885 99.0653 0.312988 96.924 0.312988C94.7827 0.312988 93.0469 2.04885 93.0469 4.19015C93.0469 6.33144 94.7827 8.06731 96.924 8.06731Z"
        fill="#F2F7F9" />
    <path
        d="M96.924 23.5756C99.0653 23.5756 100.801 21.8398 100.801 19.6985C100.801 17.5572 99.0653 15.8213 96.924 15.8213C94.7827 15.8213 93.0469 17.5572 93.0469 19.6985C93.0469 21.8398 94.7827 23.5756 96.924 23.5756Z"
        fill="#F2F7F9" />
    <path
        d="M0.844543 64.687V53.0952H5.64685C8.27983 53.0952 9.48869 54.2379 9.48869 56.0097C9.48869 57.3014 8.89254 57.9638 7.83272 58.3115C9.6046 58.7918 10.3001 59.8681 10.3001 61.2592C10.3001 63.1304 9.00846 64.687 5.87868 64.687H0.844543ZM3.61001 57.7485H5.54749C6.09396 57.7485 6.6901 57.4504 6.6901 56.5562C6.6901 55.6951 6.09396 55.4302 5.54749 55.4302H3.61001V57.7485ZM3.61001 62.3521H5.77932C7.05442 62.3521 7.41873 61.6566 7.41873 60.9445C7.41873 60.1993 7.05442 59.4873 5.77932 59.4873H3.61001V62.3521Z"
        fill="#F2F7F9" />
    <path d="M35.3445 64.6865V53.0948H38.11V62.2688H43.2932V64.6865H35.3445Z" fill="#F2F7F9" />
    <path d="M68.2664 64.687V53.0952H71.0319V64.687H68.2664Z" fill="#F2F7F9" />
    <path
        d="M96.4578 64.6865V53.0948H99.3226L103.595 60.1989H103.661V53.0948H106.443V64.6865H103.463L99.2895 57.7646H99.2233V64.6865H96.4578Z"
        fill="#F2F7F9" />
    <path
        d="M131.942 64.6865V53.0948H136.496C140.09 53.0948 141.977 55.1647 141.977 58.8906C141.977 62.6166 140.09 64.6865 136.496 64.6865H131.942ZM134.708 62.2688H136.215C138.434 62.2688 139.129 61.2918 139.129 58.8906C139.129 56.4895 138.434 55.5125 136.215 55.5125H134.708V62.2688Z"
        fill="#F2F7F9" />
</svg>