<svg width="243" height="875" viewBox="0 0 243 875" fill="none" xmlns="http://www.w3.org/2000/svg">
<g opacity="0.05">
<path d="M194.4 24.3001C194.4 37.7205 205.28 48.5997 218.7 48.5997C232.121 48.5997 243 37.7206 243 24.3001C243 10.8797 232.121 -4.75553e-07 218.7 -1.06218e-06C205.28 -1.6488e-06 194.4 10.8797 194.4 24.3001Z" fill="white"/>
<path d="M97.2051 24.3001C97.205 37.7205 108.084 48.5997 121.505 48.5997C134.925 48.5997 145.805 37.7206 145.805 24.3001C145.805 10.8797 134.925 -4.75554e-07 121.505 -1.06218e-06C108.084 -1.6488e-06 97.2051 10.8797 97.2051 24.3001Z" fill="white"/>
<path d="M194.4 170.104C194.4 183.525 205.28 194.404 218.7 194.404C232.121 194.404 243 183.525 243 170.104C243 156.684 232.121 145.805 218.7 145.805C205.28 145.805 194.4 156.684 194.4 170.104Z" fill="white"/>
<path d="M97.2051 170.104C97.205 183.525 108.084 194.404 121.505 194.404C134.925 194.404 145.805 183.525 145.805 170.104C145.805 156.684 134.925 145.805 121.505 145.805C108.084 145.805 97.2051 156.684 97.2051 170.104Z" fill="white"/>
<path d="M2.75253e-06 170.104C2.1659e-06 183.525 10.8794 194.404 24.2998 194.404C37.7202 194.404 48.5996 183.525 48.5996 170.104C48.5996 156.684 37.7202 145.805 24.2998 145.805C10.8794 145.805 3.33915e-06 156.684 2.75253e-06 170.104Z" fill="white"/>
<path d="M97.2051 315.892C97.205 329.313 108.084 340.192 121.505 340.192C134.925 340.192 145.805 329.313 145.805 315.892C145.805 302.472 134.925 291.593 121.505 291.593C108.084 291.593 97.2051 302.472 97.2051 315.892Z" fill="white"/>
<path d="M194.4 364.489C194.4 377.909 205.28 388.789 218.7 388.789C232.121 388.789 243 377.909 243 364.489C243 351.069 232.121 340.189 218.7 340.189C205.28 340.189 194.4 351.069 194.4 364.489Z" fill="white"/>
<path d="M194.4 850.466C194.4 863.886 205.28 874.765 218.7 874.765C232.121 874.765 243 863.886 243 850.466C243 837.045 232.121 826.166 218.7 826.166C205.28 826.166 194.4 837.045 194.4 850.466Z" fill="white"/>
<path d="M97.2051 850.466C97.205 863.886 108.084 874.765 121.505 874.765C134.925 874.765 145.805 863.886 145.805 850.466C145.805 837.045 134.925 826.166 121.505 826.166C108.084 826.166 97.2051 837.045 97.2051 850.466Z" fill="white"/>
<path d="M194.4 753.273C194.4 766.693 205.28 777.574 218.7 777.574C232.121 777.574 243 766.693 243 753.273C243 739.853 232.121 728.973 218.7 728.973C205.28 728.973 194.4 739.853 194.4 753.273Z" fill="white"/>
<path d="M194.4 510.295C194.4 523.715 205.28 534.594 218.7 534.594C232.121 534.594 243 523.715 243 510.295C243 496.874 232.121 485.994 218.7 485.994C205.28 485.994 194.4 496.874 194.4 510.295Z" fill="white"/>
<path d="M2.75248e-06 510.295C2.16586e-06 523.715 10.8794 534.594 24.2998 534.594C37.7202 534.594 48.5996 523.715 48.5996 510.295C48.5996 496.874 37.7202 485.994 24.2998 485.994C10.8794 485.994 3.33911e-06 496.874 2.75248e-06 510.295Z" fill="white"/>
<path d="M194.4 607.468C194.4 620.889 205.28 631.768 218.7 631.768C232.121 631.768 243 620.889 243 607.468C243 594.048 232.121 583.169 218.7 583.169C205.28 583.169 194.4 594.048 194.4 607.468Z" fill="white"/>
<path d="M97.2051 607.468C97.205 620.889 108.084 631.768 121.505 631.768C134.925 631.768 145.805 620.889 145.805 607.468C145.805 594.048 134.925 583.169 121.505 583.169C108.084 583.169 97.2051 594.048 97.2051 607.468Z" fill="white"/>
</g>
</svg>
