<svg width="130" height="48" viewBox="0 0 130 48" fill="none" xmlns="http://www.w3.org/2000/svg">
    <g filter="url(#filter0_b_1800_207)">
    <mask id="path-1-inside-1_1800_207" fill="white">
    <path fill-rule="evenodd" clip-rule="evenodd" d="M25.9932 0.386719C18.265 0.386719 12 6.65168 12 14.3799V17.0293C11.7837 16.9926 11.5512 17.0266 11.3361 17.1508L0.500001 23.407C-0.166666 23.7919 -0.166667 24.7541 0.499999 25.139L11.3361 31.3953C11.5512 31.5195 11.7837 31.5535 12 31.5167V33.6206C12 41.3489 18.265 47.6138 25.9932 47.6138H115.337C123.065 47.6138 129.33 41.3489 129.33 33.6206V14.3799C129.33 6.6517 123.065 0.386719 115.337 0.386719H25.9932Z"/>
    </mask>
    <path fill-rule="evenodd" clip-rule="evenodd" d="M25.9932 0.386719C18.265 0.386719 12 6.65168 12 14.3799V17.0293C11.7837 16.9926 11.5512 17.0266 11.3361 17.1508L0.500001 23.407C-0.166666 23.7919 -0.166667 24.7541 0.499999 25.139L11.3361 31.3953C11.5512 31.5195 11.7837 31.5535 12 31.5167V33.6206C12 41.3489 18.265 47.6138 25.9932 47.6138H115.337C123.065 47.6138 129.33 41.3489 129.33 33.6206V14.3799C129.33 6.6517 123.065 0.386719 115.337 0.386719H25.9932Z" fill="white" fill-opacity="0.17"/>
    <path d="M12 17.0293L11.8534 17.8915L12.8746 18.0652V17.0293H12ZM11.3361 17.1508L10.8988 16.3934L10.8988 16.3934L11.3361 17.1508ZM0.500001 23.407L0.0627124 22.6496L0.0627116 22.6496L0.500001 23.407ZM0.499999 25.139L0.937288 24.3816L0.937287 24.3816L0.499999 25.139ZM11.3361 31.3953L10.8988 32.1527L10.8988 32.1527L11.3361 31.3953ZM12 31.5167H12.8746V30.4809L11.8534 30.6545L12 31.5167ZM12.8746 14.3799C12.8746 7.1347 18.748 1.2613 25.9932 1.2613V-0.487858C17.782 -0.487858 11.1254 6.16867 11.1254 14.3799H12.8746ZM12.8746 17.0293V14.3799H11.1254V17.0293H12.8746ZM11.7734 17.9082C11.7918 17.8976 11.8063 17.8933 11.8171 17.8914C11.8284 17.8894 11.8404 17.8893 11.8534 17.8915L12.1466 16.1671C11.7367 16.0974 11.2966 16.1637 10.8988 16.3934L11.7734 17.9082ZM0.937289 24.1644L11.7734 17.9082L10.8988 16.3934L0.0627124 22.6496L0.937289 24.1644ZM0.937287 24.3816C0.853675 24.3334 0.85367 24.2127 0.937289 24.1644L0.0627116 22.6496C-1.187 23.3711 -1.18701 25.1749 0.0627122 25.8965L0.937287 24.3816ZM11.7734 30.6379L0.937288 24.3816L0.0627112 25.8965L10.8988 32.1527L11.7734 30.6379ZM11.8534 30.6545C11.8404 30.6567 11.8284 30.6566 11.8171 30.6546C11.8063 30.6528 11.7918 30.6485 11.7734 30.6379L10.8988 32.1527C11.2966 32.3824 11.7367 32.4486 12.1466 32.3789L11.8534 30.6545ZM12.8746 33.6206V31.5167H11.1254V33.6206H12.8746ZM25.9932 46.7393C18.748 46.7393 12.8746 40.8658 12.8746 33.6206H11.1254C11.1254 41.8319 17.782 48.4884 25.9932 48.4884V46.7393ZM115.337 46.7393H25.9932V48.4884H115.337V46.7393ZM128.455 33.6206C128.455 40.8659 122.582 46.7393 115.337 46.7393V48.4884C123.548 48.4884 130.204 41.8319 130.204 33.6206H128.455ZM128.455 14.3799V33.6206H130.204V14.3799H128.455ZM115.337 1.2613C122.582 1.2613 128.455 7.13471 128.455 14.3799H130.204C130.204 6.16868 123.548 -0.487858 115.337 -0.487858V1.2613ZM25.9932 1.2613H115.337V-0.487858H25.9932V1.2613Z" fill="white" fill-opacity="0.24" mask="url(#path-1-inside-1_1800_207)"/>
    </g>
    <defs>
    <filter id="filter0_b_1800_207" x="-8.74576" y="-8.35904" width="146.822" height="64.7191" filterUnits="userSpaceOnUse" color-interpolation-filters="sRGB">
    <feFlood flood-opacity="0" result="BackgroundImageFix"/>
    <feGaussianBlur in="BackgroundImageFix" stdDeviation="4.37288"/>
    <feComposite in2="SourceAlpha" operator="in" result="effect1_backgroundBlur_1800_207"/>
    <feBlend mode="normal" in="SourceGraphic" in2="effect1_backgroundBlur_1800_207" result="shape"/>
    </filter>
    </defs>
    </svg>
    