<svg
                  width="814"
                  height="585"
                  viewBox="0 0 814 585"
                  fill="none"
                  xmlns="http://www.w3.org/2000/svg"
                >
                  <g clip-path="url(#clip0_1701_527)">
                    <rect
                      width="28"
                      height="837"
                      transform="translate(-363 -252)"
                      fill="#142B38"
                      fill-opacity="0.7"
                    />
                    <line
                      x1="141.827"
                      y1="465.531"
                      x2="479.827"
                      y2="340.531"
                      stroke="white"
                      stroke-dasharray="6 6"
                    />
                    <line
                      x1="78.5"
                      y1="157"
                      x2="78.5"
                      y2="431"
                      stroke="white"
                      stroke-dasharray="6 6"
                    />
                    <line
                      x1="152.208"
                      y1="99.5453"
                      x2="480.208"
                      y2="249.545"
                      stroke="white"
                      stroke-dasharray="6 6"
                    />
                    <g filter="url(#filter0_b_1701_527)">
                      <circle
                        cx="627"
                        cy="296"
                        r="187"
                        fill="#D9D9D9"
                        fill-opacity="0.08"
                      />
                      <circle
                        cx="627"
                        cy="296"
                        r="186.5"
                        stroke="white"
                        stroke-opacity="0.24"
                      />
                    </g>
                    <g filter="url(#filter1_b_1701_527)">
                      <path
                        d="M473 240.281C480.198 218.499 492.312 198.666 508.403 182.317C524.495 165.969 544.134 153.542 565.798 146"
                        stroke="white"
                        stroke-opacity="0.56"
                        stroke-dasharray="5 5"
                      />
                    </g>
                    <g filter="url(#filter2_b_1701_527)">
                      <path
                        d="M542.82 436.124C523.341 426.135 506.294 411.991 492.883 394.69C479.471 377.389 470.023 357.354 465.205 336"
                        stroke="white"
                        stroke-opacity="0.56"
                        stroke-dasharray="5 5"
                      />
                    </g>
                    <circle
                      cx="627"
                      cy="296"
                      r="131"
                      fill="url(#paint0_linear_1701_527)"
                    />
                    <path
                      d="M556 271.82V308.592L576.894 308.449L597.701 308.307L602.793 306.931C613.766 303.989 620.702 297.726 625.004 286.955C626.847 282.495 627.637 267.834 626.408 261.808C624.301 251.654 618.419 243.446 610.343 239.555C606.129 237.515 604.636 237.04 597.876 235.522C596.296 235.19 588.483 235 575.753 235H556V271.82ZM595.243 249.899C604.197 252.366 608.675 259.625 608.675 271.725C608.675 285.247 603.583 292.317 592.609 294.073C590.151 294.452 585.059 294.784 581.284 294.784H574.436V271.725V248.617L583.479 248.855C589.273 249.044 593.575 249.377 595.243 249.899Z"
                      fill="white"
                    />
                    <path
                      d="M656.341 248.594C650.925 249.697 649.949 250.081 645.332 252.623C641.337 254.877 638.23 258.282 638.141 260.632C638.053 262.934 640.095 262.838 641.604 260.44C645.51 254.349 656.43 250.129 666.906 250.656C671.167 250.896 677.381 252.335 680.577 253.822C683.152 255.069 687.857 259.193 689.366 261.591C690.787 263.893 692.207 264.517 693.006 263.174C694.161 261.207 689.366 255.452 683.862 252.095C677.47 248.258 665.751 246.723 656.341 248.594Z"
                      fill="white"
                    />
                    <path
                      d="M660.247 252.766C646.309 254.493 637.698 265.044 637.609 280.296C637.609 283.077 636.987 286.818 636.277 288.689C634.59 292.861 634.59 293.245 636.188 293.245C639.118 293.245 640.095 290.703 641.16 279.816C642.314 268.018 644.977 262.598 651.458 258.905C655.276 256.699 657.85 256.124 664.686 255.836C670.901 255.596 670.901 255.596 670.901 254.157C670.901 252.766 670.812 252.719 666.462 252.623C664.065 252.623 661.224 252.671 660.247 252.766Z"
                      fill="white"
                    />
                    <path
                      d="M672.765 254.637C672.055 255.692 672.854 256.507 675.784 257.658C681.909 260.104 686.437 265.572 688.745 273.102C690.254 277.946 690.343 287.586 689.1 293.197C688.39 296.027 688.39 297.369 689.1 297.753C691.053 298.808 691.941 296.986 692.829 289.84C694.516 276.123 691.053 264.325 683.507 258.522C681.022 256.603 675.695 253.918 674.363 253.918C673.83 253.918 673.12 254.253 672.765 254.637Z"
                      fill="white"
                    />
                    <path
                      d="M658.294 257.946C654.743 259.001 652.701 260.296 652.701 261.399C652.701 263.03 653.944 263.174 656.785 261.831C659.626 260.536 664.686 259.913 668.77 260.392C670.457 260.584 673.386 261.687 675.783 262.982C680.489 265.524 683.33 269.553 684.306 275.164C684.928 278.617 685.549 279.288 687.325 278.137C688.124 277.61 688.035 276.363 687.058 272.526C684.928 264.996 681.377 261.16 674.185 258.666C670.901 257.515 669.214 257.275 665.219 257.323C662.467 257.371 659.36 257.658 658.294 257.946Z"
                      fill="white"
                    />
                    <path
                      d="M661.224 262.55C659.803 262.79 657.318 263.653 655.72 264.517C651.192 266.867 647.286 272.526 649.15 274.061C650.215 274.972 651.281 274.349 652.701 271.903C655.542 266.867 661.579 264.325 668.06 265.476C670.013 265.812 672.765 266.867 674.363 267.922C677.47 269.888 678.447 269.84 678.447 267.778C678.447 266.051 673.209 263.222 668.77 262.55C665.13 262.023 664.686 262.023 661.224 262.55Z"
                      fill="white"
                    />
                    <path
                      d="M636.366 263.126C634.59 266.147 633.969 267.682 633.17 271.423C632.105 276.843 632.016 287.346 633.081 287.729C634.768 288.257 635.212 286.77 635.567 280.104C635.745 276.411 636.544 271.615 637.343 269.505C638.142 267.394 638.763 265.044 638.852 264.277C638.941 262.838 636.987 261.975 636.366 263.126Z"
                      fill="white"
                    />
                    <path
                      d="M648.795 263.605C643.823 267.73 640.095 279.864 642.936 282.742C644.711 284.516 645.333 283.605 645.865 278.233C646.398 272.766 647.818 269.121 650.393 266.339C652.879 263.653 651.547 261.351 648.795 263.605Z"
                      fill="white"
                    />
                    <path
                      d="M691.764 265.284C691.764 265.764 692.385 268.497 693.095 271.423C693.805 274.301 694.427 279.193 694.427 282.262C694.427 285.331 694.693 287.921 694.96 288.113C695.226 288.257 696.025 288.257 696.735 288.113C698.422 287.777 698.422 279.001 696.735 271.663C695.315 265.476 694.782 264.469 693.006 264.469C692.296 264.469 691.764 264.852 691.764 265.284Z"
                      fill="white"
                    />
                    <path
                      d="M658.028 267.922C654.921 269.505 654.299 271.039 653.056 280.296C651.458 292.334 651.458 292.286 653.5 292.286C654.921 292.286 655.187 291.758 655.72 287.873C655.986 285.475 656.252 281.639 656.252 279.384C656.252 274.349 657.318 272.19 660.691 270.224L663.266 268.737L666.728 269.696C672.055 271.183 674.097 274.444 674.097 281.734C674.097 290.127 672.055 298.329 668.592 303.892C667.705 305.379 667.172 306.962 667.438 307.393C670.723 311.997 677.648 294.732 677.47 282.214C677.381 274.301 675.517 269.984 671.167 267.874C668.592 266.531 660.691 266.579 658.028 267.922Z"
                      fill="white"
                    />
                    <path
                      d="M678.181 270.368C677.914 270.752 678.092 272.718 678.536 274.828C679.068 276.89 679.335 281.303 679.157 284.612C678.891 289.792 679.068 290.607 680.311 290.751C681.554 290.847 681.821 290.175 682.353 286.339C682.975 281.543 682.264 272.622 681.022 270.8C680.223 269.601 678.891 269.409 678.181 270.368Z"
                      fill="white"
                    />
                    <path
                      d="M661.046 271.231C659.626 272.094 659.359 273.006 659.359 277.61C659.359 282.022 659.626 282.933 660.691 282.933C661.756 282.933 662.112 282.07 662.289 278.521C662.555 273.773 663.71 272.43 666.373 273.821C668.592 275.068 668.947 277.658 668.06 286.003C667.172 294.156 667.261 295.355 669.036 295.019C670.102 294.828 671.966 285.667 672.143 279.768C672.232 275.691 670.545 271.903 668.06 270.895C665.751 269.936 662.999 270.08 661.046 271.231Z"
                      fill="white"
                    />
                    <path
                      d="M648.884 275.835C648.529 275.979 648.262 277.994 648.174 280.248C648.085 288.641 647.019 292.478 643.912 295.835C642.314 297.513 641.16 299.288 641.338 299.767C641.959 301.638 643.823 300.823 646.931 297.369C650.038 293.868 650.215 293.437 651.103 285.907C652.169 277.034 651.636 274.349 648.884 275.835Z"
                      fill="white"
                    />
                    <path
                      d="M663.976 275.835C663.621 275.979 663.354 279.384 663.354 283.365C663.354 293.053 661.135 299.336 655.897 304.324C654.299 305.81 653.944 306.578 654.565 307.201C655.897 308.544 657.673 307.777 660.07 304.851C664.686 299.288 666.906 292.286 666.906 282.933C666.906 276.411 666.107 274.636 663.976 275.835Z"
                      fill="white"
                    />
                    <path
                      d="M685.372 280.104C685.105 280.344 684.573 283.749 684.218 287.729C683.951 291.662 682.886 296.986 681.909 299.576C679.867 305.235 679.867 305.235 681.821 305.235C683.774 305.235 685.105 302.597 686.437 296.122C688.213 287.25 688.479 281.543 687.058 280.583C686.348 280.104 685.638 279.864 685.372 280.104Z"
                      fill="white"
                    />
                    <path
                      d="M642.58 284.708C642.314 285.044 641.959 286.818 641.781 288.641C641.515 290.943 640.805 292.334 639.473 293.293C637.431 294.78 637.076 296.362 638.585 296.89C641.426 297.801 645.865 291.47 645.421 287.154C645.155 284.612 643.468 283.173 642.58 284.708Z"
                      fill="white"
                    />
                    <path
                      d="M659.448 284.708C659.271 285.044 658.827 286.962 658.561 288.928C657.762 293.677 655.808 297.753 652.612 300.727C649.683 303.556 649.239 305.379 651.636 305.139C653.589 304.947 659.004 299.048 660.514 295.355C662.112 291.47 662.378 284.516 660.958 284.276C660.336 284.132 659.626 284.324 659.448 284.708Z"
                      fill="white"
                    />
                    <path
                      d="M678.092 294.3C677.825 294.924 677.026 297.178 676.316 299.384C675.517 301.59 674.274 304.132 673.564 305.043C672.232 306.818 672.587 308.113 674.452 308.113C676.405 308.113 679.423 302.453 680.755 296.218C681.288 293.677 681.11 293.245 679.867 293.245C679.157 293.245 678.269 293.724 678.092 294.3Z"
                      fill="white"
                    />
                    <path
                      d="M650.482 295.691C650.127 296.506 648.884 298.377 647.73 299.767C643.557 304.899 646.487 306.194 650.926 301.206C654.122 297.561 654.832 294.588 652.524 294.3C651.547 294.204 650.926 294.588 650.482 295.691Z"
                      fill="white"
                    />
                    <path
                      d="M664.775 299.767C663.976 301.542 662.467 303.796 661.579 304.803C659.271 307.153 659.271 308.592 661.49 308.592C662.822 308.592 663.71 307.777 665.485 305.091C668.504 300.535 669.747 297.657 669.125 297.082C667.705 295.835 666.107 296.794 664.775 299.767Z"
                      fill="white"
                    />
                    <path
                      d="M556 334.743V357L568.568 356.914L581.083 356.828L584.146 355.995C590.747 354.214 594.918 350.423 597.506 343.904C598.615 341.205 599.09 332.331 598.351 328.684C597.083 322.538 593.545 317.569 588.687 315.215C586.152 313.98 585.255 313.692 581.189 312.773C580.238 312.572 575.538 312.458 567.881 312.458H556V334.743ZM579.604 321.475C584.991 322.969 587.684 327.362 587.684 334.686C587.684 342.87 584.621 347.15 578.02 348.212C576.542 348.442 573.479 348.643 571.208 348.643H567.089V334.686V320.7L572.528 320.843C576.014 320.958 578.601 321.159 579.604 321.475Z"
                      fill="white"
                    />
                    <path
                      d="M646.614 319.477V323.591H643.48H640.346V327.421V331.251H643.428H646.562L646.719 341.097C646.928 351.056 646.98 351.368 648.965 353.808C650.793 356.021 655.651 357.326 660.718 356.929C665.211 356.589 664.897 356.872 664.897 352.957V349.439L662.233 349.354C659.935 349.268 659.36 349.127 658.42 348.474C657.375 347.708 657.323 347.282 657.166 339.451L657.01 331.251H660.666H664.375V327.421V323.591H660.718H657.062V319.477V315.362H651.838H646.614V319.477Z"
                      fill="white"
                    />
                    <path
                      d="M678.469 323.25C673.365 324.347 671.595 325.107 669.459 327.076C666.491 329.804 666.126 335.318 668.73 338.328C671.022 341.028 673.365 342.012 680.5 343.306C684.354 343.981 685.344 344.263 686.49 344.882C687.479 345.388 687.584 347.441 686.75 348.482C685.552 349.917 680.917 350.395 678.365 349.382C677.323 348.96 675.396 346.794 675.344 346.035C675.344 345.613 674.771 345.557 670.657 345.557H665.97V346.822C665.97 347.498 666.23 348.735 666.543 349.551C668.834 355.317 676.282 357.99 686.386 356.668C689.823 356.189 690.5 355.993 693.052 354.586C697.114 352.364 698 350.901 698 346.541C698 340.465 695.396 338.553 684.354 336.527C678.834 335.486 677.428 334.783 677.428 332.899C677.48 330.451 681.178 329.354 685.084 330.648C686.438 331.07 686.959 331.548 687.688 332.899L688.625 334.586H692.948H697.219V333.799C697.167 329.129 693.521 325.191 688 323.729C686.021 323.222 679.98 322.913 678.469 323.25Z"
                      fill="white"
                    />
                    <path
                      d="M614.22 320.684C610.963 321.352 610.375 321.584 607.598 323.123C605.195 324.487 603.326 326.548 603.273 327.971C603.219 329.364 604.448 329.306 605.356 327.854C607.705 324.168 614.273 321.613 620.575 321.933C623.138 322.078 626.876 322.949 628.798 323.848C630.347 324.603 633.177 327.1 634.085 328.551C634.939 329.944 635.794 330.322 636.274 329.509C636.969 328.319 634.085 324.835 630.774 322.803C626.929 320.481 619.88 319.552 614.22 320.684Z"
                      fill="white"
                    />
                    <path
                      d="M616.57 323.21C608.186 324.255 603.006 330.641 602.953 339.872C602.953 341.556 602.579 343.82 602.152 344.952C601.137 347.478 601.137 347.71 602.098 347.71C603.86 347.71 604.448 346.171 605.089 339.582C605.783 332.441 607.385 329.161 611.283 326.926C613.579 325.59 615.128 325.242 619.24 325.068C622.978 324.923 622.978 324.923 622.978 324.052C622.978 323.21 622.924 323.181 620.308 323.123C618.866 323.123 617.157 323.152 616.57 323.21Z"
                      fill="white"
                    />
                    <path
                      d="M624.099 324.342C623.672 324.981 624.153 325.474 625.915 326.171C629.599 327.651 632.323 330.96 633.711 335.518C634.619 338.45 634.672 344.285 633.925 347.681C633.498 349.394 633.498 350.206 633.925 350.439C635.1 351.077 635.634 349.974 636.168 345.649C637.182 337.347 635.1 330.206 630.561 326.693C629.065 325.532 625.861 323.907 625.06 323.907C624.74 323.907 624.313 324.11 624.099 324.342Z"
                      fill="white"
                    />
                    <path
                      d="M615.395 326.345C613.259 326.984 612.031 327.767 612.031 328.435C612.031 329.422 612.778 329.509 614.487 328.696C616.196 327.912 619.24 327.535 621.696 327.825C622.711 327.942 624.473 328.609 625.915 329.393C628.745 330.931 630.454 333.37 631.041 336.766C631.415 338.856 631.789 339.263 632.857 338.566C633.337 338.247 633.284 337.492 632.697 335.17C631.415 330.612 629.279 328.29 624.954 326.78C622.978 326.084 621.963 325.939 619.56 325.968C617.905 325.997 616.036 326.171 615.395 326.345Z"
                      fill="white"
                    />
                    <path
                      d="M617.157 329.132C616.303 329.277 614.807 329.799 613.846 330.322C611.123 331.744 608.773 335.17 609.895 336.099C610.535 336.65 611.176 336.273 612.031 334.792C613.739 331.744 617.371 330.206 621.269 330.902C622.444 331.106 624.099 331.744 625.06 332.383C626.929 333.573 627.517 333.544 627.517 332.296C627.517 331.251 624.366 329.538 621.696 329.132C619.507 328.812 619.24 328.812 617.157 329.132Z"
                      fill="white"
                    />
                    <path
                      d="M602.205 329.48C601.137 331.309 600.763 332.238 600.283 334.502C599.642 337.782 599.588 344.139 600.229 344.372C601.244 344.691 601.511 343.791 601.724 339.756C601.831 337.521 602.312 334.618 602.792 333.341C603.273 332.064 603.647 330.641 603.7 330.177C603.754 329.306 602.579 328.783 602.205 329.48Z"
                      fill="white"
                    />
                    <path
                      d="M609.681 329.77C606.691 332.267 604.448 339.611 606.157 341.353C607.225 342.427 607.598 341.875 607.919 338.624C608.239 335.315 609.094 333.109 610.642 331.425C612.137 329.799 611.336 328.406 609.681 329.77Z"
                      fill="white"
                    />
                    <path
                      d="M635.527 330.786C635.527 331.077 635.901 332.731 636.328 334.502C636.755 336.244 637.129 339.205 637.129 341.062C637.129 342.92 637.289 344.488 637.449 344.604C637.609 344.691 638.09 344.691 638.517 344.604C639.532 344.401 639.532 339.088 638.517 334.647C637.663 330.902 637.342 330.293 636.274 330.293C635.847 330.293 635.527 330.525 635.527 330.786Z"
                      fill="white"
                    />
                    <path
                      d="M615.235 332.383C613.366 333.341 612.992 334.27 612.244 339.872C611.283 347.158 611.283 347.129 612.511 347.129C613.366 347.129 613.526 346.81 613.846 344.459C614.006 343.007 614.167 340.685 614.167 339.321C614.167 336.273 614.807 334.966 616.837 333.776L618.385 332.876L620.468 333.457C623.672 334.357 624.9 336.331 624.9 340.743C624.9 345.823 623.672 350.787 621.589 354.154C621.055 355.054 620.735 356.012 620.895 356.273C622.871 359.06 627.036 348.61 626.929 341.033C626.876 336.244 625.755 333.631 623.138 332.354C621.589 331.541 616.837 331.57 615.235 332.383Z"
                      fill="white"
                    />
                    <path
                      d="M627.357 333.863C627.196 334.096 627.303 335.286 627.57 336.563C627.891 337.811 628.051 340.482 627.944 342.485C627.784 345.62 627.891 346.113 628.638 346.2C629.386 346.259 629.546 345.852 629.866 343.53C630.24 340.627 629.813 335.228 629.065 334.125C628.585 333.399 627.784 333.283 627.357 333.863Z"
                      fill="white"
                    />
                    <path
                      d="M617.05 334.386C616.196 334.908 616.036 335.46 616.036 338.247C616.036 340.917 616.196 341.469 616.837 341.469C617.477 341.469 617.691 340.946 617.798 338.798C617.958 335.924 618.652 335.112 620.254 335.953C621.589 336.708 621.803 338.276 621.269 343.327C620.735 348.261 620.788 348.987 621.856 348.784C622.497 348.668 623.618 343.123 623.725 339.553C623.779 337.086 622.764 334.792 621.269 334.183C619.88 333.602 618.225 333.689 617.05 334.386Z"
                      fill="white"
                    />
                    <path
                      d="M609.734 337.173C609.521 337.26 609.361 338.479 609.307 339.843C609.254 344.923 608.613 347.245 606.744 349.277C605.783 350.293 605.089 351.368 605.195 351.658C605.569 352.79 606.691 352.296 608.56 350.206C610.429 348.087 610.535 347.826 611.069 343.269C611.71 337.898 611.39 336.273 609.734 337.173Z"
                      fill="white"
                    />
                    <path
                      d="M618.812 337.173C618.599 337.26 618.439 339.321 618.439 341.73C618.439 347.594 617.104 351.397 613.953 354.416C612.992 355.315 612.778 355.78 613.152 356.157C613.953 356.97 615.021 356.506 616.463 354.735C619.24 351.368 620.575 347.129 620.575 341.469C620.575 337.521 620.094 336.447 618.812 337.173Z"
                      fill="white"
                    />
                    <path
                      d="M631.682 339.756C631.522 339.901 631.201 341.962 630.988 344.372C630.828 346.752 630.187 349.974 629.599 351.542C628.371 354.967 628.371 354.967 629.546 354.967C630.721 354.967 631.522 353.371 632.323 349.452C633.391 344.081 633.551 340.627 632.697 340.046C632.269 339.756 631.842 339.611 631.682 339.756Z"
                      fill="white"
                    />
                    <path
                      d="M605.943 342.543C605.783 342.746 605.569 343.82 605.462 344.923C605.302 346.317 604.875 347.158 604.074 347.739C602.846 348.639 602.632 349.597 603.54 349.916C605.249 350.468 607.919 346.636 607.652 344.023C607.492 342.485 606.477 341.614 605.943 342.543Z"
                      fill="white"
                    />
                    <path
                      d="M616.089 342.543C615.982 342.746 615.715 343.907 615.555 345.097C615.075 347.971 613.9 350.439 611.977 352.238C610.215 353.951 609.948 355.054 611.39 354.909C612.565 354.793 615.822 351.222 616.73 348.987C617.691 346.636 617.851 342.427 616.997 342.282C616.623 342.195 616.196 342.311 616.089 342.543Z"
                      fill="white"
                    />
                    <path
                      d="M627.303 348.349C627.143 348.726 626.662 350.09 626.235 351.426C625.755 352.761 625.007 354.299 624.58 354.851C623.779 355.925 623.992 356.709 625.114 356.709C626.289 356.709 628.104 353.283 628.905 349.51C629.226 347.971 629.119 347.71 628.371 347.71C627.944 347.71 627.41 348 627.303 348.349Z"
                      fill="white"
                    />
                    <path
                      d="M610.696 349.19C610.482 349.684 609.734 350.816 609.04 351.658C606.53 354.764 608.293 355.548 610.963 352.529C612.885 350.323 613.312 348.523 611.924 348.349C611.336 348.291 610.963 348.523 610.696 349.19Z"
                      fill="white"
                    />
                    <path
                      d="M619.293 351.658C618.812 352.732 617.905 354.096 617.371 354.706C615.982 356.128 615.982 356.999 617.317 356.999C618.118 356.999 618.652 356.506 619.72 354.88C621.536 352.122 622.283 350.381 621.91 350.032C621.055 349.277 620.094 349.858 619.293 351.658Z"
                      fill="white"
                    />
                    <g filter="url(#filter3_b_1701_527)">
                      <circle
                        cx="77.5"
                        cy="79.5"
                        r="77.5"
                        fill="#FAFAFA"
                        fill-opacity="0.08"
                      />
                    </g>
                    <g filter="url(#filter4_b_1701_527)">
                      <circle
                        cx="77"
                        cy="80"
                        r="61"
                        fill="url(#paint1_linear_1701_527)"
                      />
                    </g>
                    <path
                      d="M77.6667 27C81.7333 27 85.6334 28.6155 88.509 31.491C91.3845 34.3666 93 38.2667 93 42.3333C93 46.4 91.3845 50.3001 88.509 53.1756C85.6334 56.0512 81.7333 57.6667 77.6667 57.6667C73.6 57.6667 69.6999 56.0512 66.8244 53.1756C63.9488 50.3001 62.3333 46.4 62.3333 42.3333C62.3333 38.2667 63.9488 34.3666 66.8244 31.491C69.6999 28.6155 73.6 27 77.6667 27ZM77.6667 65.3333C94.61 65.3333 108.333 72.195 108.333 80.6667V88.3333H47V80.6667C47 72.195 60.7233 65.3333 77.6667 65.3333Z"
                      fill="#FAFAFA"
                    />
                    <path
                      d="M69.1355 119.033C69.1355 122.473 67.0555 124.513 63.7955 124.513C60.5155 124.513 58.4555 122.473 58.4555 119.033V110.333H59.9355V118.973C59.9355 121.653 61.3755 123.193 63.7955 123.193C66.1955 123.193 67.6355 121.653 67.6355 118.973V110.333H69.1355V119.033ZM77.7233 116.533C77.3433 115.413 76.4033 114.953 75.0433 114.953C73.4633 114.953 72.5833 115.693 72.5833 116.673C72.5833 117.573 73.1433 118.053 74.4833 118.373L76.1433 118.753C78.0833 119.213 79.2633 119.633 79.2633 121.493C79.2633 123.633 77.2833 124.473 75.1433 124.473C72.8833 124.473 71.1433 123.513 70.8633 121.333H72.2033C72.5233 122.853 73.7433 123.353 75.1433 123.353C76.6033 123.353 77.8433 122.773 77.8433 121.493C77.8433 120.373 77.1033 120.093 75.9033 119.813L74.0433 119.373C72.2033 118.933 71.2433 118.093 71.2433 116.653C71.2433 114.893 72.7633 113.833 75.0433 113.833C77.1233 113.833 78.6033 114.753 79.0233 116.533H77.7233ZM89.8751 119.173C89.8751 119.333 89.8751 119.493 89.8551 119.673H81.8751C82.0351 122.253 83.4151 123.353 85.3951 123.353C86.6951 123.353 87.5151 123.033 88.1751 122.093H89.5151C88.6551 123.773 87.3351 124.473 85.3151 124.473C82.7151 124.473 80.4751 122.753 80.4751 119.153C80.4751 115.513 82.8151 113.833 85.2751 113.833C87.7751 113.833 89.8751 115.513 89.8751 119.173ZM81.8751 118.673H88.5151C88.4751 116.213 87.1551 114.953 85.2751 114.953C83.4751 114.953 82.0351 116.133 81.8751 118.673ZM96.7577 113.833C96.9777 113.833 97.1977 113.833 97.4577 113.873V115.153C97.1977 115.133 96.9977 115.133 96.8577 115.133C94.7177 115.133 93.4777 116.293 93.1177 118.173V124.333H91.6977V113.933H93.1177V116.553C93.4177 115.133 94.6777 113.833 96.7577 113.833Z"
                      fill="#FAFAFA"
                    />
                    <g filter="url(#filter5_b_1701_527)">
                      <circle
                        cx="77.5"
                        cy="505.5"
                        r="77.5"
                        fill="#FAFAFA"
                        fill-opacity="0.08"
                      />
                    </g>
                    <g filter="url(#filter6_b_1701_527)">
                      <circle
                        cx="77"
                        cy="506"
                        r="61"
                        fill="url(#paint2_linear_1701_527)"
                      />
                    </g>
                    <g filter="url(#filter7_b_1701_527)">
                      <path
                        d="M116.261 560.384C104.115 569.207 89.3936 573.77 74.3865 573.363C59.3795 572.955 44.9277 567.6 33.2784 558.131C21.6292 548.661 13.4356 535.608 9.97168 521"
                        stroke="white"
                        stroke-opacity="0.56"
                        stroke-width="0.5"
                        stroke-dasharray="6 6"
                      />
                    </g>
                    <path
                      d="M77.5 461C81.5667 461 85.4668 462.615 88.3423 465.491C91.2179 468.367 92.8334 472.267 92.8334 476.333C92.8334 480.4 91.2179 484.3 88.3423 487.176C85.4668 490.051 81.5667 491.667 77.5 491.667C73.4334 491.667 69.5333 490.051 66.6577 487.176C63.7822 484.3 62.1667 480.4 62.1667 476.333C62.1667 472.267 63.7822 468.367 66.6577 465.491C69.5333 462.615 73.4334 461 77.5 461ZM77.5 499.333C94.4434 499.333 108.167 506.195 108.167 514.667V522.333H46.8334V514.667C46.8334 506.195 60.5567 499.333 77.5 499.333Z"
                      fill="#FAFAFA"
                    />
                    <path
                      d="M46.1593 538.533V539.457H43.0373V548.333H42.0013V539.457H38.8793V538.533H46.1593ZM51.0054 540.983C52.4474 540.983 53.5954 541.711 53.5954 543.923V548.333H52.6014V543.951C52.6014 542.355 51.8454 541.837 50.6974 541.837C49.2694 541.837 48.5414 543.083 48.3734 543.797V548.333H47.3794V538.449H48.3734V542.789C48.5274 542.257 49.4094 540.983 51.0054 540.983ZM55.2134 538.407H56.2074V539.387H55.2134V538.407ZM55.2134 541.053H56.2074V548.333H55.2134V541.053ZM61.394 540.983C61.548 540.983 61.702 540.983 61.884 541.011V541.907C61.702 541.893 61.562 541.893 61.464 541.893C59.966 541.893 59.098 542.705 58.846 544.021V548.333H57.852V541.053H58.846V542.887C59.056 541.893 59.938 540.983 61.394 540.983ZM65.7126 540.983C66.8186 540.983 67.7566 541.529 68.2326 542.467V538.449H69.2266V548.333H68.2326V546.807C67.8126 547.745 66.9446 548.431 65.7406 548.431C64.1306 548.431 62.4926 547.283 62.4926 544.693C62.4926 542.131 64.1446 540.983 65.7126 540.983ZM65.8806 547.591C67.1266 547.591 68.2746 546.653 68.2746 544.693C68.2746 542.677 67.1266 541.823 65.8806 541.823C64.6066 541.823 63.4586 542.705 63.4586 544.693C63.4586 546.695 64.6066 547.591 65.8806 547.591ZM78.1541 538.533C80.4361 538.533 81.6261 539.709 81.6261 541.669C81.6261 543.615 80.4361 544.791 78.1541 544.791H75.7181V548.333H74.6821V538.533H78.1541ZM78.1821 543.867C79.7081 543.867 80.5341 543.083 80.5341 541.669C80.5341 540.241 79.7081 539.457 78.1821 539.457H75.7181V543.867H78.1821ZM88.8555 544.721C88.8555 544.833 88.8555 544.945 88.8415 545.071H83.2555C83.3675 546.877 84.3335 547.647 85.7195 547.647C86.6295 547.647 87.2035 547.423 87.6655 546.765H88.6035C88.0015 547.941 87.0775 548.431 85.6635 548.431C83.8435 548.431 82.2755 547.227 82.2755 544.707C82.2755 542.159 83.9135 540.983 85.6355 540.983C87.3855 540.983 88.8555 542.159 88.8555 544.721ZM83.2555 544.371H87.9035C87.8755 542.649 86.9515 541.767 85.6355 541.767C84.3755 541.767 83.3675 542.593 83.2555 544.371ZM93.6733 540.983C93.8273 540.983 93.9813 540.983 94.1633 541.011V541.907C93.9813 541.893 93.8413 541.893 93.7433 541.893C92.2453 541.893 91.3773 542.705 91.1253 544.021V548.333H90.1313V541.053H91.1253V542.887C91.3353 541.893 92.2173 540.983 93.6733 540.983ZM99.5856 542.873C99.3196 542.089 98.6616 541.767 97.7096 541.767C96.6036 541.767 95.9876 542.285 95.9876 542.971C95.9876 543.601 96.3796 543.937 97.3176 544.161L98.4796 544.427C99.8376 544.749 100.664 545.043 100.664 546.345C100.664 547.843 99.2776 548.431 97.7796 548.431C96.1976 548.431 94.9796 547.759 94.7836 546.233H95.7216C95.9456 547.297 96.7996 547.647 97.7796 547.647C98.8016 547.647 99.6696 547.241 99.6696 546.345C99.6696 545.561 99.1516 545.365 98.3116 545.169L97.0096 544.861C95.7216 544.553 95.0496 543.965 95.0496 542.957C95.0496 541.725 96.1136 540.983 97.7096 540.983C99.1656 540.983 100.202 541.627 100.496 542.873H99.5856ZM104.872 540.983C106.468 540.983 108.218 542.159 108.218 544.693C108.218 547.269 106.468 548.431 104.872 548.431C103.262 548.431 101.512 547.269 101.512 544.693C101.512 542.159 103.262 540.983 104.872 540.983ZM107.252 544.693C107.252 542.719 106.09 541.823 104.872 541.823C103.654 541.823 102.478 542.719 102.478 544.693C102.478 546.695 103.654 547.591 104.872 547.591C106.09 547.591 107.252 546.695 107.252 544.693ZM113.117 540.983C114.559 540.983 115.707 541.711 115.707 543.923V548.333H114.713V543.951C114.713 542.355 113.957 541.837 112.809 541.837C111.381 541.837 110.653 543.083 110.485 543.797V548.333H109.491V541.053H110.485V542.789C110.639 542.257 111.521 540.983 113.117 540.983Z"
                      fill="#FAFAFA"
                    />
                    <g filter="url(#filter8_b_1701_527)">
                      <path
                        d="M9.27966 88.145C7.60328 74.1074 10.334 59.896 17.0934 47.4793C23.8529 35.0627 34.3066 25.0555 47.0062 18.8441C59.7059 12.6327 74.023 10.5245 87.9741 12.8116"
                        stroke="white"
                        stroke-opacity="0.56"
                        stroke-width="0.7"
                        stroke-dasharray="5 5"
                      />
                    </g>
                    <g filter="url(#filter9_b_1701_527)">
                      <rect
                        x="278"
                        y="149"
                        width="30.3301"
                        height="30.7184"
                        rx="15.165"
                        fill="white"
                        fill-opacity="0.1"
                      />
                      <rect
                        x="278.5"
                        y="149.5"
                        width="29.3301"
                        height="29.7184"
                        rx="14.665"
                        stroke="white"
                        stroke-opacity="0.24"
                      />
                    </g>
                    <path
                      d="M293.165 172.718L289.477 170.752C288.426 170.193 287.547 169.358 286.934 168.337C286.322 167.316 285.999 166.147 286 164.956V157.194C286 156.878 286.126 156.574 286.35 156.35C286.574 156.126 286.878 156 287.194 156H299.136C299.452 156 299.756 156.126 299.98 156.35C300.204 156.574 300.33 156.878 300.33 157.194V164.956C300.331 166.147 300.008 167.316 299.396 168.337C298.783 169.358 297.904 170.193 296.853 170.752L293.165 172.718ZM287.194 157.194V164.956C287.193 165.931 287.458 166.887 287.959 167.722C288.46 168.558 289.18 169.241 290.04 169.698L293.165 171.365L296.29 169.699C297.15 169.241 297.87 168.558 298.371 167.723C298.873 166.887 299.137 165.931 299.136 164.956V157.194H287.194Z"
                      fill="white"
                    />
                    <path
                      d="M291.333 165.26L289.175 163.193L288 164.318L291.333 167.511L298 161.125L296.825 160L291.333 165.26Z"
                      fill="white"
                    />
                    <g filter="url(#filter10_b_1701_527)">
                      <rect
                        x="63"
                        y="277"
                        width="30.3301"
                        height="30.7184"
                        rx="15.165"
                        fill="white"
                        fill-opacity="0.1"
                      />
                      <rect
                        x="63.5"
                        y="277.5"
                        width="29.3301"
                        height="29.7184"
                        rx="14.665"
                        stroke="white"
                        stroke-opacity="0.24"
                      />
                    </g>
                    <path
                      d="M78.165 300.718L74.4774 298.752C73.4262 298.193 72.547 297.358 71.9344 296.337C71.3218 295.316 70.9987 294.147 71 292.956V285.194C71.0003 284.878 71.1262 284.574 71.3501 284.35C71.574 284.126 71.8776 284 72.1942 284H84.1359C84.4525 284 84.7561 284.126 84.9799 284.35C85.2038 284.574 85.3297 284.878 85.33 285.194V292.956C85.3313 294.147 85.0083 295.316 84.3957 296.337C83.783 297.358 82.9039 298.193 81.8526 298.752L78.165 300.718ZM72.1942 285.194V292.956C72.1932 293.931 72.4576 294.887 72.9589 295.722C73.4602 296.558 74.1796 297.241 75.0399 297.698L78.165 299.365L81.2902 297.699C82.1505 297.241 82.87 296.558 83.3713 295.723C83.8727 294.887 84.137 293.931 84.1359 292.956V285.194H72.1942Z"
                      fill="white"
                    />
                    <path
                      d="M76.3333 293.26L74.175 291.193L73 292.318L76.3333 295.511L83 289.125L81.825 288L76.3333 293.26Z"
                      fill="white"
                    />
                    <g filter="url(#filter11_b_1701_527)">
                      <rect
                        x="282"
                        y="391"
                        width="30.3301"
                        height="30.7184"
                        rx="15.165"
                        fill="white"
                        fill-opacity="0.1"
                      />
                      <rect
                        x="282.5"
                        y="391.5"
                        width="29.3301"
                        height="29.7184"
                        rx="14.665"
                        stroke="white"
                        stroke-opacity="0.24"
                      />
                    </g>
                    <path
                      d="M297.165 414.718L293.477 412.752C292.426 412.193 291.547 411.358 290.934 410.337C290.322 409.316 289.999 408.147 290 406.956V399.194C290 398.878 290.126 398.574 290.35 398.35C290.574 398.126 290.878 398 291.194 398H303.136C303.452 398 303.756 398.126 303.98 398.35C304.204 398.574 304.33 398.878 304.33 399.194V406.956C304.331 408.147 304.008 409.316 303.396 410.337C302.783 411.358 301.904 412.193 300.853 412.752L297.165 414.718ZM291.194 399.194V406.956C291.193 407.931 291.458 408.887 291.959 409.722C292.46 410.558 293.18 411.241 294.04 411.698L297.165 413.365L300.29 411.699C301.15 411.241 301.87 410.558 302.371 409.723C302.873 408.887 303.137 407.931 303.136 406.956V399.194H291.194Z"
                      fill="white"
                    />
                    <path
                      d="M295.333 407.26L293.175 405.193L292 406.318L295.333 409.511L302 403.125L300.825 402L295.333 407.26Z"
                      fill="white"
                    />
                  </g>
                  <defs>
                    <filter
                      id="filter0_b_1701_527"
                      x="430"
                      y="99"
                      width="394"
                      height="394"
                      filterUnits="userSpaceOnUse"
                      color-interpolation-filters="sRGB"
                    >
                      <feFlood flood-opacity="0" result="BackgroundImageFix" />
                      <feGaussianBlur
                        in="BackgroundImageFix"
                        stdDeviation="5"
                      />
                      <feComposite
                        in2="SourceAlpha"
                        operator="in"
                        result="effect1_backgroundBlur_1701_527"
                      />
                      <feBlend
                        mode="normal"
                        in="SourceGraphic"
                        in2="effect1_backgroundBlur_1701_527"
                        result="shape"
                      />
                    </filter>
                    <filter
                      id="filter1_b_1701_527"
                      x="462.051"
                      y="135.056"
                      width="114.077"
                      height="115.539"
                      filterUnits="userSpaceOnUse"
                      color-interpolation-filters="sRGB"
                    >
                      <feFlood flood-opacity="0" result="BackgroundImageFix" />
                      <feGaussianBlur
                        in="BackgroundImageFix"
                        stdDeviation="5"
                      />
                      <feComposite
                        in2="SourceAlpha"
                        operator="in"
                        result="effect1_backgroundBlur_1701_527"
                      />
                      <feBlend
                        mode="normal"
                        in="SourceGraphic"
                        in2="effect1_backgroundBlur_1701_527"
                        result="shape"
                      />
                    </filter>
                    <filter
                      id="filter2_b_1701_527"
                      x="454.23"
                      y="325.78"
                      width="99.0466"
                      height="121.234"
                      filterUnits="userSpaceOnUse"
                      color-interpolation-filters="sRGB"
                    >
                      <feFlood flood-opacity="0" result="BackgroundImageFix" />
                      <feGaussianBlur
                        in="BackgroundImageFix"
                        stdDeviation="5"
                      />
                      <feComposite
                        in2="SourceAlpha"
                        operator="in"
                        result="effect1_backgroundBlur_1701_527"
                      />
                      <feBlend
                        mode="normal"
                        in="SourceGraphic"
                        in2="effect1_backgroundBlur_1701_527"
                        result="shape"
                      />
                    </filter>
                    <filter
                      id="filter3_b_1701_527"
                      x="-4"
                      y="-2"
                      width="163"
                      height="163"
                      filterUnits="userSpaceOnUse"
                      color-interpolation-filters="sRGB"
                    >
                      <feFlood flood-opacity="0" result="BackgroundImageFix" />
                      <feGaussianBlur
                        in="BackgroundImageFix"
                        stdDeviation="2"
                      />
                      <feComposite
                        in2="SourceAlpha"
                        operator="in"
                        result="effect1_backgroundBlur_1701_527"
                      />
                      <feBlend
                        mode="normal"
                        in="SourceGraphic"
                        in2="effect1_backgroundBlur_1701_527"
                        result="shape"
                      />
                    </filter>
                    <filter
                      id="filter4_b_1701_527"
                      x="10"
                      y="13"
                      width="134"
                      height="134"
                      filterUnits="userSpaceOnUse"
                      color-interpolation-filters="sRGB"
                    >
                      <feFlood flood-opacity="0" result="BackgroundImageFix" />
                      <feGaussianBlur
                        in="BackgroundImageFix"
                        stdDeviation="3"
                      />
                      <feComposite
                        in2="SourceAlpha"
                        operator="in"
                        result="effect1_backgroundBlur_1701_527"
                      />
                      <feBlend
                        mode="normal"
                        in="SourceGraphic"
                        in2="effect1_backgroundBlur_1701_527"
                        result="shape"
                      />
                    </filter>
                    <filter
                      id="filter5_b_1701_527"
                      x="-4"
                      y="424"
                      width="163"
                      height="163"
                      filterUnits="userSpaceOnUse"
                      color-interpolation-filters="sRGB"
                    >
                      <feFlood flood-opacity="0" result="BackgroundImageFix" />
                      <feGaussianBlur
                        in="BackgroundImageFix"
                        stdDeviation="2"
                      />
                      <feComposite
                        in2="SourceAlpha"
                        operator="in"
                        result="effect1_backgroundBlur_1701_527"
                      />
                      <feBlend
                        mode="normal"
                        in="SourceGraphic"
                        in2="effect1_backgroundBlur_1701_527"
                        result="shape"
                      />
                    </filter>
                    <filter
                      id="filter6_b_1701_527"
                      x="10"
                      y="439"
                      width="134"
                      height="134"
                      filterUnits="userSpaceOnUse"
                      color-interpolation-filters="sRGB"
                    >
                      <feFlood flood-opacity="0" result="BackgroundImageFix" />
                      <feGaussianBlur
                        in="BackgroundImageFix"
                        stdDeviation="3"
                      />
                      <feComposite
                        in2="SourceAlpha"
                        operator="in"
                        result="effect1_backgroundBlur_1701_527"
                      />
                      <feBlend
                        mode="normal"
                        in="SourceGraphic"
                        in2="effect1_backgroundBlur_1701_527"
                        result="shape"
                      />
                    </filter>
                    <filter
                      id="filter7_b_1701_527"
                      x="3.48523"
                      y="514.885"
                      width="119.069"
                      height="65.0029"
                      filterUnits="userSpaceOnUse"
                      color-interpolation-filters="sRGB"
                    >
                      <feFlood flood-opacity="0" result="BackgroundImageFix" />
                      <feGaussianBlur
                        in="BackgroundImageFix"
                        stdDeviation="3"
                      />
                      <feComposite
                        in2="SourceAlpha"
                        operator="in"
                        result="effect1_backgroundBlur_1701_527"
                      />
                      <feBlend
                        mode="normal"
                        in="SourceGraphic"
                        in2="effect1_backgroundBlur_1701_527"
                        result="shape"
                      />
                    </filter>
                    <filter
                      id="filter8_b_1701_527"
                      x="-1.90125"
                      y="1.21387"
                      width="99.9885"
                      height="97.0142"
                      filterUnits="userSpaceOnUse"
                      color-interpolation-filters="sRGB"
                    >
                      <feFlood flood-opacity="0" result="BackgroundImageFix" />
                      <feGaussianBlur
                        in="BackgroundImageFix"
                        stdDeviation="5"
                      />
                      <feComposite
                        in2="SourceAlpha"
                        operator="in"
                        result="effect1_backgroundBlur_1701_527"
                      />
                      <feBlend
                        mode="normal"
                        in="SourceGraphic"
                        in2="effect1_backgroundBlur_1701_527"
                        result="shape"
                      />
                    </filter>
                    <filter
                      id="filter9_b_1701_527"
                      x="268"
                      y="139"
                      width="50.3301"
                      height="50.7183"
                      filterUnits="userSpaceOnUse"
                      color-interpolation-filters="sRGB"
                    >
                      <feFlood flood-opacity="0" result="BackgroundImageFix" />
                      <feGaussianBlur
                        in="BackgroundImageFix"
                        stdDeviation="5"
                      />
                      <feComposite
                        in2="SourceAlpha"
                        operator="in"
                        result="effect1_backgroundBlur_1701_527"
                      />
                      <feBlend
                        mode="normal"
                        in="SourceGraphic"
                        in2="effect1_backgroundBlur_1701_527"
                        result="shape"
                      />
                    </filter>
                    <filter
                      id="filter10_b_1701_527"
                      x="53"
                      y="267"
                      width="50.3301"
                      height="50.7183"
                      filterUnits="userSpaceOnUse"
                      color-interpolation-filters="sRGB"
                    >
                      <feFlood flood-opacity="0" result="BackgroundImageFix" />
                      <feGaussianBlur
                        in="BackgroundImageFix"
                        stdDeviation="5"
                      />
                      <feComposite
                        in2="SourceAlpha"
                        operator="in"
                        result="effect1_backgroundBlur_1701_527"
                      />
                      <feBlend
                        mode="normal"
                        in="SourceGraphic"
                        in2="effect1_backgroundBlur_1701_527"
                        result="shape"
                      />
                    </filter>
                    <filter
                      id="filter11_b_1701_527"
                      x="272"
                      y="381"
                      width="50.3301"
                      height="50.7183"
                      filterUnits="userSpaceOnUse"
                      color-interpolation-filters="sRGB"
                    >
                      <feFlood flood-opacity="0" result="BackgroundImageFix" />
                      <feGaussianBlur
                        in="BackgroundImageFix"
                        stdDeviation="5"
                      />
                      <feComposite
                        in2="SourceAlpha"
                        operator="in"
                        result="effect1_backgroundBlur_1701_527"
                      />
                      <feBlend
                        mode="normal"
                        in="SourceGraphic"
                        in2="effect1_backgroundBlur_1701_527"
                        result="shape"
                      />
                    </filter>
                    <linearGradient
                      id="paint0_linear_1701_527"
                      x1="627"
                      y1="461.555"
                      x2="998.854"
                      y2="-421.921"
                      gradientUnits="userSpaceOnUse"
                    >
                      <stop stop-color="#142B38" />
                      <stop offset="1" stop-color="#F2F7F9" />
                    </linearGradient>
                    <linearGradient
                      id="paint1_linear_1701_527"
                      x1="77"
                      y1="157.091"
                      x2="250.154"
                      y2="-254.299"
                      gradientUnits="userSpaceOnUse"
                    >
                      <stop stop-color="#142B38" />
                      <stop offset="1" stop-color="#F2F7F9" />
                    </linearGradient>
                    <linearGradient
                      id="paint2_linear_1701_527"
                      x1="77"
                      y1="583.091"
                      x2="250.154"
                      y2="171.701"
                      gradientUnits="userSpaceOnUse"
                    >
                      <stop stop-color="#142B38" />
                      <stop offset="1" stop-color="#F2F7F9" />
                    </linearGradient>
                    <clipPath id="clip0_1701_527">
                      <rect
                        width="814"
                        height="585"
                        fill="white"
                        transform="matrix(-1 0 0 1 814 0)"
                      />
                    </clipPath>
                  </defs>
                </svg>