<svg width="129" height="48" viewBox="0 0 129 48" fill="none" xmlns="http://www.w3.org/2000/svg">
    <g clip-path="url(#clip0_207_122)">
    <path fill-rule="evenodd" clip-rule="evenodd" d="M13.9932 0.386719C6.26498 0.386719 0 6.65168 0 14.38V33.6206C0 41.3489 6.26498 47.6139 13.9932 47.6139H103.337C111.065 47.6139 117.33 41.3489 117.33 33.6207V30.8736C117.337 30.8699 117.344 30.8661 117.35 30.8622L128.563 24.3887C129.146 24.0521 129.146 23.2106 128.563 22.8739L117.35 16.4005C117.344 16.3966 117.337 16.3927 117.33 16.389V14.38C117.33 6.65169 111.065 0.386719 103.337 0.386719H13.9932Z" fill="#0B0E11" fill-opacity="0.17"/>
    <mask id="mask0_207_122" style="mask-type:luminance" maskUnits="userSpaceOnUse" x="0" y="0" width="130" height="48">
    <path fill-rule="evenodd" clip-rule="evenodd" d="M13.9932 0.386719C6.26498 0.386719 0 6.65168 0 14.38V33.6206C0 41.3489 6.26498 47.6139 13.9932 47.6139H103.337C111.065 47.6139 117.33 41.3489 117.33 33.6207V30.8736C117.337 30.8699 117.344 30.8661 117.35 30.8622L128.563 24.3887C129.146 24.0521 129.146 23.2106 128.563 22.8739L117.35 16.4005C117.344 16.3966 117.337 16.3927 117.33 16.389V14.38C117.33 6.65169 111.065 0.386719 103.337 0.386719H13.9932Z" fill="white"/>
    </mask>
    <g mask="url(#mask0_207_122)">
    <path d="M117.33 30.8732L116.912 30.105L116.455 30.3535V30.8732H117.33ZM117.33 16.3886H116.455V16.9084L116.912 17.1568L117.33 16.3886ZM0.874518 14.3796C0.874518 7.13427 6.74793 1.26087 13.9931 1.26087V-0.488281C5.7819 -0.488281 -0.874634 6.16824 -0.874634 14.3796H0.874518ZM0.874518 33.6202V14.3796H-0.874634V33.6202H0.874518ZM13.9931 46.7388C6.74794 46.7388 0.874518 40.8655 0.874518 33.6202H-0.874634C-0.874634 41.8315 5.78191 48.4879 13.9931 48.4879V46.7388ZM103.337 46.7388H13.9931V48.4879H103.337V46.7388ZM116.455 33.6203C116.455 40.8655 110.582 46.7388 103.337 46.7388V48.4879C111.548 48.4879 118.204 41.8315 118.204 33.6203H116.455ZM116.455 30.8732V33.6203H118.204V30.8732H116.455ZM116.913 30.1044C116.913 30.1047 116.912 30.1049 116.912 30.105L117.748 31.6414C117.761 31.6341 117.775 31.6267 117.788 31.6192L116.913 30.1044ZM128.125 23.6309L116.913 30.1044L117.788 31.6192L129 25.1457L128.125 23.6309ZM128.125 23.6309L129 25.1457C130.166 24.4725 130.166 22.7894 129 22.1161L128.125 23.6309ZM116.913 17.1575L128.125 23.6309L129 22.1161L117.788 15.6427L116.913 17.1575ZM116.912 17.1568C116.912 17.157 116.913 17.1572 116.913 17.1575L117.788 15.6427C117.775 15.6352 117.761 15.6276 117.748 15.6203L116.912 17.1568ZM116.455 14.3796V16.3886H118.204V14.3796H116.455ZM103.337 1.26087C110.582 1.26087 116.455 7.13429 116.455 14.3796H118.204C118.204 6.16826 111.548 -0.488281 103.337 -0.488281V1.26087ZM13.9931 1.26087H103.337V-0.488281H13.9931V1.26087Z" fill="white" fill-opacity="0.24"/>
    </g>
    </g>
    <defs>
    <clipPath id="clip0_207_122">
    <rect width="129" height="48" fill="white"/>
    </clipPath>
    </defs>
    </svg>
    