<svg width="102" height="102" viewBox="0 0 102 103" fill="none" xmlns="http://www.w3.org/2000/svg">
<path fill-rule="evenodd" clip-rule="evenodd" d="M19.9123 10.9098C27.9434 4.9114 35.556 1.88229 45.9187 0.606876C47.2938 0.427521 55.026 0.487305 56.68 0.686588C62.2998 1.34422 67.8598 2.89863 72.7223 5.19039C88.6251 12.7034 99.5458 27.7891 101.718 45.3061C102.136 48.6341 102.037 56.2069 101.539 59.3555C99.8248 69.9773 95.1616 79.2639 87.6685 87.0359C79.478 95.5055 68.9957 100.727 57.1982 102.201C53.8701 102.62 46.4767 102.52 43.2284 102.022C35.5361 100.806 28.043 97.8172 22.0845 93.5924C18.9159 91.3604 18.059 90.6629 15.6277 88.3114C12.6982 85.5015 10.5858 82.9905 8.45352 79.782C3.92979 72.9865 1.29926 65.8522 0.282912 57.7015C-0.0558691 55.0112 -0.115654 48.395 0.183271 45.9039C1.35904 36.0394 4.86642 27.53 11.0841 19.4989C12.5587 17.5858 17.8397 12.4443 19.9123 10.9098ZM74.5368 55.8617C75.1935 55.4749 75.1935 54.5251 74.5368 54.1383L40.0074 33.8041C39.3408 33.4115 38.5 33.8921 38.5 34.6658L38.5 75.3342C38.5 76.1079 39.3408 76.5885 40.0074 76.1959L74.5368 55.8617Z" fill="#4C5A65"/>
</svg>
