<svg data-content="changed"  preserveAspectRatio=''  class='svg_custom mx-auto' id="Слой_1" data-name="Слой 1" xmlns="http://www.w3.org/2000/svg" width="823" height="197" viewBox="0 0 823 197">
  <path d="M7.51,95.37v95.16h45.1c47.93,0,51.57-.37,68.56-6.5,15-5.52,26.09-14.84,36-30.41,10.72-17.17,16-49.79,12.34-75.41-4-26.62-7.89-36.43-19.82-51C141,16.89,127.44,8.43,112.88,4.26,101.76,1.2,100.54,1.07,54.63.7L7.51.34Zm88-56.77C114.9,44,123,55.15,126.63,80.78c2.43,16.43,0,39.85-4.85,50.15-3.44,6.87-10.92,15.09-16.38,18-6.68,3.56-23.06,6-39.64,6H50V35.65l19.82.62C80.52,36.63,92.25,37.74,95.49,38.6Z" fill="#fff"/>
  <path d="M256.27,95.62v95l48.14-.36,47.93-.37,11.73-3.56c25.28-7.6,41.26-23.79,51.17-51.62,4.25-11.53,6.07-49.42,3.24-65-4.86-26.24-18.41-47.45-37-57.51C371.76,7,368.32,5.73,352.75,1.81,349.11,1,331.11.46,301.78.46H256.27ZM346.68,39q30.94,9.57,30.94,56.41c0,34.95-11.73,53.22-37,57.76A190.23,190.23,0,0,1,314.52,155H298.75V35.65l20.83.62C332.93,36.76,342.84,37.62,346.68,39Z" fill="#fff"/>
  <path d="M610.21,30.5V48.29H585.94v33.1H610l.6,42.56c.81,43,1,44.39,8.7,54.93,7.08,9.57,25.89,15.21,45.51,13.49,17.39-1.47,16.18-.24,16.18-17.17V160l-10.32-.37c-8.9-.37-11.12-1-14.76-3.8-4-3.31-4.25-5.15-4.86-39l-.6-35.44H679V48.29H650.66V12.72H610.21Z" fill="#fff"/>
  <path d="M739.65,46.69c-19.82,4.78-26.7,8.09-35,16.68-11.53,11.89-12.94,35.93-2.83,49.05,8.9,11.77,18,16.06,45.71,21.7,15,2.95,18.81,4.17,23.26,6.87,3.84,2.21,4.24,11.16,1,15.7-4.65,6.25-22.65,8.34-32.57,3.92-4-1.84-11.52-11.28-11.73-14.59,0-1.84-2.22-2.09-18.2-2.09h-18.2v5.52a45.41,45.41,0,0,0,2.22,11.9c8.9,25.14,37.82,36.79,77.06,31,13.35-2.08,16-2.94,25.89-9.07,15.77-9.69,19.21-16.07,19.21-35.07,0-26.49-10.11-34.83-53-43.66C741.06,100,735.6,97,735.6,88.75c.21-10.67,14.57-15.45,29.73-9.81,5.26,1.84,7.29,3.93,10.12,9.81l3.64,7.36h33.37V92.68c-.2-20.36-14.36-37.53-35.8-43.9C769,46.57,745.51,45.22,739.65,46.69Z" fill="#fff"/>
  <path d="M195.4,76.12C180.23,86.3,180,105.8,195,115.85c8.7,5.77,16.79,6.38,25.49,1.84C227.55,114,234,104,234,96.85c0-7.48-4.86-16.44-11.33-20.48C214.81,71.46,202.48,71.34,195.4,76.12Z" fill="#fff"/>
  <g id="scanFingerWhite3">
    <path d="M489.5,43.26c-12.28,2.82-14.5,3.8-25,10.3C455.48,59.32,448.43,68,448.23,74s4.43,5.64,7.85-.49c8.86-15.58,33.62-26.37,57.37-25,9.67.61,23.76,4.29,31,8.09,5.84,3.19,16.51,13.74,19.93,19.87,3.22,5.89,6.44,7.48,8.25,4.05,2.62-5-8.25-19.75-20.73-28.33C537.41,42.4,510.84,38.47,489.5,43.26Z" fill="#fafafa"/>
    <path d="M498.36,53.93c-31.61,4.41-51.14,31.39-51.34,70.39,0,7.11-1.41,16.67-3,21.46-3.83,10.66-3.83,11.64-.2,11.64,6.64,0,8.86-6.5,11.27-34.33,2.62-30.17,8.66-44,23.36-53.47,8.65-5.64,14.49-7.11,30-7.85,14.09-.61,14.09-.61,14.09-4.29s-.2-3.68-10.06-3.92C507,53.56,500.57,53.68,498.36,53.93Z" fill="#fafafa"/>
    <path d="M526.74,58.71c-1.61,2.7.21,4.78,6.85,7.72,13.89,6.26,24.16,20.24,29.39,39.49,3.42,12.39,3.62,37,.81,51.38-1.61,7.24-1.61,10.67,0,11.65,4.43,2.7,6.44-2,8.45-20.23,3.83-35.07-4-65.24-21.14-80.08-5.63-4.9-17.71-11.77-20.73-11.77A5.43,5.43,0,0,0,526.74,58.71Z" fill="#fafafa"/>
    <path d="M493.93,67.17c-8.06,2.7-12.69,6-12.69,8.83,0,4.17,2.82,4.54,9.26,1.1s17.92-4.9,27.18-3.67c3.83.48,10.47,3.31,15.91,6.62,10.67,6.5,17.11,16.8,19.33,31.14,1.4,8.83,2.81,10.55,6.84,7.61,1.81-1.35,1.61-4.54-.6-14.35C554.32,85.2,546.27,75.39,530,69c-7.46-2.94-11.28-3.56-20.34-3.44C503.39,65.7,496.34,66.43,493.93,67.17Z" fill="#fafafa"/>
    <path d="M500.57,78.94a45.66,45.66,0,0,0-12.48,5c-10.27,6-19.13,20.48-14.9,24.4,2.42,2.33,4.83.74,8.05-5.51,6.45-12.88,20.14-19.38,34.83-16.44a40.86,40.86,0,0,1,14.3,6.26c7,5,9.26,4.9,9.26-.37,0-4.42-11.88-11.65-22-13.37C509.43,77.59,508.42,77.59,500.57,78.94Z" fill="#fafafa"/>
    <path d="M444.2,80.41c-4,7.73-5.44,11.65-7.25,21.22-2.41,13.85-2.61,40.71-.2,41.69,3.83,1.35,4.83-2.45,5.64-19.5.4-9.44,2.21-21.7,4-27.1a86.23,86.23,0,0,0,3.43-13.36C450,79.68,445.61,77.47,444.2,80.41Z" fill="#fafafa"/>
    <path d="M472.39,81.64c-11.28,10.55-19.73,41.57-13.29,48.93,4,4.54,5.44,2.21,6.64-11.53,1.21-14,4.43-23.3,10.27-30.41C481.65,81.76,478.63,75.88,472.39,81.64Z" fill="#fafafa"/>
    <path d="M569.83,85.93c0,1.23,1.4,8.22,3,15.7a156,156,0,0,1,3,27.71c0,7.85.61,14.47,1.21,15s2.42.37,4,0c3.82-.85,3.82-23.29,0-42.06-3.22-15.82-4.43-18.39-8.46-18.39C571,83.85,569.83,84.83,569.83,85.93Z" fill="#fafafa"/>
    <path d="M493.32,92.68c-7,4-8.45,8-11.27,31.64-3.62,30.77-3.62,30.65,1,30.65,3.22,0,3.82-1.35,5-11.28.6-6.13,1.21-15.94,1.21-21.7,0-12.88,2.41-18.4,10.06-23.43l5.84-3.8,7.85,2.46c12.08,3.79,16.71,12.13,16.71,30.77,0,21.46-4.63,42.43-12.48,56.66-2,3.8-3.22,7.85-2.62,8.95,7.45,11.77,23.16-32.37,22.75-64.38C537.21,109,533,98,523.12,92.55,517.28,89.12,499.36,89.24,493.32,92.68Z" fill="#fafafa"/>
    <path d="M539,98.93c-.6,1-.2,6,.81,11.41,1.21,5.27,1.81,16.55,1.41,25-.6,13.24-.2,15.33,2.62,15.7s3.42-1.47,4.63-11.28c1.41-12.27-.2-35.08-3-39.74C543.65,97,540.64,96.48,539,98.93Z" fill="#fafafa"/>
    <path d="M500.17,101.14c-3.22,2.2-3.83,4.54-3.83,16.31,0,11.28.61,13.61,3,13.61s3.22-2.21,3.63-11.28c.6-12.14,3.22-15.58,9.26-12,5,3.19,5.83,9.81,3.82,31.15-2,20.84-1.81,23.91,2.22,23.05,2.41-.49,6.64-23.91,7-39,.21-10.43-3.62-20.12-9.26-22.69A16.59,16.59,0,0,0,500.17,101.14Z" fill="#fafafa"/>
    <path d="M472.59,112.91c-.81.37-1.41,5.52-1.61,11.28-.2,21.46-2.62,31.27-9.67,39.86-3.62,4.29-6.24,8.82-5.83,10,1.41,4.78,5.63,2.7,12.68-6.13s7.45-10.05,9.46-29.31C480,116,478.83,109.11,472.59,112.91Z" fill="#fafafa"/>
    <path d="M506.81,112.91c-.8.37-1.41,9.08-1.41,19.25,0,24.77-5,40.84-16.91,53.59-3.62,3.8-4.43,5.76-3,7.36,3,3.43,7,1.47,12.48-6,10.47-14.23,15.5-32.13,15.5-56C513.45,114.38,511.64,109.84,506.81,112.91Z" fill="#fafafa"/>
    <path d="M555.33,123.82c-.6.62-1.81,9.32-2.62,19.5-.6,10.06-3,23.67-5.23,30.29-4.63,14.47-4.63,14.47-.2,14.47s7.45-6.74,10.47-23.3c4-22.68,4.63-37.28,1.41-39.73C557.55,123.82,555.93,123.21,555.33,123.82Z" fill="#fafafa"/>
    <path d="M458.29,135.59c-.6.87-1.4,5.4-1.81,10.06-.6,5.89-2.21,9.44-5.23,11.9-4.64,3.8-5.44,7.84-2,9.19,6.45,2.33,16.51-13.85,15.51-24.89C464.13,135.35,460.31,131.67,458.29,135.59Z" fill="#fafafa"/>
    <path d="M496.54,135.59a66.88,66.88,0,0,0-2,10.8c-1.81,12.14-6.24,22.56-13.49,30.16-6.64,7.24-7.65,11.9-2.21,11.29,4.43-.49,16.71-15.58,20.13-25,3.62-9.93,4.23-27.71,1-28.33C498.56,134.13,497,134.61,496.54,135.59Z" fill="#fafafa"/>
    <path d="M538.82,160.12c-.6,1.59-2.41,7.36-4,13-1.81,5.64-4.63,12.14-6.24,14.47-3,4.54-2.22,7.85,2,7.85,4.43,0,11.27-14.47,14.29-30.41,1.21-6.5.81-7.61-2-7.61C541.24,157.42,539.23,158.65,538.82,160.12Z" fill="#fafafa"/>
    <path d="M476.21,163.68A60,60,0,0,1,470,174.1c-9.46,13.12-2.82,16.43,7.25,3.68,7.25-9.32,8.86-16.92,3.62-17.66C478.63,159.88,477.22,160.86,476.21,163.68Z" fill="#fafafa"/>
    <path d="M508.62,174.1A63.92,63.92,0,0,1,501.38,187c-5.24,6-5.24,9.68-.21,9.68,3,0,5-2.08,9.06-8.95,6.85-11.65,9.67-19,8.26-20.47C515.27,164.05,511.64,166.5,508.62,174.1Z" fill="#fafafa"/>
  </g>
  <g id="scanFingerGrey3">
    <path d="M489.5,43.26c-12.28,2.82-14.5,3.8-25,10.3C455.48,59.32,448.43,68,448.23,74s4.43,5.64,7.85-.49c8.86-15.58,33.62-26.37,57.37-25,9.67.61,23.76,4.29,31,8.09,5.84,3.19,16.51,13.74,19.93,19.87,3.22,5.89,6.44,7.48,8.25,4.05,2.62-5-8.25-19.75-20.73-28.33C537.41,42.4,510.84,38.47,489.5,43.26Z" fill="#142b38" stroke="#142b38" stroke-miterlimit="10"/>
    <path d="M498.36,53.93c-31.61,4.41-51.14,31.39-51.34,70.39,0,7.11-1.41,16.67-3,21.46-3.83,10.66-3.83,11.64-.2,11.64,6.64,0,8.86-6.5,11.27-34.33,2.62-30.17,8.66-44,23.36-53.47,8.65-5.64,14.49-7.11,30-7.85,14.09-.61,14.09-.61,14.09-4.29s-.2-3.68-10.06-3.92C507,53.56,500.57,53.68,498.36,53.93Z" fill="#142b38" stroke="#142b38" stroke-miterlimit="10"/>
    <path d="M526.74,58.71c-1.61,2.7.21,4.78,6.85,7.72,13.89,6.26,24.16,20.24,29.39,39.49,3.42,12.39,3.62,37,.81,51.38-1.61,7.24-1.61,10.67,0,11.65,4.43,2.7,6.44-2,8.45-20.23,3.83-35.07-4-65.24-21.14-80.08-5.63-4.9-17.71-11.77-20.73-11.77A5.43,5.43,0,0,0,526.74,58.71Z" fill="#142b38" stroke="#142b38" stroke-miterlimit="10"/>
    <path d="M493.93,67.17c-8.06,2.7-12.69,6-12.69,8.83,0,4.17,2.82,4.54,9.26,1.1s17.92-4.9,27.18-3.67c3.83.48,10.47,3.31,15.91,6.62,10.67,6.5,17.11,16.8,19.33,31.14,1.4,8.83,2.81,10.55,6.84,7.61,1.81-1.35,1.61-4.54-.6-14.35C554.32,85.2,546.27,75.39,530,69c-7.46-2.94-11.28-3.56-20.34-3.44C503.39,65.7,496.34,66.43,493.93,67.17Z" fill="#142b38" stroke="#142b38" stroke-miterlimit="10"/>
    <path d="M500.57,78.94a45.66,45.66,0,0,0-12.48,5c-10.27,6-19.13,20.48-14.9,24.4,2.42,2.33,4.83.74,8.05-5.51,6.45-12.88,20.14-19.38,34.83-16.44a40.86,40.86,0,0,1,14.3,6.26c7,5,9.26,4.9,9.26-.37,0-4.42-11.88-11.65-22-13.37C509.43,77.59,508.42,77.59,500.57,78.94Z" fill="#142b38" stroke="#142b38" stroke-miterlimit="10"/>
    <path d="M444.2,80.41c-4,7.73-5.44,11.65-7.25,21.22-2.41,13.85-2.61,40.71-.2,41.69,3.83,1.35,4.83-2.45,5.64-19.5.4-9.44,2.21-21.7,4-27.1a86.23,86.23,0,0,0,3.43-13.36C450,79.68,445.61,77.47,444.2,80.41Z" fill="#142b38" stroke="#142b38" stroke-miterlimit="10"/>
    <path d="M472.39,81.64c-11.28,10.55-19.73,41.57-13.29,48.93,4,4.54,5.44,2.21,6.64-11.53,1.21-14,4.43-23.3,10.27-30.41C481.65,81.76,478.63,75.88,472.39,81.64Z" fill="#142b38" stroke="#142b38" stroke-miterlimit="10"/>
    <path d="M569.83,85.93c0,1.23,1.4,8.22,3,15.7a156,156,0,0,1,3,27.71c0,7.85.61,14.47,1.21,15s2.42.37,4,0c3.82-.85,3.82-23.29,0-42.06-3.22-15.82-4.43-18.39-8.46-18.39C571,83.85,569.83,84.83,569.83,85.93Z" fill="#142b38" stroke="#142b38" stroke-miterlimit="10"/>
    <path d="M493.32,92.68c-7,4-8.45,8-11.27,31.64-3.62,30.77-3.62,30.65,1,30.65,3.22,0,3.82-1.35,5-11.28.6-6.13,1.21-15.94,1.21-21.7,0-12.88,2.41-18.4,10.06-23.43l5.84-3.8,7.85,2.46c12.08,3.79,16.71,12.13,16.71,30.77,0,21.46-4.63,42.43-12.48,56.66-2,3.8-3.22,7.85-2.62,8.95,7.45,11.77,23.16-32.37,22.75-64.38C537.21,109,533,98,523.12,92.55,517.28,89.12,499.36,89.24,493.32,92.68Z" fill="#142b38" stroke="#142b38" stroke-miterlimit="10"/>
    <path d="M539,98.93c-.6,1-.2,6,.81,11.41,1.21,5.27,1.81,16.55,1.41,25-.6,13.24-.2,15.33,2.62,15.7s3.42-1.47,4.63-11.28c1.41-12.27-.2-35.08-3-39.74C543.65,97,540.64,96.48,539,98.93Z" fill="#142b38" stroke="#142b38" stroke-miterlimit="10"/>
    <path d="M500.17,101.14c-3.22,2.2-3.83,4.54-3.83,16.31,0,11.28.61,13.61,3,13.61s3.22-2.21,3.63-11.28c.6-12.14,3.22-15.58,9.26-12,5,3.19,5.83,9.81,3.82,31.15-2,20.84-1.81,23.91,2.22,23.05,2.41-.49,6.64-23.91,7-39,.21-10.43-3.62-20.12-9.26-22.69A16.59,16.59,0,0,0,500.17,101.14Z" fill="#142b38" stroke="#142b38" stroke-miterlimit="10"/>
    <path d="M472.59,112.91c-.81.37-1.41,5.52-1.61,11.28-.2,21.46-2.62,31.27-9.67,39.86-3.62,4.29-6.24,8.82-5.83,10,1.41,4.78,5.63,2.7,12.68-6.13s7.45-10.05,9.46-29.31C480,116,478.83,109.11,472.59,112.91Z" fill="#142b38" stroke="#142b38" stroke-miterlimit="10"/>
    <path d="M506.81,112.91c-.8.37-1.41,9.08-1.41,19.25,0,24.77-5,40.84-16.91,53.59-3.62,3.8-4.43,5.76-3,7.36,3,3.43,7,1.47,12.48-6,10.47-14.23,15.5-32.13,15.5-56C513.45,114.38,511.64,109.84,506.81,112.91Z" fill="#142b38" stroke="#142b38" stroke-miterlimit="10"/>
    <path d="M555.33,123.82c-.6.62-1.81,9.32-2.62,19.5-.6,10.06-3,23.67-5.23,30.29-4.63,14.47-4.63,14.47-.2,14.47s7.45-6.74,10.47-23.3c4-22.68,4.63-37.28,1.41-39.73C557.55,123.82,555.93,123.21,555.33,123.82Z" fill="#142b38" stroke="#142b38" stroke-miterlimit="10"/>
    <path d="M458.29,135.59c-.6.87-1.4,5.4-1.81,10.06-.6,5.89-2.21,9.44-5.23,11.9-4.64,3.8-5.44,7.84-2,9.19,6.45,2.33,16.51-13.85,15.51-24.89C464.13,135.35,460.31,131.67,458.29,135.59Z" fill="#142b38" stroke="#142b38" stroke-miterlimit="10"/>
    <path d="M496.54,135.59a66.88,66.88,0,0,0-2,10.8c-1.81,12.14-6.24,22.56-13.49,30.16-6.64,7.24-7.65,11.9-2.21,11.29,4.43-.49,16.71-15.58,20.13-25,3.62-9.93,4.23-27.71,1-28.33C498.56,134.13,497,134.61,496.54,135.59Z" fill="#142b38" stroke="#142b38" stroke-miterlimit="10"/>
    <path d="M538.82,160.12c-.6,1.59-2.41,7.36-4,13-1.81,5.64-4.63,12.14-6.24,14.47-3,4.54-2.22,7.85,2,7.85,4.43,0,11.27-14.47,14.29-30.41,1.21-6.5.81-7.61-2-7.61C541.24,157.42,539.23,158.65,538.82,160.12Z" fill="#142b38" stroke="#142b38" stroke-miterlimit="10"/>
    <path d="M476.21,163.68A60,60,0,0,1,470,174.1c-9.46,13.12-2.82,16.43,7.25,3.68,7.25-9.32,8.86-16.92,3.62-17.66C478.63,159.88,477.22,160.86,476.21,163.68Z" fill="#142b38" stroke="#142b38" stroke-miterlimit="10"/>
    <path d="M508.62,174.1A63.92,63.92,0,0,1,501.38,187c-5.24,6-5.24,9.68-.21,9.68,3,0,5-2.08,9.06-8.95,6.85-11.65,9.67-19,8.26-20.47C515.27,164.05,511.64,166.5,508.62,174.1Z" fill="#142b38" stroke="#142b38" stroke-miterlimit="10"/>
  </g>
</svg>
