<svg data-content="changed"  preserveAspectRatio=''  class='w-100 mb-sm-4 h-auto' id="Слой_1" data-name="Слой 1" xmlns="http://www.w3.org/2000/svg" xmlns:xlink="http://www.w3.org/1999/xlink" width="1025" height="255" viewBox="0 0 1025 255">
  <defs>
    <clipPath id="Слой_1_clip-path">
      <path d="M221,51h0a76,76,0,0,1,76,76h0a76,76,0,0,1-76,76h0a76,76,0,0,1-76-76h0A76,76,0,0,1,221,51Z" fill="none"/>
    </clipPath>
  </defs>
  <g id="icon1">
    <path d="M529,153l-11.32-6.12a20.13,20.13,0,0,1-7.81-7.51A20.62,20.62,0,0,1,507,128.86V104.71a3.73,3.73,0,0,1,1.08-2.62,3.62,3.62,0,0,1,2.59-1.09h36.66a3.62,3.62,0,0,1,2.59,1.09,3.73,3.73,0,0,1,1.08,2.62v24.15a20.62,20.62,0,0,1-2.87,10.51,20.13,20.13,0,0,1-7.81,7.51Zm-18.33-48.29v24.15a16.77,16.77,0,0,0,2.35,8.6,16.53,16.53,0,0,0,6.38,6.15l9.6,5.18,9.6-5.18a16.7,16.7,0,0,0,8.73-14.75V104.71Z" fill="#fafafa"/>
    <path d="M523.38,129.8l-6.63-6.43-3.61,3.5,10.24,9.93,20.46-19.86-3.6-3.5Z" fill="#fafafa"/>
  </g>
  <circle cx="258.5" cy="205.5" r="5.5" fill="#fafafa"/>
  <path d="M.67,38A5.33,5.33,0,1,0,6,32.67,5.32,5.32,0,0,0,.67,38ZM144.5,38l.71-.71-.3-.29h-.41ZM6,39H144.5V37H6Zm137.79-.29,27,27,1.42-1.42-27-27Z" fill="#fafafa"/>
  <path d="M35,123v-1H34v1Zm0,131H34v1h1Zm185.5,0v1h1v-1Zm-5.33-39.5a5.33,5.33,0,1,0,5.33-5.33A5.32,5.32,0,0,0,215.17,214.5ZM35,124H144.5v-2H35Zm-1-1V254h2V123Zm1,132H220.5v-2H35Zm186.5-1V214.5h-2V254Z" fill="#fafafa"/>
  <path d="M1023.5,132v1h1v-1Zm0-131h1V0h-1ZM838,1V0h-1V1Zm5.33,39.5A5.33,5.33,0,1,0,838,45.83,5.32,5.32,0,0,0,843.33,40.5ZM1023.5,131H914v2h109.5Zm1,1V1h-2V132Zm-1-132H838V2h185.5ZM837,1V40.5h2V1Z" fill="#fafafa"/>
  <path d="M221,48h0a79,79,0,0,1,79,79h0a79,79,0,0,1-79,79h0a79,79,0,0,1-79-79h0A79,79,0,0,1,221,48Z" fill="none" stroke="#fafafa" stroke-width="2"/>
  <g clip-path="url(#Слой_1_clip-path)">
    <g>
      <path id="icon2" d="M220.5,90a18.74,18.74,0,1,1-13.26,5.49A18.79,18.79,0,0,1,220.5,90Zm0,46.88c20.72,0,37.5,8.39,37.5,18.74V165H183v-9.38C183,145.27,199.78,136.88,220.5,136.88Z" fill="#fafafa"/>
      <g id="rotateNewCircle1">
        <path d="M153.73,162.37a76,76,0,1,1,139.16-60l-1.84.63a74.05,74.05,0,1,0-135.59,58.48Z" fill="#fafafa"/>
        <circle cx="220.5" cy="126.75" r="81.55" fill="none"/>
      </g>
    </g>
  </g>
  <path d="M221,52h0a75,75,0,0,1,75,75h0a75,75,0,0,1-75,75h0a75,75,0,0,1-75-75h0A75,75,0,0,1,221,52Z" fill="none" stroke="#fafafa" stroke-opacity="0.4" stroke-width="2"/>
  <path d="M838,48h0a79,79,0,0,1,79,79h0a79,79,0,0,1-79,79h0a79,79,0,0,1-79-79h0A79,79,0,0,1,838,48Z" fill="none" stroke="#fafafa" stroke-width="2"/>
  <circle cx="803.5" cy="47.5" r="5.5" fill="#fafafa"/>
  <g id="icon3">
    <path d="M790,111.05v25l14-.1,13.92-.1,3.4-.93c7.35-2,12-6.27,14.86-13.59,1.24-3,1.77-13,.94-17.11-1.41-6.91-5.34-12.49-10.74-15.14-2.82-1.39-3.82-1.71-8.34-2.74-1.06-.23-6.29-.36-14.8-.36H790Zm26.25-14.91q9,2.51,9,14.85c0,9.19-3.41,14-10.75,15.2a60.51,60.51,0,0,1-7.58.48h-4.58V95.26l6,.17A40.71,40.71,0,0,1,816.25,96.14Z" fill="#fafafa"/>
    <g id="scanFingerWhite1">
      <path d="M857.13,95.25A18.78,18.78,0,0,0,849.77,98c-2.68,1.53-4.76,3.85-4.82,5.45s1.31,1.5,2.32-.13c2.61-4.15,9.92-7,16.93-6.66a29.75,29.75,0,0,1,9.14,2.15,19.85,19.85,0,0,1,5.88,5.29c.95,1.57,1.9,2,2.44,1.08.77-1.34-2.44-5.26-6.12-7.54C871.27,95,863.42,94,857.13,95.25Z" fill="#fafafa"/>
      <path d="M859.74,98.09c-9.32,1.17-15.08,8.35-15.14,18.73a20,20,0,0,1-.89,5.71c-1.13,2.83-1.13,3.09-.06,3.09,2,0,2.61-1.72,3.32-9.13.77-8,2.56-11.71,6.89-14.23,2.56-1.5,4.28-1.89,8.85-2.08,4.16-.17,4.16-.17,4.16-1.15s-.06-1-3-1C862.3,98,860.4,98,859.74,98.09Z" fill="#fafafa"/>
      <path d="M868.12,99.36c-.48.72.06,1.27,2,2.06,4.09,1.66,7.12,5.38,8.67,10.5,1,3.3,1.07,9.86.24,13.67-.48,1.93-.48,2.84,0,3.1,1.3.72,1.9-.52,2.49-5.38C882.67,114,880.35,106,875.3,102c-1.66-1.3-5.22-3.13-6.11-3.13A1.64,1.64,0,0,0,868.12,99.36Z" fill="#fafafa"/>
      <path d="M858.44,101.61c-2.38.72-3.75,1.6-3.75,2.35,0,1.11.84,1.21,2.74.29a16.88,16.88,0,0,1,8-1,15.43,15.43,0,0,1,4.69,1.76,11.05,11.05,0,0,1,5.7,8.28c.41,2.35.83,2.81,2,2,.53-.36.47-1.21-.18-3.82-1.43-5.12-3.8-7.73-8.61-9.43a14.07,14.07,0,0,0-6-.91A26.72,26.72,0,0,0,858.44,101.61Z" fill="#fafafa"/>
      <path d="M860.4,104.74a14.55,14.55,0,0,0-3.69,1.34c-3,1.6-5.64,5.45-4.39,6.49.71.62,1.42.2,2.37-1.46,1.9-3.43,5.94-5.16,10.28-4.38a12.72,12.72,0,0,1,4.22,1.67c2.08,1.34,2.73,1.3,2.73-.1,0-1.18-3.51-3.1-6.47-3.56A11.94,11.94,0,0,0,860.4,104.74Z" fill="#fafafa"/>
      <path d="M843.77,105.13a15.52,15.52,0,0,0-2.14,5.65c-.72,3.69-.77,10.83-.06,11.09,1.13.36,1.42-.65,1.66-5.19a30.55,30.55,0,0,1,1.19-7.21,21.48,21.48,0,0,0,1-3.55C845.49,104.94,844.18,104.35,843.77,105.13Z" fill="#fafafa"/>
      <path d="M852.08,105.46c-3.32,2.81-5.82,11.06-3.92,13,1.19,1.21,1.61.59,2-3.07s1.31-6.2,3-8.09S853.92,103.93,852.08,105.46Z" fill="#fafafa"/>
      <path d="M880.83,106.6c0,.33.41,2.19.89,4.18a38.28,38.28,0,0,1,.89,7.37,13.07,13.07,0,0,0,.36,4,2.28,2.28,0,0,0,1.18,0c1.13-.22,1.13-6.2,0-11.19-.95-4.21-1.3-4.89-2.49-4.89C881.18,106.05,880.83,106.31,880.83,106.6Z" fill="#fafafa"/>
      <path d="M858.26,108.4c-2.08,1.07-2.5,2.12-3.33,8.42-1.07,8.18-1.07,8.15.3,8.15.95,0,1.13-.36,1.48-3,.18-1.63.36-4.24.36-5.77,0-3.43.71-4.9,3-6.24l1.72-1,2.32.66c3.56,1,4.93,3.22,4.93,8.18,0,5.71-1.37,11.29-3.68,15.08-.6,1-1,2.09-.78,2.38,2.2,3.13,6.83-8.61,6.72-17.13-.06-5.38-1.31-8.32-4.22-9.76C865.33,107.45,860,107.48,858.26,108.4Z" fill="#fafafa"/>
      <path d="M871.74,110.06a7.41,7.41,0,0,0,.24,3,28.24,28.24,0,0,1,.41,6.65c-.17,3.53-.06,4.08.78,4.18s1-.39,1.36-3c.42-3.27-.06-9.33-.89-10.57C873.11,109.54,872.22,109.41,871.74,110.06Z" fill="#fafafa"/>
      <path d="M860.28,110.65c-.95.59-1.13,1.21-1.13,4.34s.18,3.62.89,3.62,1-.59,1.07-3c.18-3.23.95-4.15,2.73-3.2,1.49.85,1.72,2.61,1.13,8.29s-.54,6.36.65,6.13c.72-.13,2-6.36,2.08-10.37.06-2.78-1.07-5.35-2.73-6A5.37,5.37,0,0,0,860.28,110.65Z" fill="#fafafa"/>
      <path d="M852.14,113.78c-.24.1-.42,1.47-.48,3,0,5.71-.77,8.32-2.85,10.61-1.07,1.14-1.84,2.35-1.72,2.67.42,1.28,1.67.72,3.74-1.63s2.2-2.67,2.79-7.8C854.34,114.6,854,112.77,852.14,113.78Z" fill="#fafafa"/>
      <path d="M862.24,113.78c-.24.1-.42,2.42-.42,5.12,0,6.6-1.48,10.87-5,14.26-1.07,1-1.3,1.54-.89,2,.89.91,2.08.39,3.68-1.6,3.09-3.78,4.58-8.55,4.58-14.91C864.2,114.17,863.66,113,862.24,113.78Z" fill="#fafafa"/>
      <path d="M876.55,116.68a25.7,25.7,0,0,0-.77,5.19,34.74,34.74,0,0,1-1.55,8.06c-1.36,3.85-1.36,3.85-.05,3.85s2.19-1.79,3.08-6.2c1.19-6,1.37-9.92.42-10.57C877.21,116.68,876.73,116.52,876.55,116.68Z" fill="#fafafa"/>
      <path d="M847.92,119.82a9,9,0,0,0-.53,2.67,4.15,4.15,0,0,1-1.55,3.17c-1.36,1-1.6,2.09-.59,2.44,1.9.63,4.87-3.68,4.57-6.62C849.65,119.75,848.52,118.77,847.92,119.82Z" fill="#fafafa"/>
      <path d="M859.21,119.82a15.71,15.71,0,0,0-.6,2.87,13.9,13.9,0,0,1-4,8c-2,1.93-2.26,3.17-.66,3,1.31-.13,4.93-4.15,5.94-6.66s1.25-7.37.3-7.54A.94.94,0,0,0,859.21,119.82Z" fill="#fafafa"/>
      <path d="M871.68,126.34c-.18.43-.71,2-1.19,3.46a17.85,17.85,0,0,1-1.84,3.85c-.89,1.21-.65,2.09.6,2.09s3.32-3.85,4.21-8.09c.36-1.73.24-2-.59-2A1.33,1.33,0,0,0,871.68,126.34Z" fill="#fafafa"/>
      <path d="M853.21,127.29a16.06,16.06,0,0,1-1.84,2.77c-2.79,3.49-.83,4.37,2.14,1,2.14-2.48,2.61-4.5,1.07-4.7C853.92,126.28,853.51,126.54,853.21,127.29Z" fill="#fafafa"/>
      <path d="M862.77,130.06a16.25,16.25,0,0,1-2.14,3.43c-1.54,1.6-1.54,2.58-.06,2.58.9,0,1.49-.56,2.68-2.39,2-3.09,2.85-5.05,2.43-5.44C864.73,127.39,863.66,128,862.77,130.06Z" fill="#fafafa"/>
    </g>
    <g id="scanFingerGrey1">
      <path d="M857.13,95.25A18.78,18.78,0,0,0,849.77,98c-2.68,1.53-4.76,3.85-4.82,5.45s1.31,1.5,2.32-.13c2.61-4.15,9.92-7,16.93-6.66a29.75,29.75,0,0,1,9.14,2.15,19.85,19.85,0,0,1,5.88,5.29c.95,1.57,1.9,2,2.44,1.08.77-1.34-2.44-5.26-6.12-7.54C871.27,95,863.42,94,857.13,95.25Z" fill="#142b38"/>
      <path d="M859.74,98.09c-9.32,1.17-15.08,8.35-15.14,18.73a20,20,0,0,1-.89,5.71c-1.13,2.83-1.13,3.09-.06,3.09,2,0,2.61-1.72,3.32-9.13.77-8,2.56-11.71,6.89-14.23,2.56-1.5,4.28-1.89,8.85-2.08,4.16-.17,4.16-.17,4.16-1.15s-.06-1-3-1C862.3,98,860.4,98,859.74,98.09Z" fill="#142b38"/>
      <path d="M868.12,99.36c-.48.72.06,1.27,2,2.06,4.09,1.66,7.12,5.38,8.67,10.5,1,3.3,1.07,9.86.24,13.67-.48,1.93-.48,2.84,0,3.1,1.3.72,1.9-.52,2.49-5.38C882.67,114,880.35,106,875.3,102c-1.66-1.3-5.22-3.13-6.11-3.13A1.64,1.64,0,0,0,868.12,99.36Z" fill="#142b38"/>
      <path d="M858.44,101.61c-2.38.72-3.75,1.6-3.75,2.35,0,1.11.84,1.21,2.74.29a16.88,16.88,0,0,1,8-1,15.43,15.43,0,0,1,4.69,1.76,11.05,11.05,0,0,1,5.7,8.28c.41,2.35.83,2.81,2,2,.53-.36.47-1.21-.18-3.82-1.43-5.12-3.8-7.73-8.61-9.43a14.07,14.07,0,0,0-6-.91A26.72,26.72,0,0,0,858.44,101.61Z" fill="#142b38"/>
      <path d="M860.4,104.74a14.55,14.55,0,0,0-3.69,1.34c-3,1.6-5.64,5.45-4.39,6.49.71.62,1.42.2,2.37-1.46,1.9-3.43,5.94-5.16,10.28-4.38a12.72,12.72,0,0,1,4.22,1.67c2.08,1.34,2.73,1.3,2.73-.1,0-1.18-3.51-3.1-6.47-3.56A11.94,11.94,0,0,0,860.4,104.74Z" fill="#142b38"/>
      <path d="M843.77,105.13a15.52,15.52,0,0,0-2.14,5.65c-.72,3.69-.77,10.83-.06,11.09,1.13.36,1.42-.65,1.66-5.19a30.55,30.55,0,0,1,1.19-7.21,21.48,21.48,0,0,0,1-3.55C845.49,104.94,844.18,104.35,843.77,105.13Z" fill="#142b38"/>
      <path d="M852.08,105.46c-3.32,2.81-5.82,11.06-3.92,13,1.19,1.21,1.61.59,2-3.07s1.31-6.2,3-8.09S853.92,103.93,852.08,105.46Z" fill="#142b38"/>
      <path d="M880.83,106.6c0,.33.41,2.19.89,4.18a38.28,38.28,0,0,1,.89,7.37,13.07,13.07,0,0,0,.36,4,2.28,2.28,0,0,0,1.18,0c1.13-.22,1.13-6.2,0-11.19-.95-4.21-1.3-4.89-2.49-4.89C881.18,106.05,880.83,106.31,880.83,106.6Z" fill="#142b38"/>
      <path d="M858.26,108.4c-2.08,1.07-2.5,2.12-3.33,8.42-1.07,8.18-1.07,8.15.3,8.15.95,0,1.13-.36,1.48-3,.18-1.63.36-4.24.36-5.77,0-3.43.71-4.9,3-6.24l1.72-1,2.32.66c3.56,1,4.93,3.22,4.93,8.18,0,5.71-1.37,11.29-3.68,15.08-.6,1-1,2.09-.78,2.38,2.2,3.13,6.83-8.61,6.72-17.13-.06-5.38-1.31-8.32-4.22-9.76C865.33,107.45,860,107.48,858.26,108.4Z" fill="#142b38"/>
      <path d="M871.74,110.06a7.41,7.41,0,0,0,.24,3,28.24,28.24,0,0,1,.41,6.65c-.17,3.53-.06,4.08.78,4.18s1-.39,1.36-3c.42-3.27-.06-9.33-.89-10.57C873.11,109.54,872.22,109.41,871.74,110.06Z" fill="#142b38"/>
      <path d="M860.28,110.65c-.95.59-1.13,1.21-1.13,4.34s.18,3.62.89,3.62,1-.59,1.07-3c.18-3.23.95-4.15,2.73-3.2,1.49.85,1.72,2.61,1.13,8.29s-.54,6.36.65,6.13c.72-.13,2-6.36,2.08-10.37.06-2.78-1.07-5.35-2.73-6A5.37,5.37,0,0,0,860.28,110.65Z" fill="#142b38"/>
      <path d="M852.14,113.78c-.24.1-.42,1.47-.48,3,0,5.71-.77,8.32-2.85,10.61-1.07,1.14-1.84,2.35-1.72,2.67.42,1.28,1.67.72,3.74-1.63s2.2-2.67,2.79-7.8C854.34,114.6,854,112.77,852.14,113.78Z" fill="#142b38"/>
      <path d="M862.24,113.78c-.24.1-.42,2.42-.42,5.12,0,6.6-1.48,10.87-5,14.26-1.07,1-1.3,1.54-.89,2,.89.91,2.08.39,3.68-1.6,3.09-3.78,4.58-8.55,4.58-14.91C864.2,114.17,863.66,113,862.24,113.78Z" fill="#142b38"/>
      <path d="M876.55,116.68a25.7,25.7,0,0,0-.77,5.19,34.74,34.74,0,0,1-1.55,8.06c-1.36,3.85-1.36,3.85-.05,3.85s2.19-1.79,3.08-6.2c1.19-6,1.37-9.92.42-10.57C877.21,116.68,876.73,116.52,876.55,116.68Z" fill="#142b38"/>
      <path d="M847.92,119.82a9,9,0,0,0-.53,2.67,4.15,4.15,0,0,1-1.55,3.17c-1.36,1-1.6,2.09-.59,2.44,1.9.63,4.87-3.68,4.57-6.62C849.65,119.75,848.52,118.77,847.92,119.82Z" fill="#142b38"/>
      <path d="M859.21,119.82a15.71,15.71,0,0,0-.6,2.87,13.9,13.9,0,0,1-4,8c-2,1.93-2.26,3.17-.66,3,1.31-.13,4.93-4.15,5.94-6.66s1.25-7.37.3-7.54A.94.94,0,0,0,859.21,119.82Z" fill="#142b38"/>
      <path d="M871.68,126.34c-.18.43-.71,2-1.19,3.46a17.85,17.85,0,0,1-1.84,3.85c-.89,1.21-.65,2.09.6,2.09s3.32-3.85,4.21-8.09c.36-1.73.24-2-.59-2A1.33,1.33,0,0,0,871.68,126.34Z" fill="#142b38"/>
      <path d="M853.21,127.29a16.06,16.06,0,0,1-1.84,2.77c-2.79,3.49-.83,4.37,2.14,1,2.14-2.48,2.61-4.5,1.07-4.7C853.92,126.28,853.51,126.54,853.21,127.29Z" fill="#142b38"/>
      <path d="M862.77,130.06a16.25,16.25,0,0,1-2.14,3.43c-1.54,1.6-1.54,2.58-.06,2.58.9,0,1.49-.56,2.68-2.39,2-3.09,2.85-5.05,2.43-5.44C864.73,127.39,863.66,128,862.77,130.06Z" fill="#142b38"/>
    </g>
    <path d="M790,153.86V169l8.41-.06,8.37-.06,2.05-.56a12.53,12.53,0,0,0,8.94-8.23c.74-1.84,1.06-7.87.56-10.35-.85-4.19-3.21-7.57-6.46-9.17a17.74,17.74,0,0,0-5-1.66c-.63-.14-3.78-.21-8.9-.21h-8Zm15.79-9q5.41,1.53,5.41,9c0,5.57-2.05,8.48-6.47,9.2a35.78,35.78,0,0,1-4.56.29h-2.75v-19l3.64.1A25.13,25.13,0,0,1,805.79,144.83Z" fill="#fafafa"/>
    <path d="M850.62,143.47v2.8h-4.19v5.21h4.16l.1,6.7c.14,6.78.18,7,1.51,8.65,1.22,1.5,4.47,2.39,7.86,2.12,3-.23,2.79,0,2.79-2.7v-2.39l-1.78-.06c-1.54-.06-1.92-.16-2.55-.6s-.73-.81-.84-6.14l-.1-5.58h4.93v-5.21h-4.9v-5.6h-7Z" fill="#fafafa"/>
    <path d="M871.93,146c-3.41.75-4.59,1.26-6,2.6a6,6,0,0,0-.49,7.66c1.53,1.83,3.1,2.5,7.87,3.38,2.58.46,3.24.66,4,1.08s.73,1.74.17,2.45c-.8,1-3.9,1.3-5.61.61a4.94,4.94,0,0,1-2-2.28c0-.29-.38-.33-3.13-.33h-3.14v.87a6.39,6.39,0,0,0,.39,1.85c1.53,3.93,6.51,5.74,13.27,4.84a9.37,9.37,0,0,0,4.46-1.41c2.72-1.51,3.31-2.51,3.31-5.48,0-4.13-1.74-5.43-9.13-6.81-3.69-.71-4.63-1.18-4.63-2.47,0-1.66,2.51-2.41,5.12-1.53a2.52,2.52,0,0,1,1.74,1.53l.63,1.15h5.75v-.53c0-3.18-2.48-5.86-6.17-6.85A24.2,24.2,0,0,0,871.93,146Z" fill="#fafafa"/>
    <g id="scanFingerWhite2">
      <path d="M829.14,144.3a11.42,11.42,0,0,0-4.48,1.66c-1.63.94-2.89,2.35-2.93,3.32s.8.92,1.41-.08c1.59-2.52,6-4.27,10.31-4a18.21,18.21,0,0,1,5.57,1.31,12.38,12.38,0,0,1,3.58,3.22c.57.95,1.15,1.21,1.48.65.47-.81-1.48-3.19-3.73-4.58C837.75,144.16,833,143.52,829.14,144.3Z" fill="#fafafa"/>
      <path d="M830.73,146c-5.67.72-9.18,5.09-9.22,11.41a11.92,11.92,0,0,1-.54,3.47c-.69,1.73-.69,1.89,0,1.89,1.2,0,1.6-1,2-5.56.47-4.89,1.55-7.13,4.19-8.66,1.56-.92,2.61-1.16,5.39-1.27,2.53-.1,2.53-.1,2.53-.7s0-.6-1.8-.64C832.29,146,831.13,146,830.73,146Z" fill="#fafafa"/>
      <path d="M835.83,146.8c-.29.44,0,.77,1.23,1.25a9.46,9.46,0,0,1,5.28,6.4,20.7,20.7,0,0,1,.15,8.32c-.29,1.17-.29,1.73,0,1.89.79.44,1.16-.32,1.52-3.28.68-5.68-.73-10.57-3.8-13a11.53,11.53,0,0,0-3.73-1.91A1,1,0,0,0,835.83,146.8Z" fill="#fafafa"/>
      <path d="M829.94,148.17c-1.45.44-2.28,1-2.28,1.43,0,.67.51.73,1.66.18a10.27,10.27,0,0,1,4.89-.6,9.41,9.41,0,0,1,2.85,1.08,6.71,6.71,0,0,1,3.48,5c.25,1.43.5,1.71,1.22,1.23.33-.22.29-.73-.1-2.32-.87-3.12-2.32-4.71-5.25-5.74a8.53,8.53,0,0,0-3.65-.56A15.91,15.91,0,0,0,829.94,148.17Z" fill="#fafafa"/>
      <path d="M831.13,150.08a8.59,8.59,0,0,0-2.24.81c-1.84,1-3.44,3.32-2.68,4,.44.38.87.12,1.45-.89a5.78,5.78,0,0,1,6.26-2.66,7.7,7.7,0,0,1,2.56,1c1.27.82,1.67.8,1.67-.06s-2.14-1.89-3.94-2.16A7.27,7.27,0,0,0,831.13,150.08Z" fill="#fafafa"/>
      <path d="M821,150.31a9.36,9.36,0,0,0-1.3,3.44c-.44,2.25-.47,6.6,0,6.76.69.22.87-.4,1-3.16a18.53,18.53,0,0,1,.72-4.39,13,13,0,0,0,.62-2.17C822.06,150.2,821.26,149.84,821,150.31Z" fill="#fafafa"/>
      <path d="M826.07,150.51c-2,1.71-3.54,6.74-2.39,7.93.73.74,1,.36,1.2-1.87a8,8,0,0,1,1.84-4.92C827.73,150.53,827.19,149.58,826.07,150.51Z" fill="#fafafa"/>
      <path d="M843.57,151.21c0,.2.26,1.33.55,2.54a23.76,23.76,0,0,1,.54,4.49,8.58,8.58,0,0,0,.21,2.43,1.45,1.45,0,0,0,.73,0c.69-.14.69-3.78,0-6.82-.58-2.56-.8-3-1.52-3C843.79,150.87,843.57,151,843.57,151.21Z" fill="#fafafa"/>
      <path d="M829.83,152.3c-1.27.66-1.52,1.29-2,5.13-.66,5-.66,5,.18,5,.57,0,.68-.21.9-1.82.11-1,.22-2.59.22-3.52,0-2.09.43-3,1.81-3.8l1-.61,1.42.4c2.16.61,3,2,3,5a18.28,18.28,0,0,1-2.25,9.18,2.44,2.44,0,0,0-.47,1.45c1.34,1.91,4.16-5.24,4.09-10.43,0-3.28-.79-5.06-2.57-5.94A8.88,8.88,0,0,0,829.83,152.3Z" fill="#fafafa"/>
      <path d="M838,153.31a4.5,4.5,0,0,0,.14,1.85,17,17,0,0,1,.26,4.06c-.11,2.14,0,2.48.47,2.54s.61-.24.83-1.83c.25-2,0-5.68-.54-6.44C838.87,153,838.33,152.92,838,153.31Z" fill="#fafafa"/>
      <path d="M831.06,153.67c-.58.36-.69.74-.69,2.64s.11,2.21.55,2.21.57-.36.65-1.83c.11-2,.58-2.52,1.66-1.94.9.51,1,1.58.69,5s-.33,3.88.4,3.74c.43-.08,1.19-3.88,1.26-6.32,0-1.69-.65-3.26-1.66-3.68A3.32,3.32,0,0,0,831.06,153.67Z" fill="#fafafa"/>
      <path d="M826.11,155.58a4,4,0,0,0-.29,1.83c0,3.47-.47,5.06-1.74,6.45-.65.7-1.12,1.43-1.05,1.63.26.78,1,.44,2.28-1s1.34-1.63,1.7-4.75C827.44,156.08,827.23,155,826.11,155.58Z" fill="#fafafa"/>
      <path d="M832.25,155.58a10.58,10.58,0,0,0-.25,3.12c0,4-.9,6.61-3,8.68-.65.62-.79.93-.54,1.19.54.56,1.27.24,2.24-1,1.88-2.31,2.79-5.21,2.79-9.08C833.45,155.82,833.12,155.08,832.25,155.58Z" fill="#fafafa"/>
      <path d="M841,157.35a15,15,0,0,0-.47,3.16,21.22,21.22,0,0,1-.94,4.9c-.83,2.35-.83,2.35,0,2.35s1.34-1.09,1.88-3.78c.73-3.67.83-6,.26-6.43C841.37,157.35,841.08,157.25,841,157.35Z" fill="#fafafa"/>
      <path d="M823.54,159.25a5.72,5.72,0,0,0-.33,1.63,2.52,2.52,0,0,1-.94,1.93c-.83.62-1,1.27-.36,1.49,1.16.38,3-2.24,2.79-4C824.59,159.22,823.9,158.62,823.54,159.25Z" fill="#fafafa"/>
      <path d="M830.41,159.25a10.26,10.26,0,0,0-.36,1.75,8.45,8.45,0,0,1-2.43,4.89c-1.19,1.17-1.37,1.93-.39,1.83.79-.08,3-2.53,3.61-4.05s.76-4.49.18-4.59C830.77,159,830.48,159.1,830.41,159.25Z" fill="#fafafa"/>
      <path d="M838,163.23c-.1.26-.43,1.19-.72,2.1a10.82,10.82,0,0,1-1.12,2.35c-.54.73-.4,1.27.36,1.27s2-2.34,2.57-4.93c.22-1.05.14-1.23-.36-1.23A.83.83,0,0,0,838,163.23Z" fill="#fafafa"/>
      <path d="M826.76,163.8a9.65,9.65,0,0,1-1.12,1.69c-1.7,2.13-.51,2.67,1.3.6,1.3-1.51,1.59-2.74.65-2.86C827.19,163.19,826.94,163.35,826.76,163.8Z" fill="#fafafa"/>
      <path d="M832.58,165.49a10.36,10.36,0,0,1-1.3,2.09c-.94,1-.94,1.57,0,1.57.54,0,.91-.34,1.63-1.45,1.23-1.89,1.73-3.08,1.48-3.32C833.77,163.86,833.12,164.26,832.58,165.49Z" fill="#fafafa"/>
    </g>
    <g id="scanFingerGrey2">
      <path d="M829.14,144.3a11.42,11.42,0,0,0-4.48,1.66c-1.63.94-2.89,2.35-2.93,3.32s.8.92,1.41-.08c1.59-2.52,6-4.27,10.31-4a18.21,18.21,0,0,1,5.57,1.31,12.38,12.38,0,0,1,3.58,3.22c.57.95,1.15,1.21,1.48.65.47-.81-1.48-3.19-3.73-4.58C837.75,144.16,833,143.52,829.14,144.3Z" fill="#142b38"/>
      <path d="M830.73,146c-5.67.72-9.18,5.09-9.22,11.41a11.92,11.92,0,0,1-.54,3.47c-.69,1.73-.69,1.89,0,1.89,1.2,0,1.6-1,2-5.56.47-4.89,1.55-7.13,4.19-8.66,1.56-.92,2.61-1.16,5.39-1.27,2.53-.1,2.53-.1,2.53-.7s0-.6-1.8-.64C832.29,146,831.13,146,830.73,146Z" fill="#142b38"/>
      <path d="M835.83,146.8c-.29.44,0,.77,1.23,1.25a9.46,9.46,0,0,1,5.28,6.4,20.7,20.7,0,0,1,.15,8.32c-.29,1.17-.29,1.73,0,1.89.79.44,1.16-.32,1.52-3.28.68-5.68-.73-10.57-3.8-13a11.53,11.53,0,0,0-3.73-1.91A1,1,0,0,0,835.83,146.8Z" fill="#142b38"/>
      <path d="M829.94,148.17c-1.45.44-2.28,1-2.28,1.43,0,.67.51.73,1.66.18a10.27,10.27,0,0,1,4.89-.6,9.41,9.41,0,0,1,2.85,1.08,6.71,6.71,0,0,1,3.48,5c.25,1.43.5,1.71,1.22,1.23.33-.22.29-.73-.1-2.32-.87-3.12-2.32-4.71-5.25-5.74a8.53,8.53,0,0,0-3.65-.56A15.91,15.91,0,0,0,829.94,148.17Z" fill="#142b38"/>
      <path d="M831.13,150.08a8.59,8.59,0,0,0-2.24.81c-1.84,1-3.44,3.32-2.68,4,.44.38.87.12,1.45-.89a5.78,5.78,0,0,1,6.26-2.66,7.7,7.7,0,0,1,2.56,1c1.27.82,1.67.8,1.67-.06s-2.14-1.89-3.94-2.16A7.27,7.27,0,0,0,831.13,150.08Z" fill="#142b38"/>
      <path d="M821,150.31a9.36,9.36,0,0,0-1.3,3.44c-.44,2.25-.47,6.6,0,6.76.69.22.87-.4,1-3.16a18.53,18.53,0,0,1,.72-4.39,13,13,0,0,0,.62-2.17C822.06,150.2,821.26,149.84,821,150.31Z" fill="#142b38"/>
      <path d="M826.07,150.51c-2,1.71-3.54,6.74-2.39,7.93.73.74,1,.36,1.2-1.87a8,8,0,0,1,1.84-4.92C827.73,150.53,827.19,149.58,826.07,150.51Z" fill="#142b38"/>
      <path d="M843.57,151.21c0,.2.26,1.33.55,2.54a23.76,23.76,0,0,1,.54,4.49,8.58,8.58,0,0,0,.21,2.43,1.45,1.45,0,0,0,.73,0c.69-.14.69-3.78,0-6.82-.58-2.56-.8-3-1.52-3C843.79,150.87,843.57,151,843.57,151.21Z" fill="#142b38"/>
      <path d="M829.83,152.3c-1.27.66-1.52,1.29-2,5.13-.66,5-.66,5,.18,5,.57,0,.68-.21.9-1.82.11-1,.22-2.59.22-3.52,0-2.09.43-3,1.81-3.8l1-.61,1.42.4c2.16.61,3,2,3,5a18.28,18.28,0,0,1-2.25,9.18,2.44,2.44,0,0,0-.47,1.45c1.34,1.91,4.16-5.24,4.09-10.43,0-3.28-.79-5.06-2.57-5.94A8.88,8.88,0,0,0,829.83,152.3Z" fill="#142b38"/>
      <path d="M838,153.31a4.5,4.5,0,0,0,.14,1.85,17,17,0,0,1,.26,4.06c-.11,2.14,0,2.48.47,2.54s.61-.24.83-1.83c.25-2,0-5.68-.54-6.44C838.87,153,838.33,152.92,838,153.31Z" fill="#142b38"/>
      <path d="M831.06,153.67c-.58.36-.69.74-.69,2.64s.11,2.21.55,2.21.57-.36.65-1.83c.11-2,.58-2.52,1.66-1.94.9.51,1,1.58.69,5s-.33,3.88.4,3.74c.43-.08,1.19-3.88,1.26-6.32,0-1.69-.65-3.26-1.66-3.68A3.32,3.32,0,0,0,831.06,153.67Z" fill="#142b38"/>
      <path d="M826.11,155.58a4,4,0,0,0-.29,1.83c0,3.47-.47,5.06-1.74,6.45-.65.7-1.12,1.43-1.05,1.63.26.78,1,.44,2.28-1s1.34-1.63,1.7-4.75C827.44,156.08,827.23,155,826.11,155.58Z" fill="#142b38"/>
      <path d="M832.25,155.58a10.58,10.58,0,0,0-.25,3.12c0,4-.9,6.61-3,8.68-.65.62-.79.93-.54,1.19.54.56,1.27.24,2.24-1,1.88-2.31,2.79-5.21,2.79-9.08C833.45,155.82,833.12,155.08,832.25,155.58Z" fill="#142b38"/>
      <path d="M841,157.35a15,15,0,0,0-.47,3.16,21.22,21.22,0,0,1-.94,4.9c-.83,2.35-.83,2.35,0,2.35s1.34-1.09,1.88-3.78c.73-3.67.83-6,.26-6.43C841.37,157.35,841.08,157.25,841,157.35Z" fill="#142b38"/>
      <path d="M823.54,159.25a5.72,5.72,0,0,0-.33,1.63,2.52,2.52,0,0,1-.94,1.93c-.83.62-1,1.27-.36,1.49,1.16.38,3-2.24,2.79-4C824.59,159.22,823.9,158.62,823.54,159.25Z" fill="#142b38"/>
      <path d="M830.41,159.25a10.26,10.26,0,0,0-.36,1.75,8.45,8.45,0,0,1-2.43,4.89c-1.19,1.17-1.37,1.93-.39,1.83.79-.08,3-2.53,3.61-4.05s.76-4.49.18-4.59C830.77,159,830.48,159.1,830.41,159.25Z" fill="#142b38"/>
      <path d="M838,163.23c-.1.26-.43,1.19-.72,2.1a10.82,10.82,0,0,1-1.12,2.35c-.54.73-.4,1.27.36,1.27s2-2.34,2.57-4.93c.22-1.05.14-1.23-.36-1.23A.83.83,0,0,0,838,163.23Z" fill="#142b38"/>
      <path d="M826.76,163.8a9.65,9.65,0,0,1-1.12,1.69c-1.7,2.13-.51,2.67,1.3.6,1.3-1.51,1.59-2.74.65-2.86C827.19,163.19,826.94,163.35,826.76,163.8Z" fill="#142b38"/>
      <path d="M832.58,165.49a10.36,10.36,0,0,1-1.3,2.09c-.94,1-.94,1.57,0,1.57.54,0,.91-.34,1.63-1.45,1.23-1.89,1.73-3.08,1.48-3.32C833.77,163.86,833.12,164.26,832.58,165.49Z" fill="#142b38"/>
    </g>
  </g>
  <g id="rotateNewCircle2">
    <path d="M905.27,91.63a76,76,0,1,1-139.16,60L768,151A74.05,74.05,0,1,0,903.54,92.54Z" fill="#fafafa"/>
    <circle cx="837.5" cy="127.39" r="81.55" fill="none"/>
  </g>
  <path d="M838,52h0a75,75,0,0,1,75,75h0a75,75,0,0,1-75,75h0a75,75,0,0,1-75-75h0A75,75,0,0,1,838,52Z" fill="none" stroke="#fafafa" stroke-opacity="0.4" stroke-width="2"/>
  <g>
    <path id="dot3" d="M764,215h0a6,6,0,0,1,6,6h0a6,6,0,0,1-6,6h0a6,6,0,0,1-6-6h0A6,6,0,0,1,764,215Z" fill="#fafafa"/>
    <path id="dot2" d="M780,215h0a6,6,0,0,1,6,6h0a6,6,0,0,1-6,6h0a6,6,0,0,1-6-6h0A6,6,0,0,1,780,215Z" fill="#fafafa"/>
    <path id="dot1" d="M796,215h0a6,6,0,0,1,6,6h0a6,6,0,0,1-6,6h0a6,6,0,0,1-6-6h0A6,6,0,0,1,796,215Z" fill="#fafafa"/>
  </g>
  <path d="M17.68,9.34a2.48,2.48,0,0,1-1,.63,4.23,4.23,0,0,1-1.31.22V8.51A2.45,2.45,0,0,0,17.68,6.8h2.05V18H17.68Zm5.12,8.82a1.26,1.26,0,0,1-1.27-1.25A1.22,1.22,0,0,1,21.9,16a1.21,1.21,0,0,1,.9-.37,1.19,1.19,0,0,1,.89.37,1.2,1.2,0,0,1,0,1.77A1.19,1.19,0,0,1,22.8,18.16Zm13.14,0a5.68,5.68,0,0,1-2.84-.67,4.65,4.65,0,0,1-1.83-2,7.17,7.17,0,0,1-.62-3.1,6.93,6.93,0,0,1,.65-3.11,4.62,4.62,0,0,1,1.84-2,5.43,5.43,0,0,1,2.74-.68,4.89,4.89,0,0,1,3,.89,3.93,3.93,0,0,1,1.54,2.61h-2.1a2.1,2.1,0,0,0-.93-1.28,2.8,2.8,0,0,0-1.52-.4,2.66,2.66,0,0,0-2.27,1.06,4.67,4.67,0,0,0-.78,2.84,4.82,4.82,0,0,0,.78,2.88,2.68,2.68,0,0,0,2.29,1.08,2.8,2.8,0,0,0,1.92-.66,2.57,2.57,0,0,0,.77-2H36.23V12h4.43v.87a5.79,5.79,0,0,1-1.21,4A4.47,4.47,0,0,1,35.94,18.16ZM49.8,13.82a3,3,0,0,1,0,.55h-6a2.68,2.68,0,0,0,.67,1.74,2.35,2.35,0,0,0,1.64.55,2,2,0,0,0,1.16-.31,1.75,1.75,0,0,0,.64-.93h1.83a3.38,3.38,0,0,1-1.33,2.08,4.08,4.08,0,0,1-2.43.71,4.69,4.69,0,0,1-2.07-.45,3.49,3.49,0,0,1-1.48-1.42,4.86,4.86,0,0,1-.56-2.47,5,5,0,0,1,.54-2.46A3.43,3.43,0,0,1,43.83,10a4.56,4.56,0,0,1,2.07-.46,3.8,3.8,0,0,1,2.81,1.06A4.3,4.3,0,0,1,49.8,13.82Zm-1.94-.59a2.46,2.46,0,0,0-.52-1.57,1.88,1.88,0,0,0-1.48-.57,2,2,0,0,0-1.47.54,2.56,2.56,0,0,0-.64,1.6Zm8.08-3.71a2.77,2.77,0,0,1,2.09.82,3.3,3.3,0,0,1,.8,2.43V18h-2V13.25a2.3,2.3,0,0,0-.44-1.52,1.55,1.55,0,0,0-1.26-.51,1.9,1.9,0,0,0-1.41.52,2,2,0,0,0-.53,1.51V18h-2V9.68h2v1.71h.07a2.29,2.29,0,0,1,.41-.85,2.75,2.75,0,0,1,.9-.72A3.06,3.06,0,0,1,55.94,9.52Zm12.2,4.3a3,3,0,0,1,0,.55h-6a2.58,2.58,0,0,0,.67,1.74,2.33,2.33,0,0,0,1.63.55,2,2,0,0,0,1.17-.31,1.75,1.75,0,0,0,.64-.93H68A3.3,3.3,0,0,1,66.7,17.5a4.08,4.08,0,0,1-2.43.71,4.65,4.65,0,0,1-2.06-.45,3.51,3.51,0,0,1-1.49-1.42,5,5,0,0,1-.56-2.47,5,5,0,0,1,.54-2.46A3.51,3.51,0,0,1,62.18,10a4.49,4.49,0,0,1,2.06-.46,3.84,3.84,0,0,1,2.82,1.06A4.34,4.34,0,0,1,68.14,13.82Zm-1.93-.59a2.47,2.47,0,0,0-.53-1.57,1.84,1.84,0,0,0-1.47-.57,2,2,0,0,0-1.47.54,2.45,2.45,0,0,0-.64,1.6ZM74,9.62a2.16,2.16,0,0,1,.64.08v1.72a5.33,5.33,0,0,0-.64,0,2.51,2.51,0,0,0-1.81.68,2.74,2.74,0,0,0-.7,2.07V18h-2V9.68h2v2h0a2.91,2.91,0,0,1,.84-1.47A2.32,2.32,0,0,1,74,9.62Zm5-.1a4.1,4.1,0,0,1,2.62.67,2.52,2.52,0,0,1,.82,2.07V18h-2V16.53h-.08a1.73,1.73,0,0,1-.38.67,2.54,2.54,0,0,1-.93.67,3.38,3.38,0,0,1-1.45.29,3.18,3.18,0,0,1-1.91-.56A2,2,0,0,1,75,15.87a1.85,1.85,0,0,1,.77-1.66,5,5,0,0,1,2.08-.69l1.63-.22a1.57,1.57,0,0,0,.76-.23.74.74,0,0,0,.19-.54v-.18a1.18,1.18,0,0,0-.39-1A1.72,1.72,0,0,0,79,11c-1,0-1.54.39-1.54,1.18v.1l-1.94,0V12Q75.48,9.52,79,9.52Zm1.39,4.58a.47.47,0,0,1-.27.19,5.91,5.91,0,0,1-.63.13l-1.18.16a2.37,2.37,0,0,0-1,.35.82.82,0,0,0-.32.69.92.92,0,0,0,.34.75,1.57,1.57,0,0,0,1,.29,2.32,2.32,0,0,0,1.1-.24,1.89,1.89,0,0,0,.69-.61,1.22,1.22,0,0,0,.24-.67Zm8.14,2.36v1.6a9.23,9.23,0,0,1-1.2.05,2.84,2.84,0,0,1-1.9-.59,2.33,2.33,0,0,1-.67-1.86v-4.4H83.41V9.68H84.8V7.55h2V9.68h1.63v1.58H86.85v4.08a1.29,1.29,0,0,0,.24.85,1,1,0,0,0,.8.27Zm8.75-2.64a3,3,0,0,1,0,.55h-6a2.63,2.63,0,0,0,.67,1.74,2.33,2.33,0,0,0,1.63.55,2,2,0,0,0,1.17-.31,1.75,1.75,0,0,0,.64-.93H97.2a3.33,3.33,0,0,1-1.32,2.08,4.14,4.14,0,0,1-2.44.71,4.68,4.68,0,0,1-2.06-.45,3.51,3.51,0,0,1-1.49-1.42,5,5,0,0,1-.56-2.47,4.92,4.92,0,0,1,.55-2.46A3.43,3.43,0,0,1,91.35,10a4.52,4.52,0,0,1,2.06-.46,3.84,3.84,0,0,1,2.82,1.06A4.34,4.34,0,0,1,97.32,13.82Zm-1.94-.59a2.47,2.47,0,0,0-.53-1.57,1.84,1.84,0,0,0-1.47-.57,2,2,0,0,0-1.47.54,2.45,2.45,0,0,0-.64,1.6ZM109.65,18,106,13.33l-1.59,1.84V18h-2.09V6.8h2.09v5.54l4.77-5.54h2.48l-4.36,5L112.08,18ZM120,13.82a3,3,0,0,1,0,.55h-6a2.63,2.63,0,0,0,.67,1.74,2.34,2.34,0,0,0,1.63.55,2,2,0,0,0,1.17-.31,1.75,1.75,0,0,0,.64-.93h1.83a3.38,3.38,0,0,1-1.33,2.08,4.08,4.08,0,0,1-2.43.71,4.69,4.69,0,0,1-2.07-.45,3.57,3.57,0,0,1-1.49-1.42,5,5,0,0,1-.56-2.47,5,5,0,0,1,.55-2.46A3.43,3.43,0,0,1,114.05,10a4.55,4.55,0,0,1,2.06-.46,3.81,3.81,0,0,1,2.82,1.06A4.3,4.3,0,0,1,120,13.82Zm-1.94-.59a2.41,2.41,0,0,0-.53-1.57,1.84,1.84,0,0,0-1.47-.57,2,2,0,0,0-1.47.54,2.5,2.5,0,0,0-.64,1.6Zm3,6.19a3.45,3.45,0,0,0,.6,0,1.75,1.75,0,0,0,1.08-.27,1.61,1.61,0,0,0,.56-.74,1.21,1.21,0,0,0,.13-.56,1.27,1.27,0,0,0-.13-.56L120.2,9.68h2.1l2.13,5.76,2.14-5.76h2.11l-3.45,8.54a6.21,6.21,0,0,1-1.44,2.31,3,3,0,0,1-2.05.69,5.92,5.92,0,0,1-.71,0Z" fill="#fafafa"/>
  <g>
    <path id="dot4" d="M263,27h0a6,6,0,0,1,6,6h0a6,6,0,0,1-6,6h0a6,6,0,0,1-6-6h0A6,6,0,0,1,263,27Z" fill="#fafafa"/>
    <path id="dot5" d="M279,27h0a6,6,0,0,1,6,6h0a6,6,0,0,1-6,6h0a6,6,0,0,1-6-6h0A6,6,0,0,1,279,27Z" fill="#fafafa"/>
    <path id="dot6" d="M295,27h0a6,6,0,0,1,6,6h0a6,6,0,0,1-6,6h0a6,6,0,0,1-6-6h0A6,6,0,0,1,295,27Z" fill="#fafafa"/>
  </g>
  <path d="M47.44,179.49a5.7,5.7,0,0,1,.27-1.84,4.49,4.49,0,0,1,.93-1.51,7.72,7.72,0,0,1,1.81-1.39l.45-.27c.54-.31,1-.57,1.25-.77a2.74,2.74,0,0,0,.72-.72,1.68,1.68,0,0,0,.28-1,1.37,1.37,0,0,0-.49-1.22,2,2,0,0,0-1.27-.4,1.72,1.72,0,0,0-1.82,1.92v.22h-2v-.32a3.54,3.54,0,0,1,1-2.57,3.84,3.84,0,0,1,2.86-1,4.06,4.06,0,0,1,2.8.89,3,3,0,0,1,1,2.34,3,3,0,0,1-.45,1.69,4,4,0,0,1-1,1.14,18.16,18.16,0,0,1-1.6,1A8.76,8.76,0,0,0,50.32,177a1.69,1.69,0,0,0-.54,1.18v.08h5.41V180H47.44Zm10.36.67a1.22,1.22,0,0,1-.9-.37,1.27,1.27,0,0,1,0-1.77,1.28,1.28,0,0,1,1.8,0,1.22,1.22,0,0,1,0,1.77A1.22,1.22,0,0,1,57.8,180.16Zm8.09-11.36h7.5v1.84H68v2.85h4.92v1.65H68v3h5.56V180H65.89Zm13.8,2.72a2.79,2.79,0,0,1,2.1.82,3.34,3.34,0,0,1,.8,2.43V180h-2v-4.75a2.3,2.3,0,0,0-.43-1.52,1.57,1.57,0,0,0-1.27-.51,1.89,1.89,0,0,0-1.4.52,2,2,0,0,0-.53,1.51V180h-2v-8.32h2v1.71H77a2.4,2.4,0,0,1,.42-.85,2.61,2.61,0,0,1,.89-.72A3.12,3.12,0,0,1,79.69,171.52ZM88,180.16a4.67,4.67,0,0,1-2-.45,3.58,3.58,0,0,1-1.52-1.42,4.65,4.65,0,0,1-.58-2.43,4.7,4.7,0,0,1,.58-2.45A3.48,3.48,0,0,1,86,172a4.68,4.68,0,0,1,2-.46,4.17,4.17,0,0,1,2.45.74,3.32,3.32,0,0,1,1.29,2.54H90a1.78,1.78,0,0,0-.66-1.18,2,2,0,0,0-1.28-.39,2,2,0,0,0-1.61.71,3.43,3.43,0,0,0,0,3.82,2,2,0,0,0,1.61.69,2,2,0,0,0,1.28-.39,1.82,1.82,0,0,0,.66-1.2h1.82a3.26,3.26,0,0,1-1.26,2.56A4.31,4.31,0,0,1,88,180.16Zm9.64-8.54a2.12,2.12,0,0,1,.64.08v1.72a5.1,5.1,0,0,0-.64,0,2.46,2.46,0,0,0-1.8.68,2.75,2.75,0,0,0-.71,2.07V180h-2v-8.32h2v2h0a2.86,2.86,0,0,1,.85-1.47A2.28,2.28,0,0,1,97.68,171.62Zm2.08,9.8a3.27,3.27,0,0,0,.59.05,1.8,1.8,0,0,0,1.09-.27,1.76,1.76,0,0,0,.56-.74,1.34,1.34,0,0,0,.12-.56,1.38,1.38,0,0,0-.12-.56l-3.08-7.66H101l2.13,5.76,2.14-5.76h2.11L104,180.22a6.21,6.21,0,0,1-1.44,2.31,3,3,0,0,1-2.05.69,5.76,5.76,0,0,1-.7-.05Zm13.43-9.9A3.65,3.65,0,0,1,115,172a3.34,3.34,0,0,1,1.36,1.44,5.79,5.79,0,0,1,0,4.84A3.34,3.34,0,0,1,115,179.7a3.54,3.54,0,0,1-1.77.46,3.28,3.28,0,0,1-1.59-.37,2.25,2.25,0,0,1-1-1V183h-2V171.68h2v1.2a2.28,2.28,0,0,1,1-1A3.28,3.28,0,0,1,113.19,171.52Zm-.48,6.93a2.09,2.09,0,0,0,1.56-.67,3.18,3.18,0,0,0,0-3.88,2.15,2.15,0,0,0-3.12,0,3.26,3.26,0,0,0,0,3.88A2.11,2.11,0,0,0,112.71,178.45Zm9.8,0v1.6a9.23,9.23,0,0,1-1.2.05,2.84,2.84,0,0,1-1.9-.59,2.35,2.35,0,0,1-.67-1.86v-4.4h-1.39v-1.58h1.39v-2.13h2.05v2.13h1.63v1.58h-1.63v4.08a1.29,1.29,0,0,0,.24.85,1,1,0,0,0,.8.27Zm8.75-2.64a3,3,0,0,1,0,.55h-6a2.63,2.63,0,0,0,.67,1.74,2.28,2.28,0,0,0,1.63.55,2,2,0,0,0,1.17-.31,1.75,1.75,0,0,0,.64-.93h1.82a3.3,3.3,0,0,1-1.32,2.08,4.14,4.14,0,0,1-2.44.71,4.68,4.68,0,0,1-2.06-.45,3.57,3.57,0,0,1-1.49-1.42,5,5,0,0,1-.56-2.47,4.92,4.92,0,0,1,.55-2.46,3.43,3.43,0,0,1,1.47-1.43,4.65,4.65,0,0,1,2.06-.46,3.84,3.84,0,0,1,2.82,1.06A4.34,4.34,0,0,1,131.26,175.82Zm-1.94-.59a2.47,2.47,0,0,0-.53-1.57,1.84,1.84,0,0,0-1.47-.57,2,2,0,0,0-1.47.54,2.5,2.5,0,0,0-.64,1.6Zm11.21-6.43V180h-2.05v-1.22a2.34,2.34,0,0,1-1,1,3.17,3.17,0,0,1-1.57.37,3.67,3.67,0,0,1-1.79-.46,3.52,3.52,0,0,1-1.36-1.44,6,6,0,0,1,0-4.84,3.52,3.52,0,0,1,1.36-1.44,3.78,3.78,0,0,1,1.79-.46,3.17,3.17,0,0,1,1.57.38,2.32,2.32,0,0,1,1,1v-4.1Zm-4.16,9.65a2.12,2.12,0,0,0,1.57-.67,3.26,3.26,0,0,0,0-3.88,2.17,2.17,0,0,0-3.14,0,3.26,3.26,0,0,0,0,3.88A2.12,2.12,0,0,0,136.37,178.45Zm-18.1,16.35h2.09V206h-2.09Zm8.64,2.72a2.81,2.81,0,0,1,2.1.82,3.34,3.34,0,0,1,.8,2.43V206h-2v-4.75a2.35,2.35,0,0,0-.43-1.52,1.57,1.57,0,0,0-1.27-.51,1.92,1.92,0,0,0-1.41.52,2,2,0,0,0-.52,1.51V206h-2v-8.32h2v1.71h.06a2.24,2.24,0,0,1,.42-.85,2.61,2.61,0,0,1,.89-.72A3.12,3.12,0,0,1,126.91,197.52Zm9.24,0a3.66,3.66,0,0,1,1.78.46,3.34,3.34,0,0,1,1.36,1.44,5.79,5.79,0,0,1,0,4.84,3.34,3.34,0,0,1-1.36,1.44,3.55,3.55,0,0,1-1.78.46,3.26,3.26,0,0,1-1.58-.37,2.25,2.25,0,0,1-1-1V209h-2.05V197.68h2.05v1.2a2.28,2.28,0,0,1,1-1A3.27,3.27,0,0,1,136.15,197.52Zm-.47,6.93a2.09,2.09,0,0,0,1.56-.67,3.18,3.18,0,0,0,0-3.88,2.15,2.15,0,0,0-3.12,0,3.26,3.26,0,0,0,0,3.88A2.11,2.11,0,0,0,135.68,204.45Zm13.2-6.77V206h-2v-1.71h-.08a2.49,2.49,0,0,1-.42.85,2.62,2.62,0,0,1-.91.73,3.13,3.13,0,0,1-1.39.29,2.83,2.83,0,0,1-2.1-.82,3.34,3.34,0,0,1-.8-2.43v-5.23h2.05v4.75c0,1.36.57,2,1.71,2a1.9,1.9,0,0,0,1.39-.51,2,2,0,0,0,.55-1.52v-4.75Zm6.32,6.78v1.6a9.42,9.42,0,0,1-1.2.05,2.84,2.84,0,0,1-1.9-.59,2.35,2.35,0,0,1-.67-1.86v-4.4H150v-1.58h1.4v-2.13h2v2.13h1.64v1.58h-1.64v4.08a1.29,1.29,0,0,0,.24.85,1,1,0,0,0,.8.27Zm4.29,1.7a4.26,4.26,0,0,1-2.59-.7,2.49,2.49,0,0,1-.94-2.08h1.82c.11.83.69,1.24,1.74,1.24a2,2,0,0,0,1.09-.25.84.84,0,0,0,.42-.77.67.67,0,0,0-.24-.56,1.7,1.7,0,0,0-.74-.34l-1.53-.33c-1.55-.35-2.32-1.15-2.32-2.39a2.09,2.09,0,0,1,.89-1.8,4,4,0,0,1,2.42-.66,3.63,3.63,0,0,1,2.43.72,2.61,2.61,0,0,1,.88,2h-1.7c-.09-.82-.61-1.23-1.55-1.23a2,2,0,0,0-1,.24.75.75,0,0,0-.38.65.8.8,0,0,0,.25.59,1.71,1.71,0,0,0,.77.32l1.59.36a3.86,3.86,0,0,1,1.74.8,1.85,1.85,0,0,1,.64,1.53,2.18,2.18,0,0,1-1,2A4.81,4.81,0,0,1,159.49,206.16Z" fill="#fafafa"/>
  <path d="M920.17,59.8h7.51v1.84h-5.41v2.85h4.93v1.65h-4.93v3h5.57V71h-7.67ZM934,62.52a2.78,2.78,0,0,1,2.1.82,3.34,3.34,0,0,1,.8,2.43V71h-2V66.25a2.3,2.3,0,0,0-.43-1.52,1.57,1.57,0,0,0-1.27-.51,1.89,1.89,0,0,0-1.4.52,2,2,0,0,0-.53,1.51V71h-2.05V62.68h2.05v1.71h.06a2.49,2.49,0,0,1,.42-.85,2.56,2.56,0,0,1,.9-.72A3,3,0,0,1,934,62.52Zm8.35,8.64a4.67,4.67,0,0,1-2-.45,3.58,3.58,0,0,1-1.52-1.42,5.42,5.42,0,0,1,0-4.88A3.48,3.48,0,0,1,940.29,63a4.54,4.54,0,0,1,2-.46,4.24,4.24,0,0,1,2.45.74,3.34,3.34,0,0,1,1.3,2.54h-1.83a1.77,1.77,0,0,0-.65-1.18,2.07,2.07,0,0,0-1.28-.39,2,2,0,0,0-1.62.71,3,3,0,0,0-.58,1.92,2.93,2.93,0,0,0,.58,1.9,2,2,0,0,0,1.62.69,2.07,2.07,0,0,0,1.28-.39,1.82,1.82,0,0,0,.65-1.2h1.83a3.29,3.29,0,0,1-1.27,2.56A4.31,4.31,0,0,1,942.32,71.16ZM952,62.62a2.2,2.2,0,0,1,.64.08v1.72a5.33,5.33,0,0,0-.64,0,2.51,2.51,0,0,0-1.81.68,2.74,2.74,0,0,0-.7,2.07V71h-2.05V62.68h2.05v2h0a2.86,2.86,0,0,1,.85-1.47A2.31,2.31,0,0,1,952,62.62Zm2.07,9.8a3.27,3.27,0,0,0,.59,0,1.8,1.8,0,0,0,1.09-.27,1.76,1.76,0,0,0,.56-.74,1.35,1.35,0,0,0,.13-.56,1.43,1.43,0,0,0-.13-.56l-3.07-7.66h2.09l2.13,5.76,2.14-5.76h2.12l-3.46,8.54a6.21,6.21,0,0,1-1.44,2.31,3,3,0,0,1-2,.69,5.76,5.76,0,0,1-.7,0Zm13.43-9.9a3.54,3.54,0,0,1,1.77.46,3.34,3.34,0,0,1,1.36,1.44,5.79,5.79,0,0,1,0,4.84,3.34,3.34,0,0,1-1.36,1.44,3.54,3.54,0,0,1-1.77.46,3.28,3.28,0,0,1-1.59-.37,2.25,2.25,0,0,1-1-1V74h-2V62.68h2v1.2a2.23,2.23,0,0,1,1-1A3.28,3.28,0,0,1,967.47,62.52ZM967,69.45a2.12,2.12,0,0,0,1.57-.67,3.22,3.22,0,0,0,0-3.88,2.12,2.12,0,0,0-1.57-.67,2.07,2.07,0,0,0-1.55.67,3.26,3.26,0,0,0,0,3.88A2.07,2.07,0,0,0,967,69.45Zm9.81,0v1.6a9.42,9.42,0,0,1-1.2,0,2.85,2.85,0,0,1-1.91-.59,2.33,2.33,0,0,1-.67-1.86v-4.4h-1.39V62.68H973V60.55h2.05v2.13h1.63v1.58h-1.63v4.08a1.29,1.29,0,0,0,.24.85,1,1,0,0,0,.8.27Zm8.74-2.64a3,3,0,0,1,0,.55h-6a2.63,2.63,0,0,0,.67,1.74,2.34,2.34,0,0,0,1.63.55,2,2,0,0,0,1.17-.31,1.75,1.75,0,0,0,.64-.93h1.83a3.38,3.38,0,0,1-1.33,2.08,4.08,4.08,0,0,1-2.43.71,4.69,4.69,0,0,1-2.07-.45,3.57,3.57,0,0,1-1.49-1.42,5.75,5.75,0,0,1,0-4.93A3.43,3.43,0,0,1,979.57,63a4.55,4.55,0,0,1,2.06-.46,3.82,3.82,0,0,1,2.82,1.06A4.34,4.34,0,0,1,985.54,66.82Zm-1.94-.59a2.47,2.47,0,0,0-.53-1.57,1.84,1.84,0,0,0-1.47-.57,2,2,0,0,0-1.47.54,2.5,2.5,0,0,0-.64,1.6Zm11.21-6.43V71h-2V69.78a2.34,2.34,0,0,1-1,1,3.13,3.13,0,0,1-1.56.37,3.71,3.71,0,0,1-1.8-.46A3.58,3.58,0,0,1,987,69.26a6,6,0,0,1,0-4.84A3.58,3.58,0,0,1,988.39,63a3.71,3.71,0,0,1,1.8-.46,3.13,3.13,0,0,1,1.56.38,2.32,2.32,0,0,1,1,1V59.8Zm-4.16,9.65a2.12,2.12,0,0,0,1.57-.67,3.26,3.26,0,0,0,0-3.88,2.17,2.17,0,0,0-3.14,0,3.26,3.26,0,0,0,0,3.88A2.12,2.12,0,0,0,990.65,69.45Z" fill="#fafafa"/>
  <path d="M940.41,85.8h2.09V97h-2.09Zm8.64,2.72a2.79,2.79,0,0,1,2.1.82,3.34,3.34,0,0,1,.8,2.43V97H949.9V92.25a2.3,2.3,0,0,0-.43-1.52,1.57,1.57,0,0,0-1.27-.51,1.89,1.89,0,0,0-1.4.52,2,2,0,0,0-.53,1.51V97h-2V88.68h2v1.71h.06a2.32,2.32,0,0,1,.42-.85,2.61,2.61,0,0,1,.89-.72A3.12,3.12,0,0,1,949.05,88.52Zm9.25,0a3.54,3.54,0,0,1,1.77.46,3.34,3.34,0,0,1,1.36,1.44,5.79,5.79,0,0,1,0,4.84,3.34,3.34,0,0,1-1.36,1.44,3.54,3.54,0,0,1-1.77.46,3.28,3.28,0,0,1-1.59-.37,2.31,2.31,0,0,1-1-1V100h-2.05V88.68h2.05v1.2a2.29,2.29,0,0,1,1-1A3.28,3.28,0,0,1,958.3,88.52Zm-.48,6.93a2.12,2.12,0,0,0,1.57-.67,3.22,3.22,0,0,0,0-3.88,2.12,2.12,0,0,0-1.57-.67,2.07,2.07,0,0,0-1.55.67,3.26,3.26,0,0,0,0,3.88A2.07,2.07,0,0,0,957.82,95.45ZM971,88.68V97h-2V95.29h-.08a2.17,2.17,0,0,1-.42.85,2.53,2.53,0,0,1-.91.73,3.1,3.1,0,0,1-1.39.29,2.84,2.84,0,0,1-2.1-.82,3.34,3.34,0,0,1-.8-2.43V88.68h2.05v4.75c0,1.36.57,2,1.71,2a1.9,1.9,0,0,0,1.39-.51,2,2,0,0,0,.55-1.52V88.68Zm6.31,6.78v1.6a9.23,9.23,0,0,1-1.2,0,2.84,2.84,0,0,1-1.9-.59,2.33,2.33,0,0,1-.67-1.86v-4.4h-1.39V88.68h1.39V86.55h2v2.13h1.63v1.58h-1.63v4.08a1.29,1.29,0,0,0,.24.85,1,1,0,0,0,.8.27Zm4.3,1.7a4.27,4.27,0,0,1-2.6-.7,2.49,2.49,0,0,1-.94-2.08h1.82c.11.83.69,1.24,1.75,1.24a2,2,0,0,0,1.09-.25.86.86,0,0,0,.41-.77.67.67,0,0,0-.24-.56,1.71,1.71,0,0,0-.73-.34l-1.54-.33c-1.55-.35-2.32-1.15-2.32-2.39a2.08,2.08,0,0,1,.9-1.8,4,4,0,0,1,2.41-.66,3.63,3.63,0,0,1,2.43.72,2.61,2.61,0,0,1,.88,2.05h-1.69c-.1-.82-.62-1.23-1.55-1.23a1.93,1.93,0,0,0-1,.24.73.73,0,0,0-.39.65.77.77,0,0,0,.26.59,1.61,1.61,0,0,0,.77.32l1.58.36a3.81,3.81,0,0,1,1.74.8,1.85,1.85,0,0,1,.64,1.53,2.16,2.16,0,0,1-1,2A4.79,4.79,0,0,1,981.64,97.16Z" fill="#fafafa"/>
  <path d="M894.88,42.28h-5V40.63l5-6.83h2v6.83h1.28v1.65h-1.28V45h-2Zm0-1.65V36.28l-3.16,4.35Zm5.74,4.53a1.26,1.26,0,1,1,.9-2.14,1.22,1.22,0,0,1,0,1.77A1.22,1.22,0,0,1,900.62,45.16ZM913.11,33.8a4.41,4.41,0,0,1,3.14,1,3.46,3.46,0,0,1,1,2.67,3.53,3.53,0,0,1-1,2.68,4.46,4.46,0,0,1-3.14,1h-2.3V45h-2.1V33.8ZM913,39.27a2.28,2.28,0,0,0,1.57-.46,1.74,1.74,0,0,0,.53-1.35,1.7,1.7,0,0,0-.53-1.34,2.23,2.23,0,0,0-1.57-.48h-2.22v3.63Zm10.15-2.65a2.2,2.2,0,0,1,.64.08v1.72a5.33,5.33,0,0,0-.64,0,2.51,2.51,0,0,0-1.81.68,2.75,2.75,0,0,0-.71,2.07V45h-2V36.68h2v2h.05a2.86,2.86,0,0,1,.85-1.47A2.32,2.32,0,0,1,923.18,36.62Zm5.29,8.54a4.57,4.57,0,0,1-2.05-.46,3.7,3.7,0,0,1-1.5-1.44,4.64,4.64,0,0,1-.58-2.42,4.54,4.54,0,0,1,.58-2.4,3.58,3.58,0,0,1,1.5-1.44,4.57,4.57,0,0,1,4.08,0A3.57,3.57,0,0,1,932,38.44a4.54,4.54,0,0,1,.58,2.4,4.64,4.64,0,0,1-.58,2.42,3.69,3.69,0,0,1-1.52,1.44A4.54,4.54,0,0,1,928.47,45.16Zm0-1.71a2,2,0,0,0,1.57-.66,3.38,3.38,0,0,0,0-3.9,2,2,0,0,0-1.57-.66,2.1,2.1,0,0,0-1.6.66,2.76,2.76,0,0,0-.61,2,2.76,2.76,0,0,0,.61,1.95A2.1,2.1,0,0,0,928.47,43.45Zm9.25,1.71a4.64,4.64,0,0,1-2-.45,3.58,3.58,0,0,1-1.52-1.42,5.42,5.42,0,0,1,0-4.88A3.48,3.48,0,0,1,935.69,37a4.51,4.51,0,0,1,2-.46,4.24,4.24,0,0,1,2.45.74,3.34,3.34,0,0,1,1.29,2.54h-1.82a1.82,1.82,0,0,0-.66-1.18,2,2,0,0,0-1.28-.39,2,2,0,0,0-1.61.71,2.91,2.91,0,0,0-.58,1.92,2.88,2.88,0,0,0,.58,1.9,2,2,0,0,0,1.61.69,2,2,0,0,0,1.28-.39,1.87,1.87,0,0,0,.66-1.2h1.82a3.29,3.29,0,0,1-1.26,2.56A4.34,4.34,0,0,1,937.72,45.16Zm12.59-4.34a3,3,0,0,1,0,.55h-6a2.68,2.68,0,0,0,.67,1.74,2.35,2.35,0,0,0,1.64.55,2,2,0,0,0,1.16-.31,1.75,1.75,0,0,0,.64-.93h1.83a3.38,3.38,0,0,1-1.33,2.08,4.08,4.08,0,0,1-2.43.71,4.69,4.69,0,0,1-2.07-.45,3.54,3.54,0,0,1-1.48-1.42,4.86,4.86,0,0,1-.56-2.47,5,5,0,0,1,.54-2.46A3.43,3.43,0,0,1,944.34,37a4.56,4.56,0,0,1,2.07-.46,3.8,3.8,0,0,1,2.81,1.06A4.3,4.3,0,0,1,950.31,40.82Zm-1.94-.59a2.46,2.46,0,0,0-.52-1.57,1.86,1.86,0,0,0-1.48-.57,2,2,0,0,0-1.47.54,2.56,2.56,0,0,0-.64,1.6Zm6.3,4.93a4.24,4.24,0,0,1-2.59-.7,2.49,2.49,0,0,1-.94-2.08H953c.11.83.69,1.24,1.74,1.24a2,2,0,0,0,1.09-.25.84.84,0,0,0,.42-.77A.67.67,0,0,0,956,42a1.76,1.76,0,0,0-.74-.34l-1.53-.33c-1.55-.35-2.32-1.15-2.32-2.39a2.07,2.07,0,0,1,.89-1.8,4,4,0,0,1,2.42-.66,3.67,3.67,0,0,1,2.43.72,2.64,2.64,0,0,1,.88,2h-1.7c-.09-.82-.61-1.23-1.55-1.23a2,2,0,0,0-1,.24.74.74,0,0,0-.38.65.76.76,0,0,0,.25.59,1.71,1.71,0,0,0,.77.32l1.59.36a3.91,3.91,0,0,1,1.74.8,1.85,1.85,0,0,1,.64,1.53,2.18,2.18,0,0,1-1,2A4.81,4.81,0,0,1,954.67,45.16Zm7.94,0a4.24,4.24,0,0,1-2.59-.7,2.5,2.5,0,0,1-.95-2.08h1.83c.1.83.69,1.24,1.74,1.24a2,2,0,0,0,1.09-.25.84.84,0,0,0,.42-.77.67.67,0,0,0-.24-.56,1.76,1.76,0,0,0-.74-.34l-1.54-.33c-1.54-.35-2.32-1.15-2.32-2.39a2.08,2.08,0,0,1,.9-1.8,4,4,0,0,1,2.42-.66,3.67,3.67,0,0,1,2.43.72,2.64,2.64,0,0,1,.88,2h-1.7c-.09-.82-.61-1.23-1.55-1.23a2,2,0,0,0-1,.24.72.72,0,0,0-.38.65.76.76,0,0,0,.25.59,1.66,1.66,0,0,0,.77.32l1.58.36a3.9,3.9,0,0,1,1.75.8,1.88,1.88,0,0,1,.64,1.53,2.18,2.18,0,0,1-1,2A4.83,4.83,0,0,1,962.61,45.16Z" fill="#fafafa"/>
  <path d="M585,36.16c-2.48,0-3.87-1.46-3.89-3.71h1.09a2.6,2.6,0,0,0,2.85,2.72c1.65,0,2.85-.93,2.85-2.42s-1.12-2.32-3-2.32h-.46v-.89h.4c1.78,0,2.5-.87,2.5-2s-.87-1.92-2.29-1.92a2.26,2.26,0,0,0-2.45,2.56H581.5a3.23,3.23,0,0,1,3.57-3.55c2.14,0,3.38,1.18,3.38,2.78a2.44,2.44,0,0,1-1.89,2.46,2.89,2.89,0,0,1,2.51,2.92C589.07,34.78,587.44,36.16,585,36.16Zm6.1,0a.83.83,0,1,1,.85-.83A.84.84,0,0,1,591.12,36.16Zm11.82,0c-2.73,0-4.25-1.41-4.25-3.36h1.18c.08,1.41,1.11,2.35,3.09,2.35s2.85-.85,2.85-2.19-.83-1.82-2.31-2.13l-1.45-.29c-2-.4-3-1.37-3-2.92,0-1.8,1.36-3,3.78-3s3.89,1.18,3.89,2.91h-1.17c-.06-1.11-1-1.91-2.72-1.91s-2.56.82-2.56,2,.7,1.71,2.13,2l1.42.28c2.11.44,3.23,1.28,3.23,3C607,35,605.5,36.16,602.94,36.16Zm12.84-4.56a2.35,2.35,0,0,1,0,.58h-6.38c.08,2,1.09,3.08,2.88,3.08a2.29,2.29,0,0,0,2.4-1.53h1a3.31,3.31,0,0,1-3.49,2.45c-2.38,0-3.93-1.49-3.93-4.31s1.69-4.35,3.85-4.35S615.78,29,615.78,31.6Zm-6.41-.26h5.33c0-1.87-1-2.91-2.61-2.91S609.45,29.44,609.37,31.34Zm11.93-3.82c1.8,0,3,1,3,3.36V36h-1.14V31.1c0-1.74-.75-2.6-2.24-2.6a2.39,2.39,0,0,0-2.54,2.6V36h-1.14V27.68h1.14v1.55A3,3,0,0,1,621.3,27.52Zm11.22-2.72h1.13V36h-1.13V34.59a3.4,3.4,0,0,1-3,1.57c-2,0-3.76-1.44-3.76-4.32s1.74-4.32,3.76-4.32a3.4,3.4,0,0,1,3,1.57ZM629.7,35.2c1.52,0,2.88-1.15,2.88-3.36s-1.36-3.36-2.88-3.36-2.86,1.15-2.86,3.36S628.18,35.2,629.7,35.2Zm9.51.8V24.8h7.06v1h-5.88v3.92h5.39v1h-5.39V35h6v1ZM652,27.52c1.79,0,3,1,3,3.36V36H653.8V31.1c0-1.74-.75-2.6-2.24-2.6A2.39,2.39,0,0,0,649,31.1V36h-1.14V27.68H649v1.55A3,3,0,0,1,652,27.52Zm8.44,8.64c-2.21,0-4-1.46-4-4.3s1.79-4.34,4-4.34a3.9,3.9,0,0,1,2.3.69,3.08,3.08,0,0,1,1.2,2.25h-1a2.33,2.33,0,0,0-2.5-2c-1.71,0-2.88,1.2-2.88,3.38s1.17,3.34,2.88,3.34a2.33,2.33,0,0,0,2.5-2h1a3.12,3.12,0,0,1-1.18,2.28A4,4,0,0,1,660.39,36.16Zm8.74-8.54a1.94,1.94,0,0,1,.62.08v1a2.82,2.82,0,0,0-.59-.05,2.61,2.61,0,0,0-2.72,2.91V36H665.3V27.68h1.14v1.84h0A2.6,2.6,0,0,1,669.13,27.62Zm2.23,11.44v-1l.44,0a1.85,1.85,0,0,0,1.8-1.38,2.11,2.11,0,0,0,.14-.66,1.46,1.46,0,0,0-.08-.41l-3.17-8h1.19l2.68,7,2.68-7h1.18l-3.62,9.09c-.65,1.6-1.5,2.32-2.73,2.32C671.65,39.09,671.47,39.07,671.36,39.06Zm12.31-11.54c2,0,3.76,1.44,3.76,4.32s-1.73,4.32-3.76,4.32a3.37,3.37,0,0,1-3-1.58V39h-1.14V27.68h1.14V29.1A3.37,3.37,0,0,1,683.67,27.52Zm-.18,7.68c1.52,0,2.86-1.15,2.86-3.36s-1.34-3.36-2.86-3.36-2.88,1.15-2.88,3.36S682,35.2,683.49,35.2Zm8.39,0h.53v.89a4.81,4.81,0,0,1-.85,0c-1.38,0-2.07-.65-2.07-2V28.59h-1.34v-.91h1.34V25.62h1.14v2.06h1.65v.91h-1.65V33.9C690.63,34.82,691,35.17,691.88,35.17Zm9-3.57a3,3,0,0,1-.05.58h-6.38c.08,2,1.09,3.08,2.88,3.08a2.29,2.29,0,0,0,2.4-1.53h1a3.32,3.32,0,0,1-3.49,2.45c-2.38,0-3.93-1.49-3.93-4.31s1.69-4.35,3.85-4.35S700.86,29,700.86,31.6Zm-6.41-.26h5.32c0-1.87-1-2.91-2.61-2.91S694.53,29.44,694.45,31.34Zm14.32-6.54h1.13V36h-1.13V34.59a3.4,3.4,0,0,1-3,1.57c-2,0-3.76-1.44-3.76-4.32s1.74-4.32,3.76-4.32a3.4,3.4,0,0,1,3,1.57ZM706,35.2c1.52,0,2.88-1.15,2.88-3.36s-1.36-3.36-2.88-3.36-2.86,1.15-2.86,3.36S704.43,35.2,706,35.2Zm9.51.8V24.8h1.18V36Zm7.11-8.48c1.79,0,3,1,3,3.36V36h-1.13V31.1c0-1.74-.76-2.6-2.24-2.6a2.39,2.39,0,0,0-2.55,2.6V36h-1.13V27.68h1.13v1.55A3,3,0,0,1,722.57,27.52Zm9,0c2,0,3.76,1.44,3.76,4.32s-1.73,4.32-3.76,4.32a3.37,3.37,0,0,1-3-1.58V39h-1.14V27.68h1.14V29.1A3.37,3.37,0,0,1,731.56,27.52Zm-.18,7.68c1.52,0,2.86-1.15,2.86-3.36s-1.34-3.36-2.86-3.36-2.88,1.15-2.88,3.36S729.86,35.2,731.38,35.2Zm11.33-7.52h1.13V36h-1.13V34.45a3,3,0,0,1-2.92,1.71c-1.79,0-3-1-3-3.36V27.68h1.13v4.9c0,1.68.72,2.6,2.24,2.6a2.39,2.39,0,0,0,2.55-2.6Zm6.17,7.49h.53v.89a4.81,4.81,0,0,1-.85,0c-1.38,0-2.07-.65-2.07-2V28.59h-1.34v-.91h1.34V25.62h1.14v2.06h1.65v.91h-1.65V33.9C747.63,34.82,748,35.17,748.88,35.17Zm4.85,1c-1.94,0-3.33-.85-3.41-2.46h1c.15,1.08,1.16,1.56,2.39,1.56s2.16-.51,2.16-1.55c0-.81-.48-1.1-1.56-1.37L752.79,32c-1.46-.37-2.18-1.07-2.18-2.18,0-1.42,1.2-2.27,3.06-2.27s3,.82,3.13,2.42h-1c-.19-1.09-.94-1.52-2.16-1.52s-2,.49-2,1.34c0,.66.45,1.09,1.47,1.34l1.55.36c1.56.38,2.34.94,2.34,2.24a2,2,0,0,1-1,1.85A4.39,4.39,0,0,1,753.73,36.16Z" fill="#fafafa"/>
  <path d="M312.13,241.16a3.5,3.5,0,0,1-3.85-3.52h1a2.59,2.59,0,0,0,2.8,2.58,2.95,2.95,0,0,0,0-5.89,2.87,2.87,0,0,0-2.48,1.26h-1.12l.91-5.79h5.65v.91h-4.85l-.64,3.92a3.45,3.45,0,0,1,2.79-1.21,3.56,3.56,0,0,1,3.66,3.85A3.66,3.66,0,0,1,312.13,241.16Zm6,0a.83.83,0,1,1,.85-.83A.84.84,0,0,1,318.12,241.16Zm11.82,0c-2.73,0-4.25-1.41-4.25-3.36h1.18c.08,1.41,1.11,2.35,3.09,2.35s2.85-.85,2.85-2.19-.83-1.82-2.31-2.13l-1.45-.29c-2-.4-3-1.37-3-2.92,0-1.8,1.36-3,3.78-3s3.89,1.18,3.89,2.91h-1.17c-.06-1.11-1-1.91-2.72-1.91s-2.56.82-2.56,2,.7,1.71,2.13,2l1.42.28c2.11.44,3.23,1.28,3.23,3C334,240,332.5,241.16,329.94,241.16Zm12.84-4.56a2.35,2.35,0,0,1,0,.58h-6.38c.08,2,1.09,3.08,2.88,3.08a2.29,2.29,0,0,0,2.4-1.53h1a3.31,3.31,0,0,1-3.49,2.45c-2.38,0-3.93-1.49-3.93-4.31s1.69-4.35,3.85-4.35S342.78,234,342.78,236.6Zm-6.41-.26h5.33c0-1.87-1-2.91-2.61-2.91S336.45,234.44,336.37,236.34Zm11.93-3.82c1.8,0,3,1,3,3.36V241h-1.14v-4.9c0-1.74-.75-2.6-2.24-2.6a2.39,2.39,0,0,0-2.54,2.6V241h-1.14v-8.32h1.14v1.55A2.94,2.94,0,0,1,348.3,232.52Zm11.22-2.72h1.13V241h-1.13v-1.41a3.4,3.4,0,0,1-3,1.57c-2,0-3.76-1.44-3.76-4.32s1.74-4.32,3.76-4.32a3.4,3.4,0,0,1,3,1.57Zm-2.82,10.4c1.52,0,2.88-1.15,2.88-3.36s-1.36-3.36-2.88-3.36-2.87,1.15-2.87,3.36S355.18,240.2,356.7,240.2Zm9.51-10.4h3.55c3.51,0,5.3,2,5.3,5.6s-1.79,5.6-5.3,5.6h-3.55ZM367.39,240h2.26c2.88,0,4.21-1.49,4.21-4.56s-1.31-4.56-4.21-4.56h-2.26Zm16.42-3.36a3.09,3.09,0,0,1,0,.58h-6.39c.08,2,1.09,3.08,2.88,3.08a2.29,2.29,0,0,0,2.4-1.53h1a3.31,3.31,0,0,1-3.49,2.45c-2.38,0-3.93-1.49-3.93-4.31s1.69-4.35,3.85-4.35S383.81,234,383.81,236.6Zm-6.41-.26h5.33c0-1.87-1-2.91-2.61-2.91S377.48,234.44,377.4,236.34ZM389,241.16c-2.21,0-4-1.46-4-4.3s1.79-4.34,4-4.34a3.9,3.9,0,0,1,2.3.69,3.08,3.08,0,0,1,1.2,2.25h-1a2.33,2.33,0,0,0-2.5-2c-1.71,0-2.88,1.2-2.88,3.38s1.17,3.34,2.88,3.34a2.33,2.33,0,0,0,2.5-2h1a3,3,0,0,1-1.18,2.28A4,4,0,0,1,389,241.16Zm8.74-8.54a1.94,1.94,0,0,1,.62.08v1a2.82,2.82,0,0,0-.59,0,2.61,2.61,0,0,0-2.72,2.91V241h-1.13v-8.32H395v1.84h0A2.61,2.61,0,0,1,397.69,232.62Zm2.23,11.44v-1l.45,0a1.84,1.84,0,0,0,1.79-1.38,1.86,1.86,0,0,0,.14-.66,1.46,1.46,0,0,0-.08-.41l-3.16-8h1.18l2.69,7,2.67-7h1.18l-3.61,9.09c-.66,1.6-1.51,2.32-2.74,2.32C400.21,244.09,400,244.07,399.92,244.06Zm12.31-11.54c2,0,3.76,1.44,3.76,4.32s-1.73,4.32-3.76,4.32a3.37,3.37,0,0,1-3-1.58V244h-1.14V232.68h1.14v1.42A3.37,3.37,0,0,1,412.23,232.52Zm-.18,7.68c1.52,0,2.87-1.15,2.87-3.36s-1.35-3.36-2.87-3.36-2.88,1.15-2.88,3.36S410.53,240.2,412.05,240.2Zm8.39,0H421v.89a4.68,4.68,0,0,1-.85.05c-1.38,0-2.06-.65-2.06-2v-5.54h-1.35v-.91h1.35v-2.06h1.13v2.06h1.65v.91h-1.65v5.31C419.19,239.82,419.53,240.17,420.44,240.17Zm9-3.57a3.09,3.09,0,0,1,0,.58H423c.08,2,1.09,3.08,2.88,3.08a2.29,2.29,0,0,0,2.4-1.53h1a3.31,3.31,0,0,1-3.49,2.45c-2.38,0-3.93-1.49-3.93-4.31s1.69-4.35,3.85-4.35S429.42,234,429.42,236.6Zm-6.41-.26h5.32c0-1.87-1-2.91-2.6-2.91S423.09,234.44,423,236.34Zm14.32-6.54h1.13V241h-1.13v-1.41a3.4,3.4,0,0,1-3,1.57c-2,0-3.76-1.44-3.76-4.32s1.74-4.32,3.76-4.32a3.4,3.4,0,0,1,3,1.57Zm-2.82,10.4c1.52,0,2.88-1.15,2.88-3.36s-1.36-3.36-2.88-3.36-2.86,1.15-2.86,3.36S433,240.2,434.51,240.2Zm14.33,1c-2.91,0-5.06-2.1-5.06-5.76s2.15-5.74,5.06-5.74,5,2.06,5,5.74S451.73,241.16,448.84,241.16Zm0-1c2.25,0,3.84-1.65,3.84-4.74s-1.59-4.72-3.84-4.72S445,232.33,445,235.4,446.58,240.14,448.84,240.14Zm12.49-7.46h1.14V241h-1.14v-1.55a3,3,0,0,1-2.91,1.71c-1.79,0-3-1-3-3.36v-5.12h1.14v4.9c0,1.68.72,2.6,2.24,2.6a2.39,2.39,0,0,0,2.54-2.6Zm6.17,7.49H468v.89a4.68,4.68,0,0,1-.85.05c-1.37,0-2.06-.65-2.06-2v-5.54h-1.35v-.91h1.35v-2.06h1.13v2.06h1.65v.91h-1.65v5.31C466.25,239.82,466.59,240.17,467.5,240.17Zm6.07-7.65c2,0,3.76,1.44,3.76,4.32s-1.73,4.32-3.76,4.32a3.39,3.39,0,0,1-3-1.58V244h-1.13V232.68h1.13v1.42A3.39,3.39,0,0,1,473.57,232.52Zm-.17,7.68c1.52,0,2.86-1.15,2.86-3.36s-1.34-3.36-2.86-3.36-2.88,1.15-2.88,3.36S471.88,240.2,473.4,240.2Zm11.32-7.52h1.14V241h-1.14v-1.55a3,3,0,0,1-2.91,1.71c-1.79,0-3-1-3-3.36v-5.12h1.14v4.9c0,1.68.72,2.6,2.24,2.6a2.39,2.39,0,0,0,2.54-2.6Zm6.17,7.49h.53v.89a4.68,4.68,0,0,1-.85.05c-1.37,0-2.06-.65-2.06-2v-5.54h-1.34v-.91h1.34v-2.06h1.13v2.06h1.65v.91h-1.65v5.31C489.64,239.82,490,240.17,490.89,240.17Z" fill="#fafafa"/>
  <line id="lineMove4" x1="221" y1="47.5" x2="800.84" y2="47.5" fill="none" stroke="#fafafa" stroke-dasharray="6 6"/>
  <line id="lineMove5" x1="258.5" y1="205.5" x2="831.47" y2="205.5" fill="none" stroke="#fafafa" stroke-dasharray="6 6"/>
</svg>
