<svg id="Слой_1" data-name="Слой 1" xmlns="http://www.w3.org/2000/svg" xmlns:xlink="http://www.w3.org/1999/xlink" width="1045.54" height="583" viewBox="0 0 1045.54 583">
  <defs>
    <linearGradient id="Безымянный_градиент" data-name="Безымянный градиент" x1="683.57" y1="148.36" x2="1055.43" y2="1031.84" gradientTransform="matrix(1, 0, 0, -1, 0, 584)" gradientUnits="userSpaceOnUse">
      <stop offset="0" stop-color="#142b38"/>
      <stop offset="1" stop-color="#f2f7f9"/>
    </linearGradient>
    <linearGradient id="Безымянный_градиент_3" data-name="Безымянный градиент 3" x1="165.21" y1="13.51" x2="338.36" y2="424.9" xlink:href="#Безымянный_градиент"/>
    <linearGradient id="Безымянный_градиент_2" data-name="Безымянный градиент 2" x1="165.21" y1="439.51" x2="338.36" y2="850.9" xlink:href="#Безымянный_градиент"/>
  </defs>
  <line id="lineMove3" x1="257.6" y1="464.53" x2="595.6" y2="339.53" fill="none" stroke="#fff" stroke-dasharray="6 6"/>
  <line id="lineMove2" x1="194.27" y1="156" x2="194.27" y2="430" fill="none" stroke="#fff" stroke-dasharray="6 6"/>
  <line id="lineMove1" x1="267.98" y1="98.55" x2="595.98" y2="248.54" fill="none" stroke="#fff" stroke-dasharray="6 6"/>
  <g id="step2">
    <g>
      <rect x="178.77" y="99.78" width="30.33" height="30.72" rx="15.17" fill="#22323b" fill-opacity="0.85"/>
      <rect x="179.27" y="100.28" width="29.33" height="29.72" rx="14.67" fill="none" stroke="#fff" stroke-opacity="0.24"/>
    </g>
    <path d="M193.93,123.5l-3.68-2a6.66,6.66,0,0,1-2.55-2.42,6.59,6.59,0,0,1-.93-3.38V108a1.23,1.23,0,0,1,.35-.85,1.21,1.21,0,0,1,.84-.35h11.95a1.21,1.21,0,0,1,.84.35,1.23,1.23,0,0,1,.35.85v7.76a6.59,6.59,0,0,1-.93,3.38,6.66,6.66,0,0,1-2.55,2.42ZM188,108v7.76a5.37,5.37,0,0,0,2.85,4.74l3.12,1.67,3.13-1.67a5.37,5.37,0,0,0,2.85-4.74V108Z" fill="#fafafa"/>
    <path d="M192.1,116,189.94,114l-1.17,1.12,3.33,3.19,6.67-6.38-1.18-1.13Z" fill="#fafafa"/>
  </g>
  <g id="step1">
    <g>
      <rect x="620" y="248.54" width="30.33" height="30.72" rx="15.17" fill="#22323b" fill-opacity="0.85"/>
      <rect x="620.5" y="249.04" width="29.33" height="29.72" rx="14.67" fill="none" stroke="#fff" stroke-opacity="0.24"/>
    </g>
    <path d="M635.17,272.26l-3.69-2a6.6,6.6,0,0,1-3.48-5.8v-7.76a1.21,1.21,0,0,1,1.2-1.2h11.94a1.21,1.21,0,0,1,1.19,1.2v7.76a6.56,6.56,0,0,1-3.47,5.8Zm-6-15.52v7.76a5.39,5.39,0,0,0,.76,2.77,5.32,5.32,0,0,0,2.08,2l3.13,1.67,3.12-1.67a5.37,5.37,0,0,0,2.85-4.74v-7.76Z" fill="#fafafa"/>
    <path d="M633.34,264.8l-2.16-2.06L630,263.86l3.34,3.2,6.66-6.39-1.17-1.13Z" fill="#fafafa"/>
  </g>
  <g id="step3">
    <g>
      <rect x="178.27" y="475.31" width="30.33" height="30.72" rx="15.17" fill="#22323b" fill-opacity="0.85"/>
      <rect x="178.77" y="475.81" width="29.33" height="29.72" rx="14.67" fill="none" stroke="#fff" stroke-opacity="0.24"/>
    </g>
    <path d="M193.44,499l-3.69-2a6.6,6.6,0,0,1-3.48-5.8V483.5a1.21,1.21,0,0,1,.35-.84,1.19,1.19,0,0,1,.85-.35h11.94a1.2,1.2,0,0,1,1.19,1.19v7.76a6.59,6.59,0,0,1-.93,3.38,6.52,6.52,0,0,1-2.55,2.42Zm-6-15.53v7.76a5.36,5.36,0,0,0,2.84,4.75l3.13,1.66,3.12-1.66a5.35,5.35,0,0,0,2.08-2,5.4,5.4,0,0,0,.77-2.77V483.5Z" fill="#fafafa"/>
    <path d="M191.6,491.57l-2.15-2.07-1.18,1.13,3.33,3.19,6.67-6.39-1.17-1.12Z" fill="#fafafa"/>
  </g>
  <g id="circle1">
    <g>
      <circle cx="742.77" cy="295" r="187" fill="#22323b" fill-opacity="0.85"/>
      <circle cx="742.77" cy="295" r="186.5" fill="none" stroke="#fff" stroke-opacity="0.24"/>
    </g>
    <g id="rotateLine2">
      <path d="M588.77,239.28A149.49,149.49,0,0,1,681.57,145" fill="none" stroke="#fff" stroke-opacity="0.56" stroke-dasharray="5 5"/>
      <circle cx="743.27" cy="295" r="186.5" fill="none"/>
    </g>
    <g id="rotateLine1">
      <path d="M907.59,331.38a149.47,149.47,0,0,1-74.36,102.56" fill="none" stroke="#fff" stroke-opacity="0.56" stroke-dasharray="5 5"/>
      <circle cx="743.27" cy="295" r="186.5" fill="none"/>
    </g>
    <circle cx="742.77" cy="295" r="131" fill="url(#Безымянный_градиент)"/>
  </g>
  <g id="circle3">
    <circle cx="193.27" cy="504.5" r="77.5" fill="#22323b" fill-opacity="0.85"/>
    <circle cx="192.77" cy="505" r="61" fill="url(#Безымянный_градиент_3)"/>
    <g id="rotateLine3">
      <path d="M232,559.38A68.1,68.1,0,0,1,125.74,520" fill="none" stroke="#fff" stroke-opacity="0.56" stroke-width="0.5" stroke-dasharray="6 6"/>
      <circle cx="193.27" cy="504.5" r="77.5" fill="none"/>
    </g>
    <path id="icon5" d="M192.77,460a15.33,15.33,0,1,1-10.84,4.49A15.29,15.29,0,0,1,192.77,460Zm0,38.33c16.94,0,30.67,6.87,30.67,15.34v7.66H162.1v-7.66C162.1,505.2,175.83,498.33,192.77,498.33Z" fill="#fafafa"/>
    <path d="M157.57,545.33v-8.89h-3.13v-.91h7.28v.91h-3.13v8.89Zm8.92-7.42c1.57,0,2.62.91,2.62,2.94v4.48h-1v-4.28c0-1.53-.66-2.28-2-2.28a2.1,2.1,0,0,0-2.23,2.28v4.28h-1v-9.8h1v3.88A2.59,2.59,0,0,1,166.49,537.91Zm4.74-1.38a.66.66,0,0,1-.65-.65.65.65,0,0,1,1.3,0A.66.66,0,0,1,171.23,536.53Zm-.5,8.8v-7.28h1v7.28Zm6-7.33a1.89,1.89,0,0,1,.55.07v.84a3,3,0,0,0-.52,0,2.29,2.29,0,0,0-2.38,2.55v3.92h-1v-7.28h1v1.61h0A2.27,2.27,0,0,1,176.71,538Zm7.06-2.47h1v9.8h-1V544.1a3,3,0,0,1-2.64,1.37c-1.76,0-3.29-1.26-3.29-3.78s1.53-3.78,3.29-3.78a3,3,0,0,1,2.64,1.37Zm-2.47,9.1c1.33,0,2.52-1,2.52-2.94s-1.19-2.94-2.52-2.94-2.5,1-2.5,2.94S180,544.63,181.3,544.63Zm8.32-9.1h3.53c2.23,0,3.42,1.11,3.42,3s-1.19,3-3.42,3h-2.49v3.83h-1Zm1,5h2.45c1.58,0,2.41-.71,2.41-2s-.83-2.09-2.41-2.09h-2.45Zm13.15.91a2.39,2.39,0,0,1,0,.51h-5.59c.07,1.79,1,2.7,2.52,2.7a2,2,0,0,0,2.1-1.35h.91a2.89,2.89,0,0,1-3.05,2.15c-2.08,0-3.44-1.31-3.44-3.77s1.48-3.81,3.37-3.81S203.81,539.17,203.81,541.48Zm-5.61-.22h4.66c0-1.64-.88-2.55-2.28-2.55A2.33,2.33,0,0,0,198.2,541.26ZM208.43,538a1.89,1.89,0,0,1,.55.07v.84a3,3,0,0,0-.52,0,2.29,2.29,0,0,0-2.38,2.55v3.92h-1v-7.28h1v1.61h0A2.27,2.27,0,0,1,208.43,538Zm4.07,7.47c-1.69,0-2.91-.74-3-2.15h.91c.13.95,1,1.37,2.09,1.37s1.89-.45,1.89-1.36c0-.71-.42-1-1.36-1.2l-1.37-.33c-1.28-.32-1.91-.93-1.91-1.9,0-1.24,1-2,2.68-2s2.64.72,2.74,2.12h-.84c-.17-.95-.83-1.33-1.89-1.33s-1.74.43-1.74,1.17c0,.58.4,1,1.29,1.18l1.36.31c1.36.33,2,.82,2,2a1.77,1.77,0,0,1-.84,1.62A3.81,3.81,0,0,1,212.5,545.47Zm7.25,0a3.79,3.79,0,1,1,3.47-3.78A3.45,3.45,0,0,1,219.75,545.47Zm0-.84c1.34,0,2.52-1,2.52-2.94s-1.18-2.94-2.52-2.94-2.52,1-2.52,2.94S218.38,544.63,219.75,544.63Zm8.32-6.72c1.57,0,2.62.91,2.62,2.94v4.48h-1v-4.28c0-1.53-.65-2.28-2-2.28a2.1,2.1,0,0,0-2.22,2.28v4.28h-1v-7.28h1v1.36A2.59,2.59,0,0,1,228.07,537.91Z" fill="#fafafa"/>
  </g>
  <g id="circle2">
    <circle cx="193.27" cy="78.5" r="77.5" fill="#22323b" fill-opacity="0.85"/>
    <circle cx="192.77" cy="79" r="61" fill="url(#Безымянный_градиент_2)"/>
    <path id="icon4" d="M193.44,26a15.33,15.33,0,1,1-10.85,4.49A15.37,15.37,0,0,1,193.44,26Zm0,38.33c16.94,0,30.66,6.86,30.66,15.34v7.66H162.77V79.67C162.77,71.19,176.49,64.33,193.44,64.33Z" fill="#fafafa"/>
    <path d="M179.7,120.53c-3.34,0-5.34-2-5.34-5.48v-8.72h1.48V115c0,2.72,1.4,4.26,3.86,4.26s3.86-1.54,3.86-4.26v-8.64H185v8.72C185,118.51,183,120.53,179.7,120.53Zm11.33,0c-2.42,0-4.16-1.06-4.26-3.08h1.3c.18,1.36,1.44,2,3,2s2.7-.64,2.7-1.94c0-1-.6-1.38-1.94-1.72l-2-.46c-1.82-.46-2.72-1.34-2.72-2.72,0-1.78,1.5-2.84,3.82-2.84s3.78,1,3.92,3h-1.2c-.24-1.36-1.18-1.9-2.7-1.9s-2.48.62-2.48,1.68c0,.82.56,1.36,1.84,1.68l1.94.44c1.94.48,2.92,1.18,2.92,2.8a2.53,2.53,0,0,1-1.2,2.32A5.47,5.47,0,0,1,191,120.53Zm14.79-5.7a3.45,3.45,0,0,1-.06.72h-8c.1,2.56,1.36,3.86,3.6,3.86a2.85,2.85,0,0,0,3-1.92h1.3a4.14,4.14,0,0,1-4.36,3.06c-3,0-4.92-1.86-4.92-5.38,0-3.68,2.12-5.44,4.82-5.44S205.82,111.53,205.82,114.83Zm-8-.32h6.66c0-2.34-1.26-3.64-3.26-3.64S197.9,112.13,197.8,114.51Zm14.62-4.66a2.54,2.54,0,0,1,.78.1v1.2a4.44,4.44,0,0,0-.74-.06c-2.14,0-3.4,1.42-3.4,3.64v5.6h-1.42v-10.4h1.42v2.3h0A3.25,3.25,0,0,1,212.42,109.85Z" fill="#fafafa"/>
    <g id="rotateLine4">
      <path d="M125.05,87.14a68.15,68.15,0,0,1,78.69-75.33" fill="none" stroke="#fff" stroke-opacity="0.56" stroke-width="0.7" stroke-dasharray="5 5"/>
      <circle cx="192.77" cy="79" r="78" fill="none"/>
    </g>
  </g>
  <g>
    <g>
      <path d="M10,27.88h2.08a2.19,2.19,0,0,0,2.41,2.34c1.2,0,2.34-.59,2.34-1.93,0-1.11-.78-1.89-2.53-1.89h-.66V24.77h.55c1.86,0,2.19-.94,2.19-1.63,0-1.08-.83-1.6-1.87-1.6a1.91,1.91,0,0,0-2,2.15H10.39c0-2.58,1.48-4.06,4.15-4.06,2.48,0,4,1.29,4,3.15a2.65,2.65,0,0,1-2,2.67,2.91,2.91,0,0,1,2.55,3c0,2.14-1.81,3.68-4.69,3.68C11.37,32.11,10,30.39,10,27.88Z" fill="#fff"/>
      <path d="M20.25,30.76a1.36,1.36,0,0,1,1.37-1.38,1.37,1.37,0,1,1,0,2.73A1.36,1.36,0,0,1,20.25,30.76Z" fill="#fff"/>
      <path d="M28.64,19.79h8.14v2H30.91v3.08h5.35v1.79H30.91v3.28h6v2H28.64Z" fill="#fff"/>
      <path d="M42.69,24.58a2,2,0,0,0-2.1,2.2v5.16H38.37v-9h2.22v1.86h.07a2.85,2.85,0,0,1,3-2c1.77,0,3.14,1.08,3.14,3.52v5.68H44.53V26.78C44.53,25.31,43.89,24.58,42.69,24.58Z" fill="#fff"/>
      <path d="M48.19,27.44c0-3.33,2.24-4.7,4.49-4.7a3.72,3.72,0,0,1,4,3.56h-2a1.89,1.89,0,0,0-2.05-1.69c-1.54,0-2.39,1.13-2.39,2.83s.85,2.8,2.39,2.8a1.9,1.9,0,0,0,2.05-1.7h2a3.72,3.72,0,0,1-4,3.57A4.27,4.27,0,0,1,48.19,27.44Z" fill="#fff"/>
      <path d="M60.4,31.94H58.18v-9H60.4v2.16h.05a2.67,2.67,0,0,1,2.67-2.23,2.54,2.54,0,0,1,.7.09V24.8a5.91,5.91,0,0,0-.7-.05c-1.49,0-2.72.87-2.72,3Z" fill="#fff"/>
      <path d="M67.79,32.44a1.38,1.38,0,0,0,0-1.22l-3.33-8.31h2.27L69,29.16l2.32-6.25h2.29l-3.74,9.27c-1.06,2.6-2.19,3.45-4.55,3.19V33.48C67,33.71,67.53,33.08,67.79,32.44Z" fill="#fff"/>
      <path d="M74.9,22.91h2.22v1.3a3.07,3.07,0,0,1,2.79-1.47c2,0,4,1.39,4,4.68s-2,4.69-4,4.69a3.06,3.06,0,0,1-2.79-1.48v4.6H74.9Zm4.49,7.34c1.25,0,2.41-.88,2.41-2.83s-1.16-2.82-2.41-2.82S77,25.48,77,27.42,78.18,30.25,79.39,30.25Z" fill="#fff"/>
      <path d="M85.93,29.4V24.65H84.42V22.91h1.51v-2.3h2.22v2.3h1.77v1.74H88.15v4.41c0,.78.25,1.21,1.18,1.21a6.48,6.48,0,0,0,.7,0V31.9a5.18,5.18,0,0,1-1.29.16C87,32.06,85.93,31.31,85.93,29.4Z" fill="#fff"/>
      <path d="M90.84,27.41c0-3.33,2.07-4.67,4.42-4.67S99.5,24,99.5,27.32a3.94,3.94,0,0,1,0,.68H92.94c.14,1.68,1,2.41,2.41,2.41a1.86,1.86,0,0,0,2.05-1.3h2a3.83,3.83,0,0,1-4.08,3C93,32.11,90.84,30.77,90.84,27.41Zm6.56-.77a2,2,0,0,0-2.17-2.2A2.14,2.14,0,0,0,93,26.64Z" fill="#fff"/>
      <path d="M100.57,27.42c0-3.29,2-4.68,4-4.68a3.09,3.09,0,0,1,2.8,1.47V19.79h2.22V31.94h-2.22V30.63a3.07,3.07,0,0,1-2.8,1.48C102.6,32.11,100.57,30.72,100.57,27.42Zm4.49,2.83c1.22,0,2.38-.88,2.38-2.83s-1.16-2.82-2.38-2.82-2.41.88-2.41,2.82S103.81,30.25,105.06,30.25Z" fill="#fff"/>
      <path d="M26.3,40.61h2.27V52.75H26.3Z" fill="#fff"/>
      <path d="M34.75,45.39a2,2,0,0,0-2.1,2.21v5.15H30.43v-9h2.22v1.85h.07a2.84,2.84,0,0,1,3-2c1.77,0,3.14,1.08,3.14,3.53v5.67H36.59V47.6C36.59,46.12,36,45.39,34.75,45.39Z" fill="#fff"/>
      <path d="M40.68,43.73H42.9V45a3,3,0,0,1,2.79-1.48c2,0,4,1.39,4,4.69s-2,4.68-4,4.68a3,3,0,0,1-2.79-1.47v4.6H40.68Zm4.49,7.34c1.25,0,2.41-.89,2.41-2.83s-1.16-2.83-2.41-2.83-2.38.89-2.38,2.83S44,51.07,45.17,51.07Z" fill="#fff"/>
      <path d="M55.16,51.08a2,2,0,0,0,2.1-2.2V43.73h2.22v9H57.26V50.89h-.07a2.84,2.84,0,0,1-2.95,2c-1.77,0-3.14-1.07-3.14-3.52V43.73h2.22v5.15C53.32,50.36,54,51.08,55.16,51.08Z" fill="#fff"/>
      <path d="M62.26,50.22V45.46H60.75V43.73h1.51V41.42h2.22v2.31h1.77v1.73H64.48v4.41c0,.78.24,1.21,1.18,1.21a6.41,6.41,0,0,0,.69,0v1.66a4.67,4.67,0,0,1-1.28.16C63.37,52.87,62.26,52.12,62.26,50.22Z" fill="#fff"/>
      <path d="M67.16,49.9h2c.12,1,.85,1.34,1.89,1.34s1.63-.33,1.63-1.09c0-.56-.36-.84-1-1l-1.67-.37c-1.82-.41-2.53-1.37-2.53-2.58,0-1.7,1.45-2.68,3.62-2.68s3.59,1.1,3.63,3H72.82c-.14-1-.8-1.32-1.77-1.32s-1.49.33-1.49.95.36.85,1.09,1l1.72.38c1.42.33,2.58,1,2.58,2.54,0,2-1.84,2.82-4,2.82C68.69,52.92,67.18,51.93,67.16,49.9Z" fill="#fff"/>
    </g>
    <g>
      <path d="M693.54,136.53v-1.82a2.66,2.66,0,0,0,2.51-1.85h2.23V145h-2.23v-9.39A3.43,3.43,0,0,1,693.54,136.53Z" fill="#fff"/>
      <path d="M700.23,143.82a1.38,1.38,0,1,1,1.37,1.35A1.37,1.37,0,0,1,700.23,143.82Z" fill="#fff"/>
      <path d="M708.37,139c0-4,2.22-6.28,5.59-6.28,2.48,0,4.59,1.21,5,3.8h-2.27a2.54,2.54,0,0,0-2.72-1.82c-2.3,0-3.3,1.71-3.3,4.23s1,4.29,3.33,4.29a2.7,2.7,0,0,0,3-2.92h-2.54v-1.84h4.81v1.15c0,3.67-2,5.58-5.24,5.58C710.42,145.17,708.37,142.88,708.37,139Z" fill="#fff"/>
      <path d="M720.47,140.47c0-3.33,2.07-4.67,4.43-4.67s4.23,1.29,4.23,4.58a3.08,3.08,0,0,1,0,.68h-6.51c.14,1.68,1,2.41,2.42,2.41a1.85,1.85,0,0,0,2-1.3h2a3.82,3.82,0,0,1-4.08,3C722.59,145.17,720.47,143.84,720.47,140.47Zm6.56-.76a2,2,0,0,0-2.17-2.21,2.15,2.15,0,0,0-2.27,2.21Z" fill="#fff"/>
      <path d="M734.87,137.64a2,2,0,0,0-2.1,2.21V145h-2.22v-9h2.22v1.85h.07a2.85,2.85,0,0,1,2.95-2c1.77,0,3.14,1.08,3.14,3.53V145h-2.22v-5.15C736.71,138.37,736.07,137.64,734.87,137.64Z" fill="#fff"/>
      <path d="M740.37,140.47c0-3.33,2.06-4.67,4.42-4.67s4.24,1.29,4.24,4.58a3,3,0,0,1-.06.68h-6.5c.14,1.68,1,2.41,2.41,2.41a1.85,1.85,0,0,0,2-1.3h2a3.83,3.83,0,0,1-4.08,3C742.49,145.17,740.37,143.84,740.37,140.47Zm6.56-.76a2,2,0,0,0-2.17-2.21,2.14,2.14,0,0,0-2.27,2.21Z" fill="#fff"/>
      <path d="M752.67,145h-2.22v-9h2.22v2.15h.05a2.66,2.66,0,0,1,2.67-2.22,2.59,2.59,0,0,1,.7.09v1.87a4.35,4.35,0,0,0-.7-.05c-1.49,0-2.72.86-2.72,3Z" fill="#fff"/>
      <path d="M756.47,142.64c0-1.87,1.47-2.41,3.12-2.64l1.68-.22c.89-.12,1.15-.28,1.15-.75v-.19c0-1.09-.66-1.42-1.63-1.42s-1.76.33-1.76,1.32v.17l-2.08,0v-.4c0-1.75,1.2-2.73,3.89-2.73s3.76,1,3.76,2.95V145h-2.13v-1.61h-.09a3.07,3.07,0,0,1-3,1.78C757.84,145.17,756.47,144.45,756.47,142.64Zm3.62.92a2.15,2.15,0,0,0,2.33-1.68v-1.15c-.12.21-.56.31-1.06.38l-1.44.23c-.94.14-1.23.57-1.23,1.11C758.69,143.14,759.15,143.56,760.09,143.56Z" fill="#fff"/>
      <path d="M767.1,142.47v-4.76h-1.51V136h1.51v-2.31h2.22V136h1.77v1.73h-1.77v4.41c0,.78.24,1.21,1.18,1.21a6.32,6.32,0,0,0,.69,0V145a4.62,4.62,0,0,1-1.28.16C768.21,145.12,767.1,144.38,767.1,142.47Z" fill="#fff"/>
      <path d="M772,140.47c0-3.33,2.06-4.67,4.42-4.67s4.23,1.29,4.23,4.58a3.08,3.08,0,0,1,0,.68h-6.5c.14,1.68,1,2.41,2.41,2.41a1.84,1.84,0,0,0,2-1.3h2a3.81,3.81,0,0,1-4.07,3C774.12,145.17,772,143.84,772,140.47Zm6.55-.76a2,2,0,0,0-2.16-2.21,2.16,2.16,0,0,0-2.28,2.21Z" fill="#fff"/>
      <path d="M786.07,132.86h2.28v6l5.17-6h2.69l-4.74,5.46,5.2,6.68H794l-4-5.07-1.71,2V145h-2.28Z" fill="#fff"/>
      <path d="M796.62,140.47c0-3.33,2.06-4.67,4.42-4.67s4.24,1.29,4.24,4.58a3,3,0,0,1-.06.68h-6.5c.14,1.68,1,2.41,2.41,2.41a1.85,1.85,0,0,0,2-1.3h2a3.83,3.83,0,0,1-4.08,3C798.74,145.17,796.62,143.84,796.62,140.47Zm6.56-.76A2,2,0,0,0,801,137.5a2.14,2.14,0,0,0-2.27,2.21Z" fill="#fff"/>
      <path d="M808.81,145.5a1.3,1.3,0,0,0,0-1.21L805.48,136h2.28l2.3,6.24,2.33-6.24h2.29l-3.75,9.26c-1.06,2.61-2.18,3.46-4.54,3.2v-1.9C808.05,146.77,808.55,146.15,808.81,145.5Z" fill="#fff"/>
    </g>
    <g>
      <path d="M680.93,449.68h-5.51v-1.82h7.63v1.82c-2.2,3.35-3.76,6.71-4.06,10.32h-2.08A22.67,22.67,0,0,1,680.93,449.68Z" fill="#fff"/>
      <path d="M683.47,458.82a1.36,1.36,0,0,1,1.37-1.37,1.36,1.36,0,1,1,0,2.72A1.35,1.35,0,0,1,683.47,458.82Z" fill="#fff"/>
      <path d="M691.86,447.86h4.41c3.8,0,5.74,2.18,5.74,6.07s-1.94,6.07-5.74,6.07h-4.41ZM696,458c2.66,0,3.64-1.24,3.64-4.07s-1-4.08-3.64-4.08h-1.91V458Z" fill="#fff"/>
      <path d="M703.19,455.47c0-3.33,2.06-4.67,4.42-4.67s4.23,1.29,4.23,4.58a3.08,3.08,0,0,1-.05.68h-6.5c.13,1.68,1,2.41,2.41,2.41a1.85,1.85,0,0,0,2-1.3h2a3.82,3.82,0,0,1-4.08,3C705.3,460.17,703.19,458.84,703.19,455.47Zm6.55-.76a2,2,0,0,0-2.16-2.21,2.15,2.15,0,0,0-2.28,2.21Z" fill="#fff"/>
      <path d="M712.92,455.51c0-3.33,2.23-4.71,4.49-4.71a3.73,3.73,0,0,1,4,3.56h-2a1.89,1.89,0,0,0-2.05-1.68c-1.54,0-2.39,1.13-2.39,2.83s.85,2.79,2.39,2.79a1.9,1.9,0,0,0,2.05-1.7h2a3.71,3.71,0,0,1-4,3.57C715.15,460.17,712.92,458.84,712.92,455.51Z" fill="#fff"/>
      <path d="M723.81,457.47v-4.76H722.3V451h1.51v-2.31H726V451h1.77v1.73H726v4.41c0,.78.24,1.21,1.18,1.21a6.32,6.32,0,0,0,.69,0V460a4.62,4.62,0,0,1-1.28.16C724.92,460.12,723.81,459.38,723.81,457.47Z" fill="#fff"/>
      <path d="M732,460.5a1.36,1.36,0,0,0,0-1.21L728.63,451h2.27l2.31,6.24,2.33-6.24h2.29l-3.75,9.26c-1.06,2.61-2.19,3.46-4.55,3.2v-1.9C731.2,461.77,731.7,461.15,732,460.5Z" fill="#fff"/>
      <path d="M739.07,451h2.22v1.3a3.07,3.07,0,0,1,2.8-1.48c1.94,0,4,1.39,4,4.69s-2,4.68-4,4.68a3.07,3.07,0,0,1-2.8-1.47v4.6h-2.22Zm4.5,7.34c1.24,0,2.41-.89,2.41-2.83s-1.17-2.83-2.41-2.83-2.38.89-2.38,2.83S742.35,458.32,743.57,458.32Z" fill="#fff"/>
      <path d="M750.1,457.47v-4.76h-1.51V451h1.51v-2.31h2.22V451h1.77v1.73h-1.77v4.41c0,.78.25,1.21,1.18,1.21a6.48,6.48,0,0,0,.7,0V460a4.7,4.7,0,0,1-1.29.16C751.21,460.12,750.1,459.38,750.1,457.47Z" fill="#fff"/>
      <path d="M759.26,453.93c0-3.82,2.31-6.23,5.71-6.23s5.72,2.41,5.72,6.23-2.32,6.24-5.72,6.24S759.26,457.73,759.26,453.93ZM765,458.2c2.08,0,3.37-1.62,3.37-4.27s-1.29-4.25-3.37-4.25-3.37,1.58-3.37,4.25S762.89,458.2,765,458.2Z" fill="#fff"/>
      <path d="M776.26,458.33a2,2,0,0,0,2.1-2.2V451h2.22v9h-2.22v-1.86h-.07a2.84,2.84,0,0,1-2.95,2c-1.77,0-3.14-1.07-3.14-3.52V451h2.22v5.15C774.42,457.61,775.06,458.33,776.26,458.33Z" fill="#fff"/>
      <path d="M783.35,457.47v-4.76h-1.51V451h1.51v-2.31h2.23V451h1.76v1.73h-1.76v4.41c0,.78.24,1.21,1.18,1.21a6.41,6.41,0,0,0,.69,0V460a4.67,4.67,0,0,1-1.28.16C784.47,460.12,783.35,459.38,783.35,457.47Z" fill="#fff"/>
      <path d="M788.78,451H791v1.3a3.07,3.07,0,0,1,2.8-1.48c1.94,0,4,1.39,4,4.69s-2,4.68-4,4.68a3.07,3.07,0,0,1-2.8-1.47v4.6h-2.22Zm4.5,7.34c1.25,0,2.41-.89,2.41-2.83s-1.16-2.83-2.41-2.83-2.38.89-2.38,2.83S792.06,458.32,793.28,458.32Z" fill="#fff"/>
      <path d="M803.27,458.33a2,2,0,0,0,2.1-2.2V451h2.22v9h-2.22v-1.86h-.07a2.85,2.85,0,0,1-2.95,2c-1.77,0-3.14-1.07-3.14-3.52V451h2.22v5.15C801.43,457.61,802.07,458.33,803.27,458.33Z" fill="#fff"/>
      <path d="M810.36,457.47v-4.76h-1.51V451h1.51v-2.31h2.22V451h1.77v1.73h-1.77v4.41c0,.78.24,1.21,1.18,1.21a6.48,6.48,0,0,0,.7,0V460a4.75,4.75,0,0,1-1.29.16C811.47,460.12,810.36,459.38,810.36,457.47Z" fill="#fff"/>
    </g>
    <g>
      <path d="M1.19,560.24H9.33v2H3.47v3.09H8.81v1.78H3.47v3.28h6v2H1.19Z" fill="#fff"/>
      <path d="M15.24,565a2,2,0,0,0-2.1,2.21v5.15H10.92v-9h2.22v1.85h.07a2.86,2.86,0,0,1,2.95-2c1.77,0,3.14,1.08,3.14,3.53v5.67H17.08v-5.15C17.08,565.76,16.44,565,15.24,565Z" fill="#fff"/>
      <path d="M20.74,567.9c0-3.34,2.24-4.71,4.49-4.71a3.74,3.74,0,0,1,4.05,3.56h-2a1.88,1.88,0,0,0-2-1.68c-1.55,0-2.4,1.13-2.4,2.83s.85,2.79,2.4,2.79a1.88,1.88,0,0,0,2-1.7h2a3.72,3.72,0,0,1-4.05,3.57A4.27,4.27,0,0,1,20.74,567.9Z" fill="#fff"/>
      <path d="M33,572.39H30.73v-9H33v2.15h0a2.66,2.66,0,0,1,2.68-2.22,2.93,2.93,0,0,1,.69.08v1.88a4.31,4.31,0,0,0-.69,0c-1.5,0-2.73.86-2.73,3Z" fill="#fff"/>
      <path d="M40.34,572.89a1.36,1.36,0,0,0,0-1.21L37,563.37h2.27l2.31,6.24,2.33-6.24h2.29l-3.75,9.26c-1.06,2.6-2.19,3.45-4.55,3.19v-1.89C39.58,574.16,40.08,573.53,40.34,572.89Z" fill="#fff"/>
      <path d="M47.45,563.37h2.22v1.3a3.07,3.07,0,0,1,2.8-1.48c1.94,0,4,1.39,4,4.69s-2,4.68-4,4.68a3.07,3.07,0,0,1-2.8-1.47v4.59H47.45Zm4.5,7.34c1.25,0,2.41-.89,2.41-2.83s-1.16-2.83-2.41-2.83-2.38.88-2.38,2.83S50.73,570.71,52,570.71Z" fill="#fff"/>
      <path d="M58.48,569.86V565.1H57v-1.73h1.51v-2.31H60.7v2.31h1.77v1.73H60.7v4.41c0,.78.25,1.21,1.18,1.21a6.48,6.48,0,0,0,.7,0v1.66a4.7,4.7,0,0,1-1.29.16C59.59,572.51,58.48,571.76,58.48,569.86Z" fill="#fff"/>
      <path d="M63.39,567.86c0-3.33,2.07-4.67,4.43-4.67s4.23,1.29,4.23,4.58a3.86,3.86,0,0,1,0,.68H65.49c.14,1.68,1,2.41,2.41,2.41a1.85,1.85,0,0,0,2-1.3h2a3.83,3.83,0,0,1-4.08,3C65.51,572.56,63.39,571.23,63.39,567.86ZM70,567.1a2,2,0,0,0-2.17-2.21,2.15,2.15,0,0,0-2.27,2.21Z" fill="#fff"/>
      <path d="M73.12,567.88c0-3.3,2-4.69,4-4.69a3.06,3.06,0,0,1,2.79,1.48v-4.43h2.22v12.15H79.89v-1.3a3.05,3.05,0,0,1-2.79,1.47C75.15,572.56,73.12,571.17,73.12,567.88Zm4.5,2.83c1.21,0,2.37-.89,2.37-2.83s-1.16-2.83-2.37-2.83-2.42.88-2.42,2.83S76.37,570.71,77.62,570.71Z" fill="#fff"/>
      <path d="M88,560.24h2.27v12.15H88Z" fill="#fff"/>
      <path d="M96.42,565a2,2,0,0,0-2.1,2.21v5.15H92.1v-9h2.22v1.85h.07a2.84,2.84,0,0,1,3-2c1.77,0,3.14,1.08,3.14,3.53v5.67H98.26v-5.15C98.26,565.76,97.62,565,96.42,565Z" fill="#fff"/>
      <path d="M102.35,563.37h2.22v1.3a3,3,0,0,1,2.79-1.48c2,0,4,1.39,4,4.69s-2,4.68-4,4.68a3,3,0,0,1-2.79-1.47v4.59h-2.22Zm4.49,7.34c1.25,0,2.41-.89,2.41-2.83s-1.16-2.83-2.41-2.83-2.37.88-2.37,2.83S105.63,570.71,106.84,570.71Z" fill="#fff"/>
      <path d="M116.83,570.72a2,2,0,0,0,2.1-2.2v-5.15h2.22v9h-2.22v-1.86h-.07a2.84,2.84,0,0,1-3,2c-1.77,0-3.14-1.07-3.14-3.52v-5.67H115v5.15C115,570,115.64,570.72,116.83,570.72Z" fill="#fff"/>
      <path d="M123.93,569.86V565.1h-1.51v-1.73h1.51v-2.31h2.22v2.31h1.77v1.73h-1.77v4.41c0,.78.24,1.21,1.18,1.21a6.32,6.32,0,0,0,.69,0v1.66a4.62,4.62,0,0,1-1.28.16C125,572.51,123.93,571.76,123.93,569.86Z" fill="#fff"/>
      <path d="M128.83,569.54h2c.12,1,.85,1.34,1.89,1.34s1.63-.33,1.63-1.09c0-.56-.36-.84-1.05-1l-1.67-.36c-1.82-.42-2.53-1.37-2.53-2.58,0-1.7,1.45-2.68,3.62-2.68s3.59,1.1,3.63,3h-1.84c-.14-1-.8-1.32-1.77-1.32s-1.49.33-1.49,1,.36.85,1.09,1l1.72.38c1.42.33,2.58,1,2.58,2.53,0,2-1.83,2.83-4,2.83C130.36,572.56,128.85,571.57,128.83,569.54Z" fill="#fff"/>
    </g>
    <g>
      <path d="M25.36,544.5h2a2.21,2.21,0,0,0,2.35,2.19,2.28,2.28,0,0,0,2.39-2.52,2.24,2.24,0,0,0-2.36-2.49,2.33,2.33,0,0,0-2.13,1.16H25.55l1-6.66h6.62V538h-5.1l-.45,3a3.39,3.39,0,0,1,2.69-1,3.87,3.87,0,0,1,4,4.19c0,2.76-1.82,4.33-4.54,4.33S25.34,546.81,25.36,544.5Z" fill="#fff"/>
      <path d="M35.47,547.14a1.38,1.38,0,1,1,1.37,1.36A1.37,1.37,0,0,1,35.47,547.14Z" fill="#fff"/>
      <path d="M43.87,536.18h4.77c3.12,0,4.54,1.61,4.54,4s-1.42,4-4.54,4h-2.5v4.21H43.87Zm4.68,5.93c1.56,0,2.27-.75,2.27-2s-.71-2-2.27-2H46.14v3.94Z" fill="#fff"/>
      <path d="M56.82,548.32H54.6v-9h2.22v2.15h.06a2.65,2.65,0,0,1,2.67-2.22,2.47,2.47,0,0,1,.69.09v1.87a5.89,5.89,0,0,0-.69-.05c-1.49,0-2.73.87-2.73,3Z" fill="#fff"/>
      <path d="M60.8,543.81a4.48,4.48,0,1,1,4.47,4.69A4.3,4.3,0,0,1,60.8,543.81Zm4.47,2.83c1.3,0,2.38-.87,2.38-2.83S66.57,541,65.27,541s-2.39.87-2.39,2.83S64,546.64,65.27,546.64Z" fill="#fff"/>
      <path d="M70.82,543.83c0-3.33,2.24-4.7,4.49-4.7a3.73,3.73,0,0,1,4,3.55h-2a1.88,1.88,0,0,0-2-1.68c-1.55,0-2.4,1.13-2.4,2.83s.85,2.79,2.4,2.79a1.88,1.88,0,0,0,2-1.7h2a3.73,3.73,0,0,1-4,3.58A4.27,4.27,0,0,1,70.82,543.83Z" fill="#fff"/>
      <path d="M80.29,543.79c0-3.33,2.07-4.66,4.43-4.66S89,540.41,89,543.71a3.81,3.81,0,0,1,0,.67H82.39c.14,1.69,1,2.41,2.41,2.41a1.85,1.85,0,0,0,2-1.3h2a3.84,3.84,0,0,1-4.08,3C82.41,548.5,80.29,547.16,80.29,543.79Zm6.56-.76a2,2,0,0,0-2.17-2.2,2.13,2.13,0,0,0-2.27,2.2Z" fill="#fff"/>
      <path d="M89.85,545.48h2c.12.95.85,1.33,1.89,1.33s1.63-.33,1.63-1.09c0-.56-.37-.83-1.06-1l-1.67-.37c-1.82-.41-2.53-1.37-2.53-2.58,0-1.7,1.46-2.67,3.63-2.67s3.59,1.09,3.62,3H95.5c-.13-1-.79-1.32-1.76-1.32s-1.5.33-1.5,1,.37.85,1.1,1l1.71.38c1.43.33,2.59,1,2.59,2.54,0,2-1.84,2.83-4,2.83C91.38,548.5,89.87,547.51,89.85,545.48Z" fill="#fff"/>
      <path d="M98.45,545.48h2c.12.95.85,1.33,1.89,1.33s1.63-.33,1.63-1.09c0-.56-.36-.83-1.06-1l-1.66-.37c-1.82-.41-2.54-1.37-2.54-2.58,0-1.7,1.46-2.67,3.63-2.67s3.59,1.09,3.63,3h-1.84c-.14-1-.8-1.32-1.77-1.32s-1.49.33-1.49,1,.36.85,1.09,1l1.72.38c1.42.33,2.58,1,2.58,2.54,0,2-1.84,2.83-3.95,2.83C100,548.5,98.47,547.51,98.45,545.48Z" fill="#fff"/>
    </g>
    <g>
      <path d="M399.43,116.69c1.93-.22,3.3-.23,3.89-1.5a1.69,1.69,0,0,0-1-2.39,1.87,1.87,0,0,0-2.66,1.09l-.1.22-2-.88.14-.32c.89-2,2.76-3,5.37-1.82,2.44,1.09,3.16,3,2.32,4.88-1,2.1-3,2.26-4.75,2.43-2,.22-3.05.57-3.44,1.42l0,.08,5.34,2.41-.75,1.67-7.66-3.44.23-.51C395.24,118.06,396.49,117,399.43,116.69Z" fill="#fff"/>
      <path d="M403.59,123.51a1.36,1.36,0,0,1,1.81-.69,1.36,1.36,0,1,1-1.11,2.48A1.35,1.35,0,0,1,403.59,123.51Z" fill="#fff"/>
      <path d="M412.11,124.41l2.13,1c-.42,1.1-.14,2.25,1.52,3,1.41.64,2.46.38,2.91-.61s0-1.58-1.05-2.3l-1.38-1c-1.65-1.16-2.63-2.61-1.79-4.48.92-2,3.05-2.43,5.58-1.29s3.63,3,2.67,5.15l-2.14-1c.46-1-.09-1.9-1.36-2.47s-2.23-.21-2.57.55-.14,1.33.86,2.06l1.3.93c2.25,1.6,2.86,3,2.08,4.76-1,2.28-3.37,2.51-5.91,1.38C412.13,128.83,411.07,126.72,412.11,124.41Z" fill="#fff"/>
      <path d="M422.36,128.28c1.37-3,3.8-3.41,5.95-2.44s3.34,2.9,2,5.91a3.41,3.41,0,0,1-.33.6L424,129.68c-.57,1.59-.09,2.6,1.21,3.19a1.86,1.86,0,0,0,2.4-.35l1.8.81a3.83,3.83,0,0,1-4.95,1.07C422.37,133.44,421,131.35,422.36,128.28Zm6.3,2a2,2,0,0,0-1.07-2.9,2.15,2.15,0,0,0-3,1.08Z" fill="#fff"/>
      <path d="M436.66,131.6a2,2,0,0,0-2.82,1.16l-2.12,4.69-2-.91,3.7-8.23,2,.92-.76,1.69.07,0a2.83,2.83,0,0,1,3.52-.64c1.61.72,2.42,2.27,1.42,4.5L437.34,140l-2-.91,2.12-4.7C438,133,437.75,132.1,436.66,131.6Z" fill="#fff"/>
      <path d="M440.5,136.46c1.35-3,3.77-3.44,5.55-2.65A3.06,3.06,0,0,1,448,136.3l1.81-4,2,.91-5,11.08-2-.91.54-1.19a3.06,3.06,0,0,1-3.16.2C440.43,141.56,439.15,139.46,440.5,136.46Zm2.94,4.42c1.11.5,2.53.17,3.33-1.61s.1-3.05-1-3.55-2.56-.18-3.36,1.59S442.3,140.37,443.44,140.88Z" fill="#fff"/>
      <path d="M457.17,135.58l2.08.94L456.78,142l7.18-3.35,2.45,1.1-6.56,3,2,8.23-2.41-1.08-1.54-6.25-2.39,1.11-1.26,2.8-2.07-.93Z" fill="#fff"/>
      <path d="M463.67,146.86c1.36-3,3.8-3.41,5.95-2.44s3.33,2.9,2,5.91a3.26,3.26,0,0,1-.33.59l-5.93-2.66c-.56,1.59-.09,2.6,1.21,3.18a1.85,1.85,0,0,0,2.4-.34l1.8.81A3.81,3.81,0,0,1,465.8,153C463.67,152,462.29,149.93,463.67,146.86Zm6.29,2a2,2,0,0,0-1.07-2.9,2.15,2.15,0,0,0-3,1.08Z" fill="#fff"/>
      <path d="M472.72,156.45a1.36,1.36,0,0,0,.5-1.11l.37-9,2.08.94-.46,6.64,4.68-4.74,2.09.94-7.22,6.91c-2,1.94-3.41,2.25-5.45,1l.77-1.73C471.51,157.29,472.22,156.93,472.72,156.45Z" fill="#fff"/>
    </g>
    <g>
      <path d="M331.4,391.83a3.23,3.23,0,0,1,1-3.65,2.82,2.82,0,0,1-2.16-2c-.58-1.71.29-3.42,2.49-4.17s3.92.09,4.5,1.8a2.82,2.82,0,0,1-.51,2.86,3.26,3.26,0,0,1,3,2.3c.75,2.2-.65,4.07-3,4.86S332.14,394,331.4,391.83Zm2.85-5.24a1.41,1.41,0,0,0,1-1.94c-.28-.84-.93-1.19-2-.84s-1.35,1-1.07,1.87A1.41,1.41,0,0,0,334.25,386.59Zm1.87,5.5a2,2,0,1,0-1.26-3.71,2,2,0,0,0-1.5,2.6C333.72,392,334.69,392.58,336.12,392.09Z" fill="#fff"/>
      <path d="M341.46,390.83a1.38,1.38,0,1,1,1.74.84A1.36,1.36,0,0,1,341.46,390.83Z" fill="#fff"/>
      <path d="M348.31,385.68l2.21-.75c.45,1.1,1.44,1.75,3.16,1.16,1.47-.49,2.06-1.39,1.71-2.42s-1.1-1.13-2.33-1l-1.68.22c-2,.27-3.7-.12-4.36-2.06-.72-2.11.57-3.86,3.2-4.75s4.71-.26,5.47,2l-2.22.75c-.36-1.05-1.37-1.33-2.68-.88-1.46.49-1.77,1.37-1.51,2.15s.81,1.07,2,.93l1.58-.21c2.74-.36,4.16.27,4.77,2.06.8,2.37-.76,4.15-3.39,5C351.34,388.91,349.12,388.08,348.31,385.68Z" fill="#fff"/>
      <path d="M358.45,381.53c-1.07-3.16.46-5.09,2.69-5.84s4.42-.15,5.48,3a3.77,3.77,0,0,1,.17.66l-6.16,2.09c.67,1.55,1.71,2,3.06,1.51a1.86,1.86,0,0,0,1.52-1.89l1.87-.64a3.83,3.83,0,0,1-2.89,4.16C362,385.3,359.53,384.71,358.45,381.53Zm6-2.83a2,2,0,0,0-2.76-1.39,2.14,2.14,0,0,0-1.45,2.81Z" fill="#fff"/>
      <path d="M371.18,374.22A2,2,0,0,0,369.9,377l1.65,4.88-2.1.72-2.9-8.55,2.1-.71.6,1.76.07,0a2.84,2.84,0,0,1,2.14-2.87c1.67-.56,3.32,0,4.1,2.33l1.83,5.37-2.11.72-1.65-4.88C373.15,374.32,372.31,373.84,371.18,374.22Z" fill="#fff"/>
      <path d="M377.3,375.15c-1.06-3.12.41-5.09,2.25-5.71a3.05,3.05,0,0,1,3.12.49l-1.42-4.19,2.1-.71,3.91,11.5-2.11.71-.41-1.23a3.07,3.07,0,0,1-2.18,2.3C380.72,378.93,378.36,378.27,377.3,375.15Zm5.16,1.23c1.15-.39,2-1.6,1.34-3.44s-2-2.3-3.16-1.91-2,1.61-1.37,3.45S381.28,376.78,382.46,376.38Z" fill="#fff"/>
      <path d="M388.9,363.15l4.18-1.42c3.59-1.22,6.14.23,7.39,3.9s.11,6.38-3.49,7.6l-4.17,1.42Zm7.22,8.26c2.52-.85,3.05-2.35,2.14-5s-2.24-3.54-4.76-2.69l-1.8.62,2.62,7.72Z" fill="#fff"/>
      <path d="M402.08,366.72c-1.07-3.16.45-5.09,2.68-5.84s4.43-.15,5.49,3a2.92,2.92,0,0,1,.16.66l-6.16,2.09c.68,1.55,1.72,2,3.06,1.51a1.86,1.86,0,0,0,1.52-1.89l1.88-.64a3.84,3.84,0,0,1-2.9,4.16C405.59,370.49,403.16,369.91,402.08,366.72Zm6-2.83a2,2,0,0,0-2.76-1.39,2.15,2.15,0,0,0-1.45,2.81Z" fill="#fff"/>
      <path d="M411.3,363.62c-1.07-3.15.61-5.17,2.75-5.89a3.73,3.73,0,0,1,5,2.06l-1.91.65a1.89,1.89,0,0,0-2.48-.93c-1.46.49-1.9,1.83-1.36,3.44s1.71,2.38,3.17,1.88a1.9,1.9,0,0,0,1.39-2.27l1.91-.64a3.73,3.73,0,0,1-2.68,4.68A4.28,4.28,0,0,1,411.3,363.62Z" fill="#fff"/>
      <path d="M424.31,364l-2.1.72-2.9-8.55,2.1-.71.69,2,0,0a2.66,2.66,0,0,1,1.82-3,2.27,2.27,0,0,1,.68-.14l.6,1.77a4.08,4.08,0,0,0-.67.18c-1.41.48-2.3,1.69-1.62,3.7Z" fill="#fff"/>
      <path d="M431.47,362.05a1.35,1.35,0,0,0-.39-1.14l-5.83-6.8,2.15-.73,4.2,5.17.19-6.66,2.17-.74-.57,10c-.17,2.8-1,4-3.28,4.48l-.61-1.79C431.15,363.5,431.43,362.75,431.47,362.05Z" fill="#fff"/>
      <path d="M435.14,350.75l2.1-.71.42,1.23a3.06,3.06,0,0,1,2.17-2.3c1.84-.62,4.21,0,5.27,3.16s-.42,5.09-2.26,5.72a3.08,3.08,0,0,1-3.12-.5l1.48,4.35-2.1.71Zm6.61,5.5c1.19-.4,2-1.61,1.38-3.45s-2-2.3-3.2-1.9-2,1.6-1.34,3.44S440.6,356.64,441.75,356.25Z" fill="#fff"/>
      <path d="M447.67,353.35l-1.53-4.5-1.43.48-.55-1.64,1.43-.49-.75-2.18,2.11-.72.74,2.19,1.67-.57.56,1.64-1.67.57,1.41,4.17c.25.74.62,1.08,1.51.78a5.78,5.78,0,0,0,.65-.26l.53,1.58a5,5,0,0,1-1.16.56C449.58,355.5,448.28,355.15,447.67,353.35Z" fill="#fff"/>
      <path d="M451.68,349.88c-1.07-3.15.45-5.08,2.69-5.84s4.42-.15,5.48,3a3.5,3.5,0,0,1,.17.65l-6.16,2.09c.67,1.55,1.71,2,3.05,1.51,1.07-.36,1.56-1,1.52-1.89l1.88-.63a3.82,3.82,0,0,1-2.9,4.15C455.19,353.65,452.76,353.07,451.68,349.88Zm6-2.83a2,2,0,0,0-2.76-1.39,2.14,2.14,0,0,0-1.44,2.82Z" fill="#fff"/>
      <path d="M460.9,346.77c-1.06-3.12.41-5.09,2.25-5.71a3.05,3.05,0,0,1,3.12.49l-1.42-4.18,2.1-.72,3.91,11.5-2.1.72-.42-1.24a3.08,3.08,0,0,1-2.17,2.3C464.33,350.55,462,349.89,460.9,346.77Zm5.16,1.23c1.15-.39,2-1.6,1.34-3.44s-2-2.3-3.16-1.91-2,1.61-1.37,3.45S464.88,348.4,466.06,348Z" fill="#fff"/>
      <path d="M474.21,340.6c-1.23-3.61.18-6.64,3.4-7.73s6.2.44,7.43,4.06-.2,6.66-3.42,7.75S475.43,344.2,474.21,340.6Zm6.78,2.21c2-.67,2.66-2.61,1.81-5.12s-2.58-3.62-4.55-2.95-2.68,2.58-1.82,5.11S479,343.48,481,342.81Z" fill="#fff"/>
      <path d="M491.72,339.31a2,2,0,0,0,1.28-2.76l-1.65-4.88,2.1-.71,2.9,8.54-2.1.71-.6-1.75-.07,0a2.84,2.84,0,0,1-2.14,2.87c-1.67.57-3.32,0-4.1-2.33l-1.83-5.37,2.11-.71,1.65,4.87C489.75,339.21,490.59,339.69,491.72,339.31Z" fill="#fff"/>
      <path d="M498.16,336.21l-1.53-4.5-1.43.48-.55-1.64,1.42-.49-.74-2.18,2.1-.71.75,2.18,1.67-.57.56,1.64-1.68.57,1.42,4.18c.25.74.62,1.07,1.51.77a6.64,6.64,0,0,0,.65-.26l.53,1.58a5,5,0,0,1-1.16.56C500.06,338.37,498.77,338,498.16,336.21Z" fill="#fff"/>
      <path d="M501.22,328.32l2.1-.71.42,1.23a3,3,0,0,1,2.17-2.3c1.84-.62,4.21,0,5.27,3.16s-.42,5.09-2.26,5.72a3.07,3.07,0,0,1-3.12-.5l1.48,4.35-2.1.71Zm6.61,5.5c1.18-.4,2-1.61,1.37-3.45s-2-2.3-3.19-1.9-2,1.6-1.34,3.44S506.68,334.21,507.83,333.82Z" fill="#fff"/>
      <path d="M517.3,330.63a2,2,0,0,0,1.27-2.76L516.92,323l2.1-.71,2.9,8.54-2.1.71-.6-1.76-.06,0a2.87,2.87,0,0,1-2.14,2.87c-1.68.57-3.32,0-4.11-2.33L511.09,325l2.1-.72,1.65,4.88C515.32,330.53,516.16,331,517.3,330.63Z" fill="#fff"/>
      <path d="M523.73,327.53,522.2,323l-1.42.48-.56-1.64,1.43-.49-.74-2.18,2.1-.71.74,2.18,1.68-.57.55,1.64-1.67.57,1.41,4.18c.26.73.62,1.07,1.51.77a5.78,5.78,0,0,0,.65-.26l.53,1.58a4.81,4.81,0,0,1-1.16.56C525.64,329.68,524.35,329.33,523.73,327.53Z" fill="#fff"/>
    </g>
    <g>
      <path d="M336.9,469.36c-1.2-3.27-.95-6.31,2.27-7.49,2.61-1,4.36.33,4.89,1.82l-1.84.68a1.87,1.87,0,0,0-2.49-.82c-2.08.76-1.61,3.09-1.11,4.44a3.73,3.73,0,0,1,2.29-2.25,3.78,3.78,0,0,1,5.13,2.43c1.07,2.89-.8,4.76-2.67,5.45C341,474.49,338.46,473.59,336.9,469.36Zm5.83,2.57a2.24,2.24,0,0,0,1.32-3.06,2.29,2.29,0,1,0-4.29,1.58A2.24,2.24,0,0,0,342.73,471.93Z" fill="#fff"/>
      <path d="M348.29,470.36a1.36,1.36,0,0,1,.81-1.76,1.36,1.36,0,1,1,.94,2.56A1.36,1.36,0,0,1,348.29,470.36Z" fill="#fff"/>
      <path d="M355,465l2.2-.81c.47,1.09,1.48,1.71,3.19,1.08,1.44-.53,2-1.44,1.64-2.47s-1.13-1.1-2.35-.91l-1.68.27c-2,.32-3.7,0-4.41-1.94-.78-2.1.47-3.88,3.08-4.84s4.7-.38,5.51,1.82l-2.2.81c-.38-1-1.4-1.3-2.7-.82s-1.73,1.42-1.45,2.2c.24.63.83,1,2.06.87l1.58-.25c2.72-.43,4.16.17,4.81,1.94.87,2.35-.64,4.16-3.25,5.12C358.12,468.18,355.87,467.42,355,465Z" fill="#fff"/>
      <path d="M365,460.62c-1.15-3.12.33-5.09,2.54-5.91s4.42-.25,5.56,2.84a3,3,0,0,1,.18.65l-6.1,2.25c.71,1.53,1.76,1.92,3.09,1.43a1.86,1.86,0,0,0,1.48-1.93l1.85-.68a3.83,3.83,0,0,1-2.79,4.23C368.65,464.3,366.2,463.78,365,460.62Zm5.89-3a2,2,0,0,0-2.79-1.32,2.15,2.15,0,0,0-1.37,2.86Z" fill="#fff"/>
      <path d="M377.57,453a2,2,0,0,0-1.21,2.8l1.78,4.83-2.08.77-3.12-8.47,2.08-.76.64,1.74.07,0a2.84,2.84,0,0,1,2.06-2.93c1.66-.61,3.32-.07,4.17,2.22l2,5.32-2.08.77-1.79-4.83C379.54,453,378.69,452.58,377.57,453Z" fill="#fff"/>
      <path d="M383.71,453.76c-1.14-3.09.28-5.09,2.11-5.77a3.08,3.08,0,0,1,3.13.42l-1.53-4.15,2.08-.77,4.2,11.4-2.08.77-.45-1.22a3.09,3.09,0,0,1-2.11,2.35C387.23,457.46,384.85,456.86,383.71,453.76Zm5.19,1.1c1.14-.42,1.93-1.65,1.26-3.47s-2.07-2.25-3.21-1.83-2,1.66-1.29,3.48S387.73,455.3,388.9,454.86Z" fill="#fff"/>
      <path d="M395,441.47l7.64-2.81.69,1.87-5.51,2,1.07,2.89,5-1.84.61,1.67-5,1.85,1.13,3.08,5.67-2.09L407,450l-7.8,2.87Z" fill="#fff"/>
      <path d="M409.84,441.1a2,2,0,0,0-1.21,2.8l1.78,4.83-2.08.77L405.21,441l2.09-.77.64,1.74.06,0a2.86,2.86,0,0,1,2.07-2.93c1.66-.61,3.32-.07,4.16,2.22l2,5.32-2.08.77-1.78-4.83C411.82,441.15,411,440.69,409.84,441.1Z" fill="#fff"/>
      <path d="M416,441.89a4.3,4.3,0,0,1,2.59-6,3.72,3.72,0,0,1,5,1.94l-1.88.69a1.9,1.9,0,0,0-2.51-.87c-1.45.53-1.85,1.89-1.27,3.48s1.77,2.33,3.21,1.79a1.89,1.89,0,0,0,1.34-2.3l1.89-.69a3.72,3.72,0,0,1-2.56,4.75A4.27,4.27,0,0,1,416,441.89Z" fill="#fff"/>
      <path d="M429,441.89l-2.08.76-3.12-8.46,2.08-.77.75,2,.05,0a2.63,2.63,0,0,1,1.74-3,2.19,2.19,0,0,1,.68-.16l.64,1.75a5.88,5.88,0,0,0-.67.2c-1.4.51-2.25,1.75-1.52,3.74Z" fill="#fff"/>
      <path d="M436.11,439.8a1.34,1.34,0,0,0-.42-1.13l-6-6.65,2.13-.79,4.33,5.07,0-6.67,2.15-.79-.31,10c-.1,2.81-.86,4-3.17,4.57l-.65-1.78C435.83,441.26,436.09,440.5,436.11,439.8Z" fill="#fff"/>
      <path d="M439.49,428.41l2.08-.77.45,1.22a3.09,3.09,0,0,1,2.11-2.35c1.83-.67,4.21-.07,5.35,3s-.28,5.09-2.11,5.76a3.06,3.06,0,0,1-3.13-.41l1.59,4.31-2.08.77Zm6.75,5.33c1.17-.43,2-1.66,1.29-3.48s-2.07-2.26-3.24-1.83-1.93,1.66-1.26,3.48S445.1,434.16,446.24,433.74Z" fill="#fff"/>
      <path d="M452.08,430.68l-1.64-4.46-1.42.53-.59-1.63,1.41-.52-.8-2.17,2.09-.77.8,2.17,1.66-.61.6,1.62-1.67.62,1.53,4.13c.27.73.65,1.06,1.52.73a4.1,4.1,0,0,0,.64-.27l.58,1.56a4.77,4.77,0,0,1-1.15.59C454,432.79,452.74,432.47,452.08,430.68Z" fill="#fff"/>
      <path d="M456,427.12c-1.15-3.13.32-5.1,2.54-5.91S463,421,464.09,424a3,3,0,0,1,.19.66l-6.11,2.24c.72,1.53,1.77,1.93,3.1,1.43,1.06-.39,1.53-1,1.47-1.93l1.86-.68a3.83,3.83,0,0,1-2.79,4.23C459.61,430.8,457.16,430.27,456,427.12Zm5.89-3a2,2,0,0,0-2.8-1.32,2.15,2.15,0,0,0-1.37,2.86Z" fill="#fff"/>
      <path d="M465.14,423.77c-1.14-3.09.28-5.1,2.11-5.77a3,3,0,0,1,3.13.42l-1.53-4.15,2.08-.77,4.2,11.39-2.08.77-.45-1.22a3.06,3.06,0,0,1-2.12,2.35C468.66,427.46,466.28,426.86,465.14,423.77Zm5.19,1.1c1.14-.42,1.93-1.65,1.25-3.48s-2.07-2.25-3.2-1.83-2,1.66-1.29,3.49S469.16,425.3,470.33,424.87Z" fill="#fff"/>
      <path d="M478.29,417.26c-1.32-3.58,0-6.64,3.2-7.82s6.2.29,7.52,3.87,0,6.66-3.21,7.84S479.6,420.83,478.29,417.26Zm6.83,2c1.95-.72,2.6-2.67,1.68-5.17s-2.67-3.54-4.63-2.82-2.61,2.64-1.69,5.15S483.16,420,485.12,419.29Z" fill="#fff"/>
      <path d="M495.76,415.52a2,2,0,0,0,1.21-2.79l-1.78-4.84,2.08-.77,3.12,8.47-2.09.77-.64-1.74-.06,0a2.84,2.84,0,0,1-2.07,2.92c-1.66.62-3.31.08-4.16-2.22l-2-5.32,2.08-.77,1.78,4.84C493.78,415.47,494.64,415.93,495.76,415.52Z" fill="#fff"/>
      <path d="M502.12,412.25l-1.65-4.46-1.41.53-.6-1.63,1.41-.52-.79-2.17,2.08-.77.8,2.17,1.66-.61.6,1.62-1.66.62,1.52,4.13c.27.73.65,1.06,1.53.73a5.1,5.1,0,0,0,.64-.27l.57,1.56a4.77,4.77,0,0,1-1.15.59C504.08,414.36,502.78,414,502.12,412.25Z" fill="#fff"/>
      <path d="M505,404.29l2.08-.77.45,1.22a3.06,3.06,0,0,1,2.11-2.35c1.83-.67,4.21-.07,5.35,3s-.29,5.09-2.11,5.76a3.06,3.06,0,0,1-3.13-.41l1.59,4.31-2.09.77Zm6.75,5.33c1.17-.43,2-1.66,1.29-3.48s-2.07-2.26-3.25-1.83-1.92,1.66-1.25,3.48S510.58,410,511.72,409.62Z" fill="#fff"/>
      <path d="M521.1,406.18a2,2,0,0,0,1.21-2.79l-1.78-4.83,2.08-.77,3.12,8.46-2.08.77-.64-1.74-.07,0a2.85,2.85,0,0,1-2.07,2.93c-1.66.61-3.32.07-4.16-2.22l-2-5.32,2.08-.77,1.78,4.83C519.12,406.14,520,406.6,521.1,406.18Z" fill="#fff"/>
      <path d="M527.46,402.92l-1.65-4.46-1.41.52-.6-1.63,1.42-.52-.8-2.16,2.08-.77.8,2.16,1.66-.61.6,1.63-1.66.61,1.52,4.14c.27.73.65,1.05,1.53.73.19-.07.34-.13.64-.27l.57,1.56a4.77,4.77,0,0,1-1.15.59C529.42,405,528.12,404.71,527.46,402.92Z" fill="#fff"/>
    </g>
    <g>
      <path d="M162.72,363.48v5.36h-1.78l-7.41-5.36v-2.22h7.41v-1.39h1.78v1.39h2.95v2.22Zm-1.78,0h-4.72l4.72,3.42Z" fill="#fff"/>
      <path d="M164.49,358.62a1.36,1.36,0,0,1-1.37-1.37,1.37,1.37,0,1,1,2.73,0A1.36,1.36,0,0,1,164.49,358.62Z" fill="#fff"/>
      <path d="M161.82,350.49v-2.34c1.18-.07,2.12-.8,2.12-2.62,0-1.55-.66-2.4-1.76-2.4s-1.42.68-1.66,1.89l-.33,1.67c-.38,2-1.3,3.47-3.35,3.47-2.24,0-3.47-1.79-3.47-4.56s1.27-4.55,3.61-4.55v2.34c-1.11,0-1.7.87-1.7,2.26,0,1.54.73,2.11,1.56,2.11.68,0,1.27-.41,1.53-1.63l.31-1.56c.54-2.7,1.6-3.85,3.49-3.85,2.5,0,3.68,2,3.68,4.82C165.85,348.65,164.35,350.49,161.82,350.49Z" fill="#fff"/>
      <path d="M161.14,339.54c-3.33,0-4.66-2.06-4.66-4.42s1.28-4.23,4.58-4.23a3,3,0,0,1,.67.05v6.51c1.69-.14,2.42-1,2.42-2.42a1.85,1.85,0,0,0-1.31-2v-2a3.82,3.82,0,0,1,3,4.08C165.85,337.43,164.51,339.54,161.14,339.54Zm-.76-6.55a2,2,0,0,0-2.2,2.16,2.15,2.15,0,0,0,2.2,2.28Z" fill="#fff"/>
      <path d="M158.32,325.15a2,2,0,0,0,2.2,2.1h5.15v2.22h-9v-2.22h1.86v-.07a2.86,2.86,0,0,1-2-2.95c0-1.77,1.07-3.14,3.52-3.14h5.67v2.22h-5.15C159,323.31,158.32,324,158.32,325.15Z" fill="#fff"/>
      <path d="M161.16,319.65c-3.3,0-4.68-2-4.68-4a3.07,3.07,0,0,1,1.47-2.8h-4.42v-2.22h12.14v2.22h-1.3a3.07,3.07,0,0,1,1.48,2.8C165.85,317.62,164.46,319.65,161.16,319.65Zm2.83-4.49c0-1.22-.89-2.38-2.83-2.38s-2.83,1.16-2.83,2.38.89,2.41,2.83,2.41S164,316.41,164,315.16Z" fill="#fff"/>
      <path d="M153.53,304.8v-8.13h2v5.86h3.09v-5.34h1.79v5.34h3.28v-6h2v8.31Z" fill="#fff"/>
      <path d="M158.32,290.75a2,2,0,0,0,2.2,2.1h5.15v2.22h-9v-2.22h1.86v-.07a2.84,2.84,0,0,1-2-2.95c0-1.77,1.07-3.14,3.52-3.14h5.67v2.22h-5.15C159,288.91,158.32,289.55,158.32,290.75Z" fill="#fff"/>
      <path d="M161.18,285.26a4.3,4.3,0,0,1-4.7-4.5,3.72,3.72,0,0,1,3.55-4v2a1.9,1.9,0,0,0-1.68,2c0,1.54,1.13,2.39,2.83,2.39s2.79-.85,2.79-2.39a1.9,1.9,0,0,0-1.7-2v-2a3.73,3.73,0,0,1,3.58,4A4.28,4.28,0,0,1,161.18,285.26Z" fill="#fff"/>
      <path d="M165.67,273v2.22h-9V273h2.15V273a2.65,2.65,0,0,1-2.22-2.67,2.47,2.47,0,0,1,.09-.69h1.87a5.75,5.75,0,0,0,0,.69c0,1.49.87,2.72,3,2.72Z" fill="#fff"/>
      <path d="M166.17,265.65a1.36,1.36,0,0,0-1.21,0L156.65,269v-2.28l6.25-2.3-6.25-2.33v-2.29l9.26,3.75c2.61,1.06,3.46,2.18,3.2,4.54h-1.89C167.44,266.42,166.82,265.92,166.17,265.65Z" fill="#fff"/>
      <path d="M156.65,258.54v-2.22H158a3,3,0,0,1-1.47-2.79c0-1.94,1.38-4,4.68-4s4.69,2,4.69,4a3,3,0,0,1-1.48,2.79H169v2.22Zm7.34-4.49c0-1.25-.89-2.41-2.83-2.41s-2.83,1.16-2.83,2.41.89,2.38,2.83,2.38S164,255.27,164,254.05Z" fill="#fff"/>
      <path d="M163.14,247.51h-4.76V249h-1.73v-1.51h-2.31v-2.22h2.31v-1.77h1.73v1.77h4.41c.78,0,1.22-.24,1.22-1.18a4.75,4.75,0,0,0,0-.69h1.67a5.05,5.05,0,0,1,.15,1.28C165.79,246.4,165.05,247.51,163.14,247.51Z" fill="#fff"/>
      <path d="M161.14,242.6c-3.33,0-4.66-2.06-4.66-4.42s1.28-4.23,4.58-4.23a3,3,0,0,1,.67.05v6.5c1.69-.13,2.42-1,2.42-2.41a1.85,1.85,0,0,0-1.31-2v-2a3.82,3.82,0,0,1,3,4.08C165.85,240.49,164.51,242.6,161.14,242.6Zm-.76-6.55a2,2,0,0,0-2.2,2.16,2.15,2.15,0,0,0,2.2,2.28Z" fill="#fff"/>
      <path d="M161.16,232.87c-3.3,0-4.68-2-4.68-4a3,3,0,0,1,1.47-2.79h-4.42v-2.22h12.14v2.22h-1.3a3,3,0,0,1,1.48,2.79C165.85,230.84,164.46,232.87,161.16,232.87Zm2.83-4.49c0-1.21-.89-2.38-2.83-2.38s-2.83,1.17-2.83,2.38.89,2.41,2.83,2.41S164,229.63,164,228.38Z" fill="#fff"/>
      <path d="M153.53,218v-2.28h12.14V218Z" fill="#fff"/>
      <path d="M158.32,209.58a2,2,0,0,0,2.2,2.1h5.15v2.22h-9v-2.22h1.86v-.07a2.85,2.85,0,0,1-2-3c0-1.77,1.07-3.14,3.52-3.14h5.67v2.22h-5.15C159,207.74,158.32,208.38,158.32,209.58Z" fill="#fff"/>
      <path d="M156.65,203.65v-2.22H158a3.07,3.07,0,0,1-1.47-2.8c0-1.94,1.38-4,4.68-4s4.69,2,4.69,4a3.07,3.07,0,0,1-1.48,2.8H169v2.22Zm7.34-4.5c0-1.25-.89-2.41-2.83-2.41s-2.83,1.16-2.83,2.41.89,2.38,2.83,2.38S164,200.37,164,199.15Z" fill="#fff"/>
      <path d="M164,189.16a2,2,0,0,0-2.21-2.1h-5.15v-2.22h9v2.22h-1.85v.07a2.85,2.85,0,0,1,2,3c0,1.77-1.08,3.14-3.53,3.14h-5.67V191h5.15C163.28,191,164,190.36,164,189.16Z" fill="#fff"/>
      <path d="M163.14,182.07h-4.76v1.51h-1.73v-1.51h-2.31v-2.22h2.31v-1.77h1.73v1.77h4.41c.78,0,1.22-.24,1.22-1.18a4.75,4.75,0,0,0,0-.69h1.67a5.05,5.05,0,0,1,.15,1.28C165.79,181,165.05,182.07,163.14,182.07Z" fill="#fff"/>
      <path d="M162.83,177.16v-2c.95-.12,1.33-.85,1.33-1.89s-.33-1.63-1.09-1.63c-.56,0-.83.37-1,1.06l-.37,1.67c-.41,1.82-1.37,2.53-2.58,2.53-1.7,0-2.67-1.46-2.67-3.63s1.09-3.59,3-3.62v1.84c-1,.14-1.32.79-1.32,1.77s.33,1.49,1,1.49.85-.37,1-1.1l.38-1.71c.33-1.43,1-2.59,2.54-2.59,2,0,2.83,1.84,2.83,4C165.85,175.64,164.86,177.15,162.83,177.16Z" fill="#fff"/>
    </g>
    <path d="M381.16,109.42l-13.79-7.55,5.22-1a.78.78,0,1,0-.29-1.53L365,100.75a.87.87,0,0,0-.33.17h0s0,0,0,0a.76.76,0,0,0-.2.32s0,0,0,0a.69.69,0,0,0,0,.32s0,0,0,.08,0,0,0,.05l2.59,6.86a.81.81,0,0,0,.36.41.78.78,0,0,0,1.1-1l-1.85-4.89,13.84,7.58a.78.78,0,0,0,.75-1.37Z" fill="#fff"/>
    <path d="M314.32,398.28l-14.75,5.43,2.67-4.6a.78.78,0,1,0-1.34-.78l-3.76,6.47a.75.75,0,0,0-.1.36v0s0,0,0,.05a.76.76,0,0,0,.11.36l0,0a.64.64,0,0,0,.24.22s.05,0,.08,0l0,0,6.87,2.55a.72.72,0,0,0,.54,0,.75.75,0,0,0,.46-.46.78.78,0,0,0-.46-1l-4.9-1.82,14.81-5.45a.78.78,0,1,0-.54-1.46Z" fill="#fff"/>
    <path d="M161.49,377.47v15.72l-3.39-4.1a.78.78,0,0,0-1.2,1l4.77,5.77a.78.78,0,0,0,.3.21l0,0h.05a.7.7,0,0,0,.38,0h0a.73.73,0,0,0,.29-.15s0-.05.05-.07l.05,0,4.77-5.57a.82.82,0,0,0,.19-.5.81.81,0,0,0-.28-.6.77.77,0,0,0-1.09.09l-3.4,4V377.47a.78.78,0,1,0-1.56,0Z" fill="#fff"/>
  </g>
</svg>
