<svg id="Слой_1" data-name="Слой 1" xmlns="http://www.w3.org/2000/svg" width="1017.68" height="265.7" viewBox="0 0 1017.68 265.7">
  <g>
    <circle cx="984.66" cy="232.68" r="33.02" fill="#fff"/>
    <g>
      <path d="M984.66,233.4a10.6,10.6,0,1,0-10.6-10.6A10.59,10.59,0,0,0,984.66,233.4Z" fill="#142c39"/>
      <path d="M1001,251.16a1.74,1.74,0,0,0,.74-.2,1.65,1.65,0,0,0,.58-.5,1.73,1.73,0,0,0,.27-1.46,18.74,18.74,0,0,0-35.88,0,1.63,1.63,0,0,0,0,.76,1.71,1.71,0,0,0,.31.7,1.65,1.65,0,0,0,.58.5,1.74,1.74,0,0,0,.74.2Z" fill="#142c39"/>
    </g>
  </g>
  <g>
    <circle cx="35.35" cy="232.68" r="33.02" fill="#fff"/>
    <g>
      <path d="M45.38,225.12a9.83,9.83,0,0,0-3.39.58v-.58a10,10,0,1,0-20,0v.57a10,10,0,0,0,3.24,19.43H45.34a10,10,0,1,0,0-20Z" fill="none" stroke="#142c39" stroke-miterlimit="10" stroke-width="3"/>
      <path d="M39.75,237.46l-5.32-5.33a.46.46,0,0,0-.32-.13.48.48,0,0,0-.32.13l-5.31,5.33a.41.41,0,0,0-.13.23.4.4,0,0,0,0,.26.41.41,0,0,0,.17.2.43.43,0,0,0,.25.07h3.28a.46.46,0,0,1,.32.13.44.44,0,0,1,.13.32v10.58a.49.49,0,0,0,.14.32.46.46,0,0,0,.32.13h2.25a.44.44,0,0,0,.45-.45V238.67a.44.44,0,0,1,.45-.45h3.29a.45.45,0,0,0,.25-.07.55.55,0,0,0,.17-.2.47.47,0,0,0,0-.26A.46.46,0,0,0,39.75,237.46Z" fill="#142c39"/>
    </g>
  </g>
  <g>
    <circle cx="351.78" cy="232.68" r="33.02" fill="#fff"/>
    <path d="M358,232.82V217.57a1,1,0,0,0-.3-.73,1.06,1.06,0,0,0-.73-.3H341.27a1,1,0,0,0-.73.3,1.08,1.08,0,0,0-.31.73v10.31a1,1,0,0,1-.15.54,1,1,0,0,1-.41.38l-7.32,3.74a1.07,1.07,0,0,0-.41.38,1,1,0,0,0-.16.54v16.68a1,1,0,0,0,1,1h37.93a1.1,1.1,0,0,0,.4-.08,1.06,1.06,0,0,0,.33-.22,1.27,1.27,0,0,0,.23-.34,1.09,1.09,0,0,0,.07-.4V234.89a1,1,0,0,0-1-1H359a1.06,1.06,0,0,1-.4-.08,1,1,0,0,1-.34-.23,1,1,0,0,1-.22-.34A1,1,0,0,1,358,232.82ZM355.29,240h-12a.87.87,0,0,1-.39-.07,1,1,0,0,1-.56-.56.88.88,0,0,1-.08-.39.92.92,0,0,1,.08-.4,1,1,0,0,1,.56-.56,1,1,0,0,1,.39-.08h12a1,1,0,0,1,.73.31,1,1,0,0,1,0,1.45A1,1,0,0,1,355.29,240Zm0-3.29h-12a1,1,0,0,1-.39-.08,1,1,0,0,1-.56-.56.88.88,0,0,1-.08-.39.92.92,0,0,1,.08-.4,1.06,1.06,0,0,1,.22-.33,1,1,0,0,1,.34-.23,1,1,0,0,1,.39-.08h12a1,1,0,0,1,.73.31,1,1,0,0,1,.3.73,1,1,0,0,1-.08.39,1,1,0,0,1-.22.34.91.91,0,0,1-.33.22.92.92,0,0,1-.4.08Zm0-3.3h-12a1,1,0,0,1-.39-.08,1.11,1.11,0,0,1-.34-.22,1.19,1.19,0,0,1-.22-.33,1,1,0,0,1,0-.8,1.06,1.06,0,0,1,.22-.33,1.13,1.13,0,0,1,.34-.23,1,1,0,0,1,.39-.08h12a1.1,1.1,0,0,1,.73.31,1,1,0,0,1,.3.73,1.06,1.06,0,0,1-.3.73A1,1,0,0,1,355.29,233.44Zm0-3.3h-12a1,1,0,0,1-.39-.08,1,1,0,0,1-.34-.22,1.06,1.06,0,0,1-.22-.33.92.92,0,0,1-.08-.4,1.12,1.12,0,0,1,.07-.4,1.09,1.09,0,0,1,.23-.33,1,1,0,0,1,.34-.23,1,1,0,0,1,.39-.07h12a.92.92,0,0,1,.4.08.91.91,0,0,1,.33.22,1,1,0,0,1,.22.34,1,1,0,0,1-.95,1.42Zm0-3.3h-12a1,1,0,0,1-.39-.07,1.13,1.13,0,0,1-.34-.23,1.06,1.06,0,0,1-.22-.33.92.92,0,0,1-.08-.4,1,1,0,0,1,.07-.39,1.08,1.08,0,0,1,.57-.57,1,1,0,0,1,.39-.07h12a.92.92,0,0,1,.4.08,1.06,1.06,0,0,1,.33.22,1,1,0,0,1,.22.34,1,1,0,0,1,.08.39,1,1,0,0,1-.3.73A1,1,0,0,1,355.29,226.84Zm0-3.3h-12a1,1,0,0,1-.39-.07,1.13,1.13,0,0,1-.34-.23,1.09,1.09,0,0,1-.23-.33,1.12,1.12,0,0,1-.07-.4.92.92,0,0,1,.08-.4,1.06,1.06,0,0,1,.22-.33,1,1,0,0,1,.34-.22.88.88,0,0,1,.39-.08h12a1,1,0,0,1,.95,1.42,1,1,0,0,1-.22.34.91.91,0,0,1-.33.22A.92.92,0,0,1,355.29,223.54Zm0-3.3h-12a.87.87,0,0,1-.39-.07,1,1,0,0,1-.34-.23.94.94,0,0,1-.3-.73.92.92,0,0,1,.08-.4,1.19,1.19,0,0,1,.22-.33,1,1,0,0,1,.34-.22,1,1,0,0,1,.39-.08h12a1,1,0,0,1,.73.3,1.06,1.06,0,0,1,.3.73,1.1,1.1,0,0,1-.08.4,1,1,0,0,1-.22.33.94.94,0,0,1-.73.3Zm4,30.1h-.08a1,1,0,0,1-.72-.3,1,1,0,0,1-.3-.72v-2.69a1,1,0,0,1,1-1h.08a1.1,1.1,0,0,1,.4.08,1.06,1.06,0,0,1,.33.22,1.13,1.13,0,0,1,.23.34,1,1,0,0,1,.08.39v2.69a1.09,1.09,0,0,1-.08.39,1,1,0,0,1-.23.33.94.94,0,0,1-.33.23A1.09,1.09,0,0,1,359.28,250.34Zm0-5.15h-.08a1,1,0,0,1-1-1v-2.68a1,1,0,0,1,.3-.73,1,1,0,0,1,.72-.3h.08a1,1,0,0,1,1,1v2.68a1,1,0,0,1-.09.39,1,1,0,0,1-.22.34,1.33,1.33,0,0,1-.34.22,1,1,0,0,1-.39.07Zm0-5.16h-.08a1,1,0,0,1-1-1v-2.69a1,1,0,0,1,1-1h.08a1.1,1.1,0,0,1,.4.08,1.06,1.06,0,0,1,.33.22,1.13,1.13,0,0,1,.23.34,1,1,0,0,1,.08.39V239a1,1,0,0,1-.08.39,1.13,1.13,0,0,1-.23.34,1.06,1.06,0,0,1-.33.22A.92.92,0,0,1,359.28,240Zm2.61,10.31h-.08a1.06,1.06,0,0,1-.73-.3,1,1,0,0,1-.3-.72v-2.69a1,1,0,0,1,1-1h.08a1,1,0,0,1,1,1v2.69a1,1,0,0,1-.31.72A1,1,0,0,1,361.89,250.34Zm0-5.15h-.08a1.06,1.06,0,0,1-.73-.3,1,1,0,0,1-.3-.73v-2.68a1,1,0,0,1,.3-.73,1.06,1.06,0,0,1,.73-.3h.08a1,1,0,0,1,.72.3,1,1,0,0,1,.31.73v2.68a1.08,1.08,0,0,1-.31.72,1,1,0,0,1-.72.3Zm0-5.16h-.08a1,1,0,0,1-1-1v-2.69a1,1,0,0,1,1-1h.08a1,1,0,0,1,1,1V239a1,1,0,0,1-1,1Zm2.75,10.31h-.08a1,1,0,0,1-1-1v-2.69a1.06,1.06,0,0,1,.3-.73,1,1,0,0,1,.72-.3h.08a1,1,0,0,1,.73.3,1.12,1.12,0,0,1,.31.73v2.69a1.08,1.08,0,0,1-.31.72A1,1,0,0,1,364.64,250.34Zm0-5.15h-.08a1,1,0,0,1-.72-.3,1.06,1.06,0,0,1-.3-.73v-2.68a1,1,0,0,1,1-1h.08a1,1,0,0,1,.73.3,1.08,1.08,0,0,1,.31.73v2.68a1.08,1.08,0,0,1-.31.72,1.06,1.06,0,0,1-.73.3Zm0-5.16h-.08a1,1,0,0,1-.72-.3,1,1,0,0,1-.3-.72v-2.69a1.06,1.06,0,0,1,.3-.73,1,1,0,0,1,.72-.3h.08a1,1,0,0,1,.73.3,1.12,1.12,0,0,1,.31.73V239a1.08,1.08,0,0,1-.31.72A1,1,0,0,1,364.64,240Zm2.61,10.31h-.08a1,1,0,0,1-.39-.07,1,1,0,0,1-.34-.23.83.83,0,0,1-.22-.33.91.91,0,0,1-.08-.39v-2.69a.85.85,0,0,1,.08-.39,1,1,0,0,1,.22-.34,1.11,1.11,0,0,1,.34-.22,1,1,0,0,1,.39-.08h.08a1,1,0,0,1,1,1v2.69a1,1,0,0,1-.3.72A1.06,1.06,0,0,1,367.25,250.34Zm0-5.15h-.08a1,1,0,0,1-.39-.08,1,1,0,0,1-.34-.22,1,1,0,0,1-.22-.33.92.92,0,0,1-.08-.4v-2.68a.92.92,0,0,1,.08-.4.91.91,0,0,1,.22-.33,1.13,1.13,0,0,1,.34-.23,1,1,0,0,1,.39-.07h.08a1.06,1.06,0,0,1,.73.3,1,1,0,0,1,.3.73v2.68a1,1,0,0,1-1,1Zm0-5.16h-.08a.87.87,0,0,1-.39-.07,1.11,1.11,0,0,1-.34-.22,1,1,0,0,1-.22-.34.88.88,0,0,1-.08-.39v-2.69a.88.88,0,0,1,.08-.39,1,1,0,0,1,.22-.34,1.11,1.11,0,0,1,.34-.22,1,1,0,0,1,.39-.08h.08a1,1,0,0,1,1,1V239a1,1,0,0,1-1,1Z" fill="#142c39"/>
  </g>
  <g>
    <circle cx="668.22" cy="232.68" r="33.02" fill="#fff"/>
    <g>
      <path d="M648.26,230.5c9.65-11.65,30.24-11.82,40-.22" fill="none" stroke="#142c39" stroke-miterlimit="10" stroke-width="3"/>
      <path d="M652.89,235.13c7.3-9.11,23.29-9.23,30.69-.17" fill="none" stroke="#142c39" stroke-miterlimit="10" stroke-width="3"/>
      <path d="M657.81,240.05a13.7,13.7,0,0,1,4.64-3.63,13.53,13.53,0,0,1,16.17,3.5" fill="none" stroke="#142c39" stroke-miterlimit="10" stroke-width="3"/>
      <path d="M668.26,247.67a4,4,0,1,0-4-4A4,4,0,0,0,668.26,247.67Z" fill="#142c39"/>
    </g>
  </g>
  <polyline points="35.35 211.91 35.35 98.55 502.93 98.55 984.65 98.55 984.65 209.36" fill="none" stroke="#fff" stroke-miterlimit="10" stroke-width="2"/>
  <line x1="502.67" x2="502.67" y2="98.55" fill="none" stroke="#fff" stroke-miterlimit="10" stroke-width="2"/>
  <line x1="351.78" y1="209.36" x2="351.78" y2="98.55" fill="none" stroke="#fff" stroke-miterlimit="10" stroke-width="2"/>
  <line x1="668.26" y1="207.32" x2="668.26" y2="98.55" fill="none" stroke="#fff" stroke-miterlimit="10" stroke-width="2"/>
</svg>
