<svg data-content="changed"  preserveAspectRatio=''  class='aboutus_image_size' id="Слой_1" data-name="Слой 1" xmlns="http://www.w3.org/2000/svg" width="922.78" height="873.18" viewBox="0 0 922.78 873.18">
  <g>
    <path d="M0,706.27v157l79.51-.61,79.18-.61,19.38-5.87c41.76-12.56,68.15-39.3,84.52-85.28,7-19,10-81.63,5.35-107.36-8-43.35-30.41-78.39-61.14-95-16-8.71-21.72-10.74-47.44-17.22-6-1.42-35.75-2.23-84.19-2.23H0Zm149.34-93.58q51.1,15.79,51.11,93.18c0,57.73-19.38,87.91-61.14,95.4-9.35,1.62-28.73,3-43.09,3H70.16V607.22l34.41,1C126.62,609,143,610.46,149.34,612.69Z" fill="#fff"/>
    <path d="M584.65,598.71v29.38H544.56v54.69h39.75l1,70.29c1.33,71.1,1.67,73.32,14.36,90.74,11.7,15.8,42.77,25.12,75.17,22.29,28.73-2.44,26.73-.41,26.73-28.36V812.62l-17-.61c-14.7-.61-18.37-1.62-24.39-6.28-6.68-5.47-7-8.5-8-64.41l-1-58.54h47.11V628.09H651.47V569.34H584.65Z" fill="#fff"/>
    <path d="M798.46,625.45c-32.74,7.9-44.1,13.37-57.79,27.55-19,19.65-21.39,59.35-4.68,81,14.7,19.44,29.73,26.53,75.5,35.85,24.72,4.86,31.07,6.89,38.42,11.34,6.35,3.65,7,18.44,1.67,25.93-7.68,10.33-37.41,13.78-53.79,6.48-6.68-3-19-18.63-19.37-24.1,0-3-3.68-3.45-30.07-3.45H718.28v9.12c0,4.86,1.67,13.77,3.68,19.65,14.7,41.52,62.47,60.77,127.28,51.25,22-3.45,26.4-4.87,42.77-15,26-16,31.73-26.54,31.73-57.94,0-43.75-16.7-57.52-87.53-72.11-35.41-7.49-44.43-12.56-44.43-26.13.34-17.62,24.05-25.52,49.11-16.2,8.69,3,12,6.48,16.71,16.2l6,12.16h55.12v-5.68c-.33-33.62-23.72-62-59.13-72.51C846.9,625.25,808.15,623,798.46,625.45Z" fill="#fff"/>
    <g id="scanFingerWhite5">
      <path d="M385.25,619.78c-20.29,4.66-23.94,6.28-41.23,17-15,9.52-26.61,23.9-26.94,33.82-.34,9.73,7.31,9.32,13-.81,14.63-25.72,55.54-43.55,94.77-41.32,16,1,39.25,7.09,51.22,13.37,9.64,5.27,27.27,22.69,32.92,32.81,5.32,9.73,10.65,12.36,13.64,6.69,4.32-8.31-13.64-32.61-34.25-46.79C464.4,618.36,420.5,611.88,385.25,619.78Z" fill="#fafafa"/>
      <path d="M399.89,637.4c-52.22,7.3-84.47,51.86-84.81,116.28,0,11.74-2.32,27.54-5,35.45-6.31,17.61-6.31,19.23-.33,19.23,11,0,14.63-10.73,18.62-56.71,4.33-49.83,14.3-72.72,38.58-88.32,14.3-9.32,23.94-11.75,49.55-13,23.28-1,23.28-1,23.28-7.09,0-5.88-.33-6.08-16.63-6.48C414.19,636.8,403.54,637,399.89,637.4Z" fill="#fafafa"/>
      <path d="M446.77,645.3c-2.66,4.46.34,7.91,11.31,12.77C481,668.4,498,691.49,506.63,723.29c5.66,20.46,6,61.17,1.34,84.88-2.66,12-2.66,17.61,0,19.23,7.31,4.46,10.63-3.24,14-33.41,6.32-57.94-6.65-107.77-34.92-132.28-9.31-8.1-29.26-19.45-34.25-19.45A8.93,8.93,0,0,0,446.77,645.3Z" fill="#fafafa"/>
      <path d="M392.57,659.28c-13.31,4.45-20.95,9.92-20.95,14.59,0,6.88,4.65,7.49,15.29,1.81,10.65-5.46,29.6-8.1,44.9-6.07,6.32.81,17.29,5.47,26.27,10.94C475.71,691.29,486.35,708.3,490,732c2.32,14.59,4.65,17.42,11.3,12.56,3-2.23,2.66-7.5-1-23.7-8-31.8-21.29-48-48.22-58.54-12.31-4.86-18.63-5.87-33.59-5.68C408.2,656.85,396.56,658.07,392.57,659.28Z" fill="#fafafa"/>
      <path d="M403.54,678.73c-5.32,1-14.63,4.65-20.61,8.3-17,9.92-31.6,33.83-24.62,40.31,4,3.85,8,1.22,13.31-9.11,10.64-21.28,33.25-32,57.53-27.15a67.42,67.42,0,0,1,23.61,10.33c11.64,8.31,15.29,8.1,15.29-.61,0-7.29-19.61-19.24-36.24-22.07C418.17,676.5,416.51,676.5,403.54,678.73Z" fill="#fafafa"/>
      <path d="M310.43,681.15c-6.65,12.77-9,19.25-12,35.05-4,22.89-4.33,67.25-.34,68.87,6.32,2.23,8-4.05,9.31-32.21.67-15.59,3.66-35.85,6.65-44.76s5.32-18.84,5.66-22.08C320.07,679.94,312.76,676.29,310.43,681.15Z" fill="#fafafa"/>
      <path d="M357,683.18C338.36,700.6,324.39,751.85,335,764c6.65,7.49,9,3.64,11-19,2-23.09,7.32-38.48,17-50.23C372.28,683.38,367.29,673.66,357,683.18Z" fill="#fafafa"/>
      <path d="M517.94,690.27c0,2,2.33,13.57,5,25.93a259.13,259.13,0,0,1,5,45.78c0,13,1,23.9,2,24.71,1,.61,4,.61,6.66,0,6.31-1.41,6.31-38.48,0-69.48-5.33-26.13-7.32-30.38-14-30.38C519.94,686.83,517.94,688.45,517.94,690.27Z" fill="#fafafa"/>
      <path d="M391.57,701.41c-11.64,6.69-14,13.17-18.62,52.27-6,50.84-6,50.64,1.66,50.64,5.32,0,6.32-2.23,8.32-18.64,1-10.13,2-26.33,2-35.85,0-21.27,4-30.39,16.63-38.7l9.64-6.27,13,4c19.95,6.28,27.6,20.05,27.6,50.84,0,35.45-7.65,70.09-20.61,93.59-3.33,6.27-5.33,13-4.33,14.78,12.3,19.45,38.24-53.47,37.58-106.34-.33-33.43-7.31-51.66-23.61-60.57C431.15,695.54,401.55,695.74,391.57,701.41Z" fill="#fafafa"/>
      <path d="M467.06,711.74c-1,1.62-.33,9.93,1.33,18.84,2,8.71,3,27.35,2.33,41.32-1,21.88-.34,25.33,4.32,25.94,4.66.4,5.66-2.44,7.65-18.64,2.33-20.26-.33-57.94-5-65.63C474.71,708.5,469.72,707.69,467.06,711.74Z" fill="#fafafa"/>
      <path d="M402.88,715.39c-5.32,3.65-6.32,7.49-6.32,26.94,0,18.64,1,22.48,5,22.48s5.32-3.64,6-18.63c1-20,5.32-25.73,15.3-19.85,8.32,5.26,9.64,16.2,6.32,51.45-3.33,34.43-3,39.5,3.66,38.08,4-.81,11-39.5,11.63-64.41.34-17.22-6-33.23-15.29-37.48C420.5,709.92,410.19,710.53,402.88,715.39Z" fill="#fafafa"/>
      <path d="M357.32,734.84c-1.33.6-2.33,9.11-2.66,18.63-.33,35.45-4.33,51.65-16,65.83-6,7.09-10.31,14.59-9.64,16.62,2.33,7.89,9.31,4.45,20.95-10.14,11.64-14.78,12.3-16.6,15.63-48.41C369.62,739.9,367.63,728.56,357.32,734.84Z" fill="#fafafa"/>
      <path d="M413.85,734.84c-1.33.6-2.32,15-2.32,31.8,0,40.92-8.32,67.45-27.94,88.52-6,6.28-7.32,9.52-5,12.15,5,5.67,11.64,2.43,20.62-9.93,17.29-23.49,25.6-53.06,25.6-92.57C424.82,737.27,421.83,729.77,413.85,734.84Z" fill="#fafafa"/>
      <path d="M494,752.86c-1,1-3,15.4-4.33,32.21-1,16.61-5,39.09-8.64,50-7.65,23.9-7.65,23.9-.33,23.9S493,847.87,498,820.52c6.65-37.47,7.65-61.58,2.33-65.63C497.66,752.86,495,751.85,494,752.86Z" fill="#fafafa"/>
      <path d="M333.7,772.31c-1,1.42-2.32,8.91-3,16.61-1,9.72-3.66,15.6-8.64,19.65-7.66,6.28-9,13-3.33,15.19,10.64,3.85,27.27-22.89,25.61-41.12C343.35,771.9,337,765.83,333.7,772.31Z" fill="#fafafa"/>
      <path d="M396.89,772.31c-.66,1.42-2.32,9.52-3.33,17.83-3,20.05-10.3,37.26-22.28,49.82-11,11.95-12.63,19.65-3.65,18.64,7.31-.81,27.6-25.73,33.25-41.32,6-16.41,7-45.78,1.66-46.79C400.22,769.88,397.56,770.69,396.89,772.31Z" fill="#fafafa"/>
      <path d="M466.73,812.82c-1,2.63-4,12.16-6.65,21.48-3,9.31-7.65,20.05-10.31,23.9-5,7.49-3.66,13,3.32,13,7.32,0,18.63-23.9,23.62-50.24,2-10.73,1.32-12.56-3.33-12.56C470.72,808.36,467.39,810.39,466.73,812.82Z" fill="#fafafa"/>
      <path d="M363.31,818.69c-1.34,3.45-6,11.35-10.32,17.23-15.62,21.67-4.65,27.14,12,6.07,12-15.39,14.64-28,6-29.17C367.29,812.42,365,814,363.31,818.69Z" fill="#fafafa"/>
      <path d="M416.84,835.92a105.25,105.25,0,0,1-12,21.27c-8.65,9.92-8.65,16-.33,16,5,0,8.31-3.44,15-14.78,11.31-19.24,16-31.4,13.64-33.83C427.82,819.3,421.83,823.36,416.84,835.92Z" fill="#fafafa"/>
    </g>
    <g id="scanFingerGrey5">
      <path d="M385.25,619.78c-20.29,4.66-23.94,6.28-41.23,17-15,9.52-26.61,23.9-26.94,33.82-.34,9.73,7.31,9.32,13-.81,14.63-25.72,55.54-43.55,94.77-41.32,16,1,39.25,7.09,51.22,13.37,9.64,5.27,27.27,22.69,32.92,32.81,5.32,9.73,10.65,12.36,13.64,6.69,4.32-8.31-13.64-32.61-34.25-46.79C464.4,618.36,420.5,611.88,385.25,619.78Z" fill="#142b38" stroke="#142b38" stroke-miterlimit="10" stroke-width="3"/>
      <path d="M399.89,637.4c-52.22,7.3-84.47,51.86-84.81,116.28,0,11.74-2.32,27.54-5,35.45-6.31,17.61-6.31,19.23-.33,19.23,11,0,14.63-10.73,18.62-56.71,4.33-49.83,14.3-72.72,38.58-88.32,14.3-9.32,23.94-11.75,49.55-13,23.28-1,23.28-1,23.28-7.09,0-5.88-.33-6.08-16.63-6.48C414.19,636.8,403.54,637,399.89,637.4Z" fill="#142b38" stroke="#142b38" stroke-miterlimit="10" stroke-width="3"/>
      <path d="M446.77,645.3c-2.66,4.46.34,7.91,11.31,12.77C481,668.4,498,691.49,506.63,723.29c5.66,20.46,6,61.17,1.34,84.88-2.66,12-2.66,17.61,0,19.23,7.31,4.46,10.63-3.24,14-33.41,6.32-57.94-6.65-107.77-34.92-132.28-9.31-8.1-29.26-19.45-34.25-19.45A8.93,8.93,0,0,0,446.77,645.3Z" fill="#142b38" stroke="#142b38" stroke-miterlimit="10" stroke-width="3"/>
      <path d="M392.57,659.28c-13.31,4.45-20.95,9.92-20.95,14.59,0,6.88,4.65,7.49,15.29,1.81,10.65-5.46,29.6-8.1,44.9-6.07,6.32.81,17.29,5.47,26.27,10.94C475.71,691.29,486.35,708.3,490,732c2.32,14.59,4.65,17.42,11.3,12.56,3-2.23,2.66-7.5-1-23.7-8-31.8-21.29-48-48.22-58.54-12.31-4.86-18.63-5.87-33.59-5.68C408.2,656.85,396.56,658.07,392.57,659.28Z" fill="#142b38" stroke="#142b38" stroke-miterlimit="10" stroke-width="3"/>
      <path d="M403.54,678.73c-5.32,1-14.63,4.65-20.61,8.3-17,9.92-31.6,33.83-24.62,40.31,4,3.85,8,1.22,13.31-9.11,10.64-21.28,33.25-32,57.53-27.15a67.42,67.42,0,0,1,23.61,10.33c11.64,8.31,15.29,8.1,15.29-.61,0-7.29-19.61-19.24-36.24-22.07C418.17,676.5,416.51,676.5,403.54,678.73Z" fill="#142b38" stroke="#142b38" stroke-miterlimit="10" stroke-width="3"/>
      <path d="M310.43,681.15c-6.65,12.77-9,19.25-12,35.05-4,22.89-4.33,67.25-.34,68.87,6.32,2.23,8-4.05,9.31-32.21.67-15.59,3.66-35.85,6.65-44.76s5.32-18.84,5.66-22.08C320.07,679.94,312.76,676.29,310.43,681.15Z" fill="#142b38" stroke="#142b38" stroke-miterlimit="10" stroke-width="3"/>
      <path d="M357,683.18C338.36,700.6,324.39,751.85,335,764c6.65,7.49,9,3.64,11-19,2-23.09,7.32-38.48,17-50.23C372.28,683.38,367.29,673.66,357,683.18Z" fill="#142b38" stroke="#142b38" stroke-miterlimit="10" stroke-width="3"/>
      <path d="M517.94,690.27c0,2,2.33,13.57,5,25.93a259.13,259.13,0,0,1,5,45.78c0,13,1,23.9,2,24.71,1,.61,4,.61,6.66,0,6.31-1.41,6.31-38.48,0-69.48-5.33-26.13-7.32-30.38-14-30.38C519.94,686.83,517.94,688.45,517.94,690.27Z" fill="#142b38" stroke="#142b38" stroke-miterlimit="10" stroke-width="3"/>
      <path d="M391.57,701.41c-11.64,6.69-14,13.17-18.62,52.27-6,50.84-6,50.64,1.66,50.64,5.32,0,6.32-2.23,8.32-18.64,1-10.13,2-26.33,2-35.85,0-21.27,4-30.39,16.63-38.7l9.64-6.27,13,4c19.95,6.28,27.6,20.05,27.6,50.84,0,35.45-7.65,70.09-20.61,93.59-3.33,6.27-5.33,13-4.33,14.78,12.3,19.45,38.24-53.47,37.58-106.34-.33-33.43-7.31-51.66-23.61-60.57C431.15,695.54,401.55,695.74,391.57,701.41Z" fill="#142b38" stroke="#142b38" stroke-miterlimit="10" stroke-width="3"/>
      <path d="M467.06,711.74c-1,1.62-.33,9.93,1.33,18.84,2,8.71,3,27.35,2.33,41.32-1,21.88-.34,25.33,4.32,25.94,4.66.4,5.66-2.44,7.65-18.64,2.33-20.26-.33-57.94-5-65.63C474.71,708.5,469.72,707.69,467.06,711.74Z" fill="#142b38" stroke="#142b38" stroke-miterlimit="10" stroke-width="3"/>
      <path d="M402.88,715.39c-5.32,3.65-6.32,7.49-6.32,26.94,0,18.64,1,22.48,5,22.48s5.32-3.64,6-18.63c1-20,5.32-25.73,15.3-19.85,8.32,5.26,9.64,16.2,6.32,51.45-3.33,34.43-3,39.5,3.66,38.08,4-.81,11-39.5,11.63-64.41.34-17.22-6-33.23-15.29-37.48C420.5,709.92,410.19,710.53,402.88,715.39Z" fill="#142b38" stroke="#142b38" stroke-miterlimit="10" stroke-width="3"/>
      <path d="M357.32,734.84c-1.33.6-2.33,9.11-2.66,18.63-.33,35.45-4.33,51.65-16,65.83-6,7.09-10.31,14.59-9.64,16.62,2.33,7.89,9.31,4.45,20.95-10.14,11.64-14.78,12.3-16.6,15.63-48.41C369.62,739.9,367.63,728.56,357.32,734.84Z" fill="#142b38" stroke="#142b38" stroke-miterlimit="10" stroke-width="3"/>
      <path d="M413.85,734.84c-1.33.6-2.32,15-2.32,31.8,0,40.92-8.32,67.45-27.94,88.52-6,6.28-7.32,9.52-5,12.15,5,5.67,11.64,2.43,20.62-9.93,17.29-23.49,25.6-53.06,25.6-92.57C424.82,737.27,421.83,729.77,413.85,734.84Z" fill="#142b38" stroke="#142b38" stroke-miterlimit="10" stroke-width="3"/>
      <path d="M494,752.86c-1,1-3,15.4-4.33,32.21-1,16.61-5,39.09-8.64,50-7.65,23.9-7.65,23.9-.33,23.9S493,847.87,498,820.52c6.65-37.47,7.65-61.58,2.33-65.63C497.66,752.86,495,751.85,494,752.86Z" fill="#142b38" stroke="#142b38" stroke-miterlimit="10" stroke-width="3"/>
      <path d="M333.7,772.31c-1,1.42-2.32,8.91-3,16.61-1,9.72-3.66,15.6-8.64,19.65-7.66,6.28-9,13-3.33,15.19,10.64,3.85,27.27-22.89,25.61-41.12C343.35,771.9,337,765.83,333.7,772.31Z" fill="#142b38" stroke="#142b38" stroke-miterlimit="10" stroke-width="3"/>
      <path d="M396.89,772.31c-.66,1.42-2.32,9.52-3.33,17.83-3,20.05-10.3,37.26-22.28,49.82-11,11.95-12.63,19.65-3.65,18.64,7.31-.81,27.6-25.73,33.25-41.32,6-16.41,7-45.78,1.66-46.79C400.22,769.88,397.56,770.69,396.89,772.31Z" fill="#142b38" stroke="#142b38" stroke-miterlimit="10" stroke-width="3"/>
      <path d="M466.73,812.82c-1,2.63-4,12.16-6.65,21.48-3,9.31-7.65,20.05-10.31,23.9-5,7.49-3.66,13,3.32,13,7.32,0,18.63-23.9,23.62-50.24,2-10.73,1.32-12.56-3.33-12.56C470.72,808.36,467.39,810.39,466.73,812.82Z" fill="#142b38" stroke="#142b38" stroke-miterlimit="10" stroke-width="3"/>
      <path d="M363.31,818.69c-1.34,3.45-6,11.35-10.32,17.23-15.62,21.67-4.65,27.14,12,6.07,12-15.39,14.64-28,6-29.17C367.29,812.42,365,814,363.31,818.69Z" fill="#142b38" stroke="#142b38" stroke-miterlimit="10" stroke-width="3"/>
      <path d="M416.84,835.92a105.25,105.25,0,0,1-12,21.27c-8.65,9.92-8.65,16-.33,16,5,0,8.31-3.44,15-14.78,11.31-19.24,16-31.4,13.64-33.83C427.82,819.3,421.83,823.36,416.84,835.92Z" fill="#142b38" stroke="#142b38" stroke-miterlimit="10" stroke-width="3"/>
    </g>
  </g>
  <g>
    <path d="M0,269.12V537l135.69-1,135.12-1,33.07-10c71.26-21.44,116.3-67.06,144.24-145.53,12-32.5,17.1-139.31,9.12-183.21-13.68-74-51.88-133.78-104.33-162.12-27.37-14.87-37.06-18.32-81-29.39C261.69,2.25,211,.87,128.28.87H0ZM254.85,109.41q87.23,27,87.22,159c0,98.52-33.06,150-104.33,162.82-16,2.76-49,5.18-73.54,5.18H119.73V100.08l58.72,1.73C216.08,103.19,244,105.61,254.85,109.41Z" fill="#fff"/>
    <g id="scanFingerWhite4">
      <path d="M657.44,94.59c-34.62,8-40.86,10.72-70.37,29-25.54,16.25-45.4,40.79-46,57.73-.57,16.59,12.48,15.9,22.13-1.39,25-43.9,94.78-74.32,161.74-70.51,27.24,1.72,67,12.09,87.4,22.81,16.45,9,46.53,38.72,56.18,56,9.08,16.6,18.17,21.09,23.27,11.41,7.38-14.18-23.27-55.66-58.45-79.85C792.51,92.17,717.59,81.11,657.44,94.59Z" fill="#fafafa"/>
      <path d="M682.41,124.67c-89.1,12.44-144.14,88.49-144.72,198.42,0,20-4,47-8.51,60.49-10.78,30.07-10.78,32.84-.57,32.84,18.73,0,25-18.32,31.79-96.79,7.37-85,24.4-124.1,65.83-150.72,24.4-15.9,40.86-20,84.55-22.12,39.73-1.73,39.73-1.73,39.73-12.1,0-10-.56-10.37-28.38-11.06C706.82,123.63,688.65,124,682.41,124.67Z" fill="#fafafa"/>
      <path d="M762.43,138.15c-4.54,7.6.57,13.48,19.3,21.78,39.15,17.63,68.1,57,82.85,111.3,9.65,34.92,10.21,104.4,2.27,144.85-4.53,20.39-4.53,30.06,0,32.83,12.49,7.6,18.16-5.53,23.83-57C901.47,293,879.34,208,831.1,166.15,815.21,152.32,781.16,133,772.64,133,769.24,133,764.7,135.38,762.43,138.15Z" fill="#fafafa"/>
      <path d="M669.92,162c-22.7,7.6-35.75,16.93-35.75,24.89,0,11.75,8,12.79,26.1,3.1,18.17-9.32,50.51-13.82,76.63-10.36,10.77,1.38,29.5,9.34,44.83,18.67,30.08,18.32,48.23,47.36,54.48,87.79,4,24.9,7.94,29.73,19.29,21.44,5.11-3.81,4.54-12.79-1.7-40.44-13.62-54.28-36.32-81.93-82.29-99.91-21-8.29-31.78-10-57.32-9.68C696.6,157.85,676.74,159.93,669.92,162Z" fill="#fafafa"/>
      <path d="M688.65,195.19c-9.07,1.72-25,7.94-35.18,14.17-28.94,16.93-53.92,57.73-42,68.79,6.81,6.57,13.62,2.08,22.7-15.55,18.16-36.31,56.76-54.63,98.18-46.33,12.49,2.42,30.08,10,40.29,17.63,19.87,14.17,26.11,13.82,26.11-1,0-12.44-33.49-32.83-61.85-37.67C713.62,191.38,710.78,191.38,688.65,195.19Z" fill="#fafafa"/>
      <path d="M529.75,199.33c-11.35,21.78-15.32,32.84-20.43,59.8-6.81,39.06-7.37,114.77-.57,117.54,10.79,3.8,13.63-6.92,15.89-55,1.14-26.61,6.25-61.18,11.35-76.39s9.08-32.15,9.65-37.68C546.21,197.26,533.73,191,529.75,199.33Z" fill="#fafafa"/>
      <path d="M609.2,202.79C577.42,232.52,553.58,320,571.75,340.72c11.35,12.79,15.32,6.22,18.72-32.5,3.41-39.4,12.49-65.68,28.95-85.72C635.31,203.13,626.79,186.54,609.2,202.79Z" fill="#fafafa"/>
      <path d="M883.88,214.89c0,3.45,4,23.16,8.51,44.24,4.54,20.75,8.51,56,8.51,78.12s1.71,40.79,3.41,42.18c1.7,1,6.8,1,11.35,0,10.78-2.41,10.78-65.67,0-118.57C906.57,216.27,903.17,209,891.82,209,887.28,209,883.88,211.78,883.88,214.89Z" fill="#fafafa"/>
      <path d="M668.22,233.9c-19.86,11.41-23.84,22.47-31.78,89.19-10.21,86.76-10.21,86.42,2.84,86.42,9.08,0,10.78-3.81,14.19-31.81,1.7-17.29,3.4-44.94,3.4-61.18,0-36.29,6.82-51.86,28.38-66l16.46-10.71,22.13,6.91c34,10.72,47.1,34.22,47.1,86.76,0,60.49-13.05,119.61-35.18,159.71-5.68,10.71-9.09,22.12-7.38,25.24,21,33.18,65.26-91.26,64.13-181.48-.57-57-12.48-88.16-40.3-103.36C735.76,223.87,685.25,224.22,668.22,233.9Z" fill="#fafafa"/>
      <path d="M797,251.53c-1.7,2.76-.56,16.94,2.28,32.15,3.4,14.86,5.11,46.67,4,70.52-1.7,37.33-.57,43.21,7.38,44.25,7.94.69,9.65-4.16,13.05-31.81,4-34.57-.56-98.86-8.51-112C810.1,246,801.59,244.62,797,251.53Z" fill="#fafafa"/>
      <path d="M687.52,257.76c-9.08,6.21-10.78,12.78-10.78,46,0,31.81,1.7,38.38,8.51,38.38s9.08-6.22,10.22-31.81c1.7-34.22,9.07-43.9,26.1-33.87,14.19,9,16.45,27.65,10.78,87.8-5.68,58.76-5.1,67.41,6.25,65,6.8-1.38,18.72-67.41,19.85-109.92.58-29.39-10.21-56.7-26.1-64C717.59,248.42,700,249.46,687.52,257.76Z" fill="#fafafa"/>
      <path d="M609.77,290.94c-2.27,1-4,15.55-4.54,31.8-.57,60.49-7.38,88.15-27.24,112.34-10.22,12.1-17.59,24.89-16.46,28.35,4,13.48,15.89,7.61,35.76-17.29,19.86-25.23,21-28.34,26.67-82.61C630.77,299.58,627.37,280.23,609.77,290.94Z" fill="#fafafa"/>
      <path d="M706.24,290.94c-2.26,1-4,25.58-4,54.27,0,69.83-14.19,115.11-47.68,151.05C644.38,507,642.12,512.52,646.09,517c8.51,9.68,19.86,4.15,35.19-16.94C710.78,460,725,409.51,725,342.1,725,295.09,719.87,282.29,706.24,290.94Z" fill="#fafafa"/>
      <path d="M843,321.7c-1.7,1.73-5.1,26.28-7.37,55-1.7,28.35-8.52,66.71-14.76,85.37-13,40.79-13,40.79-.56,40.79s21-19,29.51-65.67c11.35-64,13-105.09,4-112C849.26,321.7,844.72,320,843,321.7Z" fill="#fafafa"/>
      <path d="M569.47,354.88c-1.7,2.43-4,15.22-5.1,28.35-1.7,16.59-6.25,26.62-14.75,33.53-13.06,10.72-15.33,22.13-5.68,25.93,18.16,6.57,46.53-39.06,43.7-70.18C585.94,354.2,575.15,343.82,569.47,354.88Z" fill="#fafafa"/>
      <path d="M677.3,354.88c-1.13,2.43-4,16.26-5.67,30.43-5.11,34.22-17.6,63.6-38,85-18.73,20.39-21.57,33.53-6.24,31.8,12.48-1.37,47.09-43.9,56.74-70.51,10.22-28,11.92-78.12,2.84-79.85C683,350.74,678.44,352.12,677.3,354.88Z" fill="#fafafa"/>
      <path d="M796.48,424c-1.7,4.49-6.81,20.75-11.35,36.65-5.1,15.9-13,34.22-17.59,40.79-8.51,12.78-6.24,22.12,5.67,22.12,12.48,0,31.78-40.79,40.3-85.73,3.4-18.32,2.26-21.43-5.68-21.43C803.29,416.42,797.62,419.88,796.48,424Z" fill="#fafafa"/>
      <path d="M620,434c-2.27,5.88-10.22,19.37-17.6,29.39-26.67,37-7.94,46.32,20.43,10.37,20.44-26.27,25-47.7,10.22-49.78C626.79,423.33,622.82,426.1,620,434Z" fill="#fafafa"/>
      <path d="M711.36,463.43c-5.12,12.79-14.76,29-20.43,36.3-14.77,16.94-14.77,27.3-.58,27.3,8.52,0,14.19-5.87,25.54-25.22,19.3-32.85,27.25-53.59,23.27-57.73C730.08,435.08,719.87,442,711.36,463.43Z" fill="#fafafa"/>
    </g>
    <g id="scanFingerGrey4">
      <path d="M657.44,94.59c-34.62,8-40.86,10.72-70.37,29-25.54,16.25-45.4,40.79-46,57.73-.57,16.59,12.48,15.9,22.13-1.39,25-43.9,94.78-74.32,161.74-70.51,27.24,1.72,67,12.09,87.4,22.81,16.45,9,46.53,38.72,56.18,56,9.08,16.6,18.17,21.09,23.27,11.41,7.38-14.18-23.27-55.66-58.45-79.85C792.51,92.17,717.59,81.11,657.44,94.59Z" fill="#142b38" stroke="#142b38" stroke-miterlimit="10" stroke-width="3"/>
      <path d="M682.41,124.67c-89.1,12.44-144.14,88.49-144.72,198.42,0,20-4,47-8.51,60.49-10.78,30.07-10.78,32.84-.57,32.84,18.73,0,25-18.32,31.79-96.79,7.37-85,24.4-124.1,65.83-150.72,24.4-15.9,40.86-20,84.55-22.12,39.73-1.73,39.73-1.73,39.73-12.1,0-10-.56-10.37-28.38-11.06C706.82,123.63,688.65,124,682.41,124.67Z" fill="#142b38" stroke="#142b38" stroke-miterlimit="10" stroke-width="3"/>
      <path d="M762.43,138.15c-4.54,7.6.57,13.48,19.3,21.78,39.15,17.63,68.1,57,82.85,111.3,9.65,34.92,10.21,104.4,2.27,144.85-4.53,20.39-4.53,30.06,0,32.83,12.49,7.6,18.16-5.53,23.83-57C901.47,293,879.34,208,831.1,166.15,815.21,152.32,781.16,133,772.64,133,769.24,133,764.7,135.38,762.43,138.15Z" fill="#142b38" stroke="#142b38" stroke-miterlimit="10" stroke-width="3"/>
      <path d="M669.92,162c-22.7,7.6-35.75,16.93-35.75,24.89,0,11.75,8,12.79,26.1,3.1,18.17-9.32,50.51-13.82,76.63-10.36,10.77,1.38,29.5,9.34,44.83,18.67,30.08,18.32,48.23,47.36,54.48,87.79,4,24.9,7.94,29.73,19.29,21.44,5.11-3.81,4.54-12.79-1.7-40.44-13.62-54.28-36.32-81.93-82.29-99.91-21-8.29-31.78-10-57.32-9.68C696.6,157.85,676.74,159.93,669.92,162Z" fill="#142b38" stroke="#142b38" stroke-miterlimit="10" stroke-width="3"/>
      <path d="M688.65,195.19c-9.07,1.72-25,7.94-35.18,14.17-28.94,16.93-53.92,57.73-42,68.79,6.81,6.57,13.62,2.08,22.7-15.55,18.16-36.31,56.76-54.63,98.18-46.33,12.49,2.42,30.08,10,40.29,17.63,19.87,14.17,26.11,13.82,26.11-1,0-12.44-33.49-32.83-61.85-37.67C713.62,191.38,710.78,191.38,688.65,195.19Z" fill="#142b38" stroke="#142b38" stroke-miterlimit="10" stroke-width="3"/>
      <path d="M529.75,199.33c-11.35,21.78-15.32,32.84-20.43,59.8-6.81,39.06-7.37,114.77-.57,117.54,10.79,3.8,13.63-6.92,15.89-55,1.14-26.61,6.25-61.18,11.35-76.39s9.08-32.15,9.65-37.68C546.21,197.26,533.73,191,529.75,199.33Z" fill="#142b38" stroke="#142b38" stroke-miterlimit="10" stroke-width="3"/>
      <path d="M609.2,202.79C577.42,232.52,553.58,320,571.75,340.72c11.35,12.79,15.32,6.22,18.72-32.5,3.41-39.4,12.49-65.68,28.95-85.72C635.31,203.13,626.79,186.54,609.2,202.79Z" fill="#142b38" stroke="#142b38" stroke-miterlimit="10" stroke-width="3"/>
      <path d="M883.88,214.89c0,3.45,4,23.16,8.51,44.24,4.54,20.75,8.51,56,8.51,78.12s1.71,40.79,3.41,42.18c1.7,1,6.8,1,11.35,0,10.78-2.41,10.78-65.67,0-118.57C906.57,216.27,903.17,209,891.82,209,887.28,209,883.88,211.78,883.88,214.89Z" fill="#142b38" stroke="#142b38" stroke-miterlimit="10" stroke-width="3"/>
      <path d="M668.22,233.9c-19.86,11.41-23.84,22.47-31.78,89.19-10.21,86.76-10.21,86.42,2.84,86.42,9.08,0,10.78-3.81,14.19-31.81,1.7-17.29,3.4-44.94,3.4-61.18,0-36.29,6.82-51.86,28.38-66l16.46-10.71,22.13,6.91c34,10.72,47.1,34.22,47.1,86.76,0,60.49-13.05,119.61-35.18,159.71-5.68,10.71-9.09,22.12-7.38,25.24,21,33.18,65.26-91.26,64.13-181.48-.57-57-12.48-88.16-40.3-103.36C735.76,223.87,685.25,224.22,668.22,233.9Z" fill="#142b38" stroke="#142b38" stroke-miterlimit="10" stroke-width="3"/>
      <path d="M797,251.53c-1.7,2.76-.56,16.94,2.28,32.15,3.4,14.86,5.11,46.67,4,70.52-1.7,37.33-.57,43.21,7.38,44.25,7.94.69,9.65-4.16,13.05-31.81,4-34.57-.56-98.86-8.51-112C810.1,246,801.59,244.62,797,251.53Z" fill="#142b38" stroke="#142b38" stroke-miterlimit="10" stroke-width="3"/>
      <path d="M687.52,257.76c-9.08,6.21-10.78,12.78-10.78,46,0,31.81,1.7,38.38,8.51,38.38s9.08-6.22,10.22-31.81c1.7-34.22,9.07-43.9,26.1-33.87,14.19,9,16.45,27.65,10.78,87.8-5.68,58.76-5.1,67.41,6.25,65,6.8-1.38,18.72-67.41,19.85-109.92.58-29.39-10.21-56.7-26.1-64C717.59,248.42,700,249.46,687.52,257.76Z" fill="#142b38" stroke="#142b38" stroke-miterlimit="10" stroke-width="3"/>
      <path d="M609.77,290.94c-2.27,1-4,15.55-4.54,31.8-.57,60.49-7.38,88.15-27.24,112.34-10.22,12.1-17.59,24.89-16.46,28.35,4,13.48,15.89,7.61,35.76-17.29,19.86-25.23,21-28.34,26.67-82.61C630.77,299.58,627.37,280.23,609.77,290.94Z" fill="#142b38" stroke="#142b38" stroke-miterlimit="10" stroke-width="3"/>
      <path d="M706.24,290.94c-2.26,1-4,25.58-4,54.27,0,69.83-14.19,115.11-47.68,151.05C644.38,507,642.12,512.52,646.09,517c8.51,9.68,19.86,4.15,35.19-16.94C710.78,460,725,409.51,725,342.1,725,295.09,719.87,282.29,706.24,290.94Z" fill="#142b38" stroke="#142b38" stroke-miterlimit="10" stroke-width="3"/>
      <path d="M843,321.7c-1.7,1.73-5.1,26.28-7.37,55-1.7,28.35-8.52,66.71-14.76,85.37-13,40.79-13,40.79-.56,40.79s21-19,29.51-65.67c11.35-64,13-105.09,4-112C849.26,321.7,844.72,320,843,321.7Z" fill="#142b38" stroke="#142b38" stroke-miterlimit="10" stroke-width="3"/>
      <path d="M569.47,354.88c-1.7,2.43-4,15.22-5.1,28.35-1.7,16.59-6.25,26.62-14.75,33.53-13.06,10.72-15.33,22.13-5.68,25.93,18.16,6.57,46.53-39.06,43.7-70.18C585.94,354.2,575.15,343.82,569.47,354.88Z" fill="#142b38" stroke="#142b38" stroke-miterlimit="10" stroke-width="3"/>
      <path d="M677.3,354.88c-1.13,2.43-4,16.26-5.67,30.43-5.11,34.22-17.6,63.6-38,85-18.73,20.39-21.57,33.53-6.24,31.8,12.48-1.37,47.09-43.9,56.74-70.51,10.22-28,11.92-78.12,2.84-79.85C683,350.74,678.44,352.12,677.3,354.88Z" fill="#142b38" stroke="#142b38" stroke-miterlimit="10" stroke-width="3"/>
      <path d="M796.48,424c-1.7,4.49-6.81,20.75-11.35,36.65-5.1,15.9-13,34.22-17.59,40.79-8.51,12.78-6.24,22.12,5.67,22.12,12.48,0,31.78-40.79,40.3-85.73,3.4-18.32,2.26-21.43-5.68-21.43C803.29,416.42,797.62,419.88,796.48,424Z" fill="#142b38" stroke="#142b38" stroke-miterlimit="10" stroke-width="3"/>
      <path d="M620,434c-2.27,5.88-10.22,19.37-17.6,29.39-26.67,37-7.94,46.32,20.43,10.37,20.44-26.27,25-47.7,10.22-49.78C626.79,423.33,622.82,426.1,620,434Z" fill="#142b38" stroke="#142b38" stroke-miterlimit="10" stroke-width="3"/>
      <path d="M711.36,463.43c-5.12,12.79-14.76,29-20.43,36.3-14.77,16.94-14.77,27.3-.58,27.3,8.52,0,14.19-5.87,25.54-25.22,19.3-32.85,27.25-53.59,23.27-57.73C730.08,435.08,719.87,442,711.36,463.43Z" fill="#142b38" stroke="#142b38" stroke-miterlimit="10" stroke-width="3"/>
    </g>
  </g>
</svg>
